NotoSans-Bold.ufo
<glyph name="exclam" format="2">
  <advance width="290"/>
  <unicode hex="0021"/>
  <outline>
    <contour>
      <point x="226" y="252" type="line"/>
      <point x="251" y="714" type="line"/>
      <point x="40" y="714" type="line"/>
      <point x="65" y="252" type="line"/>
    </contour>
    <contour>
      <point x="42" y="81" type="curve" smooth="yes"/>
      <point x="42" y="15"/>
      <point x="89" y="-12"/>
      <point x="145" y="-12" type="curve" smooth="yes"/>
      <point x="200" y="-12"/>
      <point x="246" y="15"/>
      <point x="246" y="81" type="curve" smooth="yes"/>
      <point x="246" y="150"/>
      <point x="200" y="175"/>
      <point x="145" y="175" type="curve" smooth="yes"/>
      <point x="89" y="175"/>
      <point x="42" y="150"/>
    </contour>
  </outline>
</glyph>
<glyph name="quotedbl" format="2">
  <advance width="524"/>
  <unicode hex="0022"/>
  <outline>
    <contour>
      <point x="233" y="714" type="line"/>
      <point x="59" y="714" type="line"/>
      <point x="79" y="456" type="line"/>
      <point x="213" y="456" type="line"/>
    </contour>
    <contour>
      <point x="465" y="714" type="line"/>
      <point x="291" y="714" type="line"/>
      <point x="311" y="456" type="line"/>
      <point x="445" y="456" type="line"/>
    </contour>
  </outline>
</glyph>
<glyph name="numbersign" format="2">
  <advance width="662"/>
  <unicode hex="0023"/>
  <outline>
    <contour>
      <point x="509" y="397" type="line"/>
      <point x="644" y="397" type="line"/>
      <point x="644" y="524" type="line"/>
      <point x="532" y="524" type="line"/>
      <point x="568" y="714" type="line"/>
      <point x="437" y="714" type="line"/>
      <point x="402" y="524" type="line"/>
      <point x="321" y="524" type="line"/>
      <point x="357" y="714" type="line"/>
      <point x="226" y="714" type="line"/>
      <point x="191" y="524" type="line"/>
      <point x="51" y="524" type="line"/>
      <point x="51" y="397" type="line"/>
      <point x="167" y="397" type="line"/>
      <point x="152" y="315" type="line"/>
      <point x="18" y="315" type="line"/>
      <point x="18" y="191" type="line"/>
      <point x="128" y="191" type="line"/>
      <point x="93" y="0" type="line"/>
      <point x="223" y="0" type="line"/>
      <point x="258" y="191" type="line"/>
      <point x="340" y="191" type="line"/>
      <point x="304" y="0" type="line"/>
      <point x="435" y="0" type="line"/>
      <point x="471" y="191" type="line"/>
      <point x="613" y="191" type="line"/>
      <point x="613" y="315" type="line"/>
      <point x="494" y="315" type="line"/>
    </contour>
    <contour>
      <point x="282" y="315" type="line"/>
      <point x="297" y="397" type="line"/>
      <point x="378" y="397" type="line"/>
      <point x="363" y="315" type="line"/>
    </contour>
  </outline>
</glyph>
<glyph name="dollar" format="2">
  <advance width="577"/>
  <unicode hex="0024"/>
  <outline>
    <contour>
      <point x="242" y="22" type="curve"/>
      <point x="242" y="-58" type="line"/>
      <point x="334" y="-58" type="line"/>
      <point x="334" y="24" type="line"/>
      <point x="486" y="40"/>
      <point x="554" y="122"/>
      <point x="554" y="230" type="curve"/>
      <point x="554" y="348"/>
      <point x="473" y="388"/>
      <point x="334" y="430" type="curve"/>
      <point x="334" y="551" type="line"/>
      <point x="387" y="546"/>
      <point x="443" y="533"/>
      <point x="492" y="512" type="curve"/>
      <point x="535" y="646" type="line"/>
      <point x="481" y="668"/>
      <point x="415" y="688"/>
      <point x="334" y="692" type="curve"/>
      <point x="334" y="760" type="line"/>
      <point x="242" y="760" type="line"/>
      <point x="242" y="691" type="line"/>
      <point x="112" y="682"/>
      <point x="26" y="623"/>
      <point x="26" y="502" type="curve" smooth="yes"/>
      <point x="26" y="374"/>
      <point x="118" y="325"/>
      <point x="242" y="289" type="curve"/>
      <point x="242" y="166" type="line"/>
      <point x="181" y="171"/>
      <point x="105" y="188"/>
      <point x="42" y="216" type="curve"/>
      <point x="42" y="63" type="line"/>
      <point x="98" y="39"/>
      <point x="156" y="24"/>
    </contour>
    <contour>
      <point x="334" y="168" type="curve"/>
      <point x="334" y="266" type="line"/>
      <point x="378" y="252"/>
      <point x="391" y="239"/>
      <point x="391" y="214" type="curve" smooth="yes"/>
      <point x="391" y="189"/>
      <point x="373" y="174"/>
    </contour>
    <contour>
      <point x="242" y="550" type="curve"/>
      <point x="242" y="457" type="line"/>
      <point x="202" y="470"/>
      <point x="187" y="484"/>
      <point x="187" y="509" type="curve" smooth="yes"/>
      <point x="187" y="532"/>
      <point x="206" y="547"/>
    </contour>
  </outline>
</glyph>
<glyph name="ampersand" format="2">
  <advance width="799"/>
  <unicode hex="0026"/>
  <outline>
    <contour>
      <point x="330" y="723" type="curve" smooth="yes"/>
      <point x="182" y="723"/>
      <point x="104" y="652"/>
      <point x="104" y="553" type="curve" smooth="yes"/>
      <point x="104" y="489"/>
      <point x="128" y="440"/>
      <point x="168" y="394" type="curve"/>
      <point x="82" y="350"/>
      <point x="35" y="283"/>
      <point x="35" y="198" type="curve" smooth="yes"/>
      <point x="35" y="83"/>
      <point x="127" y="-10"/>
      <point x="294" y="-10" type="curve" smooth="yes"/>
      <point x="413" y="-10"/>
      <point x="455" y="16"/>
      <point x="509" y="50" type="curve"/>
      <point x="557" y="0" type="line"/>
      <point x="804" y="0" type="line"/>
      <point x="648" y="150" type="line"/>
      <point x="697" y="209"/>
      <point x="744" y="304"/>
      <point x="765" y="401" type="curve"/>
      <point x="567" y="401" type="line"/>
      <point x="557" y="353"/>
      <point x="539" y="309"/>
      <point x="516" y="274" type="curve"/>
      <point x="419" y="366" type="line"/>
      <point x="495" y="412"/>
      <point x="548" y="470"/>
      <point x="548" y="553" type="curve" smooth="yes"/>
      <point x="548" y="660"/>
      <point x="465" y="723"/>
    </contour>
    <contour>
      <point x="272" y="289" type="curve"/>
      <point x="393" y="166" type="line"/>
      <point x="378" y="154"/>
      <point x="349" y="142"/>
      <point x="312" y="142" type="curve" smooth="yes"/>
      <point x="264" y="142"/>
      <point x="232" y="171"/>
      <point x="232" y="212" type="curve" smooth="yes"/>
      <point x="232" y="242"/>
      <point x="244" y="268"/>
    </contour>
    <contour>
      <point x="327" y="598" type="curve" smooth="yes"/>
      <point x="355" y="598"/>
      <point x="376" y="585"/>
      <point x="376" y="553" type="curve" smooth="yes"/>
      <point x="376" y="523"/>
      <point x="356" y="492"/>
      <point x="319" y="471" type="curve"/>
      <point x="296" y="492"/>
      <point x="276" y="518"/>
      <point x="276" y="547" type="curve" smooth="yes"/>
      <point x="276" y="583"/>
      <point x="300" y="598"/>
    </contour>
  </outline>
</glyph>
<glyph name="parenleft" format="2">
  <advance width="359"/>
  <unicode hex="0028"/>
  <outline>
    <contour>
      <point x="36" y="284" type="curve" smooth="yes"/>
      <point x="36" y="123"/>
      <point x="72" y="-41"/>
      <point x="173" y="-158" type="curve"/>
      <point x="331" y="-158" type="line"/>
      <point x="242" y="-36"/>
      <point x="204" y="130"/>
      <point x="204" y="285" type="curve" smooth="yes"/>
      <point x="204" y="443"/>
      <point x="242" y="609"/>
      <point x="332" y="734" type="curve"/>
      <point x="173" y="734" type="line"/>
      <point x="72" y="613"/>
      <point x="36" y="447"/>
    </contour>
  </outline>
</glyph>
<glyph name="parenright" format="2">
  <advance width="359"/>
  <unicode hex="0029"/>
  <outline>
    <contour>
      <point x="323" y="284" type="curve" smooth="yes"/>
      <point x="323" y="447"/>
      <point x="287" y="613"/>
      <point x="186" y="734" type="curve"/>
      <point x="27" y="734" type="line"/>
      <point x="117" y="609"/>
      <point x="155" y="443"/>
      <point x="155" y="285" type="curve" smooth="yes"/>
      <point x="155" y="130"/>
      <point x="117" y="-36"/>
      <point x="28" y="-158" type="curve"/>
      <point x="186" y="-158" type="line"/>
      <point x="287" y="-41"/>
      <point x="323" y="123"/>
    </contour>
  </outline>
</glyph>
<glyph name="asterisk" format="2">
  <advance width="537"/>
  <unicode hex="002A"/>
  <outline>
    <contour>
      <point x="343" y="760" type="line"/>
      <point x="195" y="760" type="line"/>
      <point x="214" y="588" type="line"/>
      <point x="44" y="637" type="line"/>
      <point x="22" y="495" type="line"/>
      <point x="175" y="483" type="line"/>
      <point x="74" y="347" type="line"/>
      <point x="207" y="281" type="line"/>
      <point x="267" y="418" type="line"/>
      <point x="337" y="280" type="line"/>
      <point x="464" y="347" type="line"/>
      <point x="363" y="483" type="line"/>
      <point x="516" y="493" type="line"/>
      <point x="498" y="637" type="line"/>
      <point x="324" y="588" type="line"/>
    </contour>
  </outline>
</glyph>
<glyph name="comma" format="2">
  <advance width="309"/>
  <unicode hex="002C"/>
  <outline>
    <contour>
      <point x="250" y="135" type="curve"/>
      <point x="243" y="146" type="line"/>
      <point x="76" y="146" type="line"/>
      <point x="67" y="66"/>
      <point x="47" y="-48"/>
      <point x="28" y="-139" type="curve"/>
      <point x="164" y="-139" type="line"/>
      <point x="197" y="-65"/>
      <point x="232" y="63"/>
    </contour>
  </outline>
</glyph>
<glyph name="period" format="2">
  <advance width="289"/>
  <unicode hex="002E"/>
  <outline>
    <contour>
      <point x="42" y="81" type="curve" smooth="yes"/>
      <point x="42" y="15"/>
      <point x="89" y="-12"/>
      <point x="146" y="-12" type="curve" smooth="yes"/>
      <point x="200" y="-12"/>
      <point x="246" y="15"/>
      <point x="246" y="81" type="curve" smooth="yes"/>
      <point x="246" y="150"/>
      <point x="200" y="175"/>
      <point x="146" y="175" type="curve" smooth="yes"/>
      <point x="89" y="175"/>
      <point x="42" y="150"/>
    </contour>
  </outline>
</glyph>
<glyph name="seven" format="2">
  <advance width="586"/>
  <unicode hex="0037"/>
  <outline>
    <contour>
      <point x="102" y="0" type="line"/>
      <point x="302" y="0" type="line"/>
      <point x="553" y="600" type="line"/>
      <point x="553" y="714" type="line"/>
      <point x="38" y="714" type="line"/>
      <point x="38" y="554" type="line"/>
      <point x="347" y="554" type="line"/>
    </contour>
  </outline>
</glyph>
<glyph name="colon" format="2">
  <advance width="289"/>
  <unicode hex="003A"/>
  <outline>
    <contour>
      <point x="42" y="81" type="curve"/>
      <point x="42" y="15"/>
      <point x="89" y="-12"/>
      <point x="146" y="-12" type="curve" smooth="yes"/>
      <point x="200" y="-12"/>
      <point x="246" y="15"/>
      <point x="246" y="81" type="curve" smooth="yes"/>
      <point x="246" y="150"/>
      <point x="200" y="175"/>
      <point x="146" y="175" type="curve" smooth="yes"/>
      <point x="89" y="175"/>
      <point x="42" y="150"/>
    </contour>
    <contour>
      <point x="42" y="467" type="curve"/>
      <point x="42" y="400"/>
      <point x="89" y="373"/>
      <point x="146" y="373" type="curve" smooth="yes"/>
      <point x="200" y="373"/>
      <point x="246" y="400"/>
      <point x="246" y="467" type="curve" smooth="yes"/>
      <point x="246" y="535"/>
      <point x="200" y="560"/>
      <point x="146" y="560" type="curve" smooth="yes"/>
      <point x="89" y="560"/>
      <point x="42" y="535"/>
    </contour>
  </outline>
</glyph>
<glyph name="semicolon" format="2">
  <advance width="297"/>
  <unicode hex="003B"/>
  <outline>
    <contour>
      <point x="250" y="135" type="curve"/>
      <point x="243" y="146" type="line"/>
      <point x="76" y="146" type="line"/>
      <point x="67" y="66"/>
      <point x="47" y="-48"/>
      <point x="28" y="-139" type="curve"/>
      <point x="164" y="-139" type="line"/>
      <point x="197" y="-65"/>
      <point x="232" y="63"/>
    </contour>
    <contour>
      <point x="45" y="467" type="curve"/>
      <point x="45" y="400"/>
      <point x="91" y="373"/>
      <point x="148" y="373" type="curve" smooth="yes"/>
      <point x="202" y="373"/>
      <point x="249" y="400"/>
      <point x="249" y="467" type="curve" smooth="yes"/>
      <point x="249" y="535"/>
      <point x="202" y="560"/>
      <point x="148" y="560" type="curve" smooth="yes"/>
      <point x="91" y="560"/>
      <point x="45" y="535"/>
    </contour>
  </outline>
</glyph>
<glyph name="less" format="2">
  <advance width="586"/>
  <unicode hex="003C"/>
  <outline>
    <contour>
      <point x="539" y="87" type="line"/>
      <point x="539" y="231" type="line"/>
      <point x="236" y="354" type="line"/>
      <point x="539" y="492" type="line"/>
      <point x="539" y="637" type="line"/>
      <point x="45" y="390" type="line"/>
      <point x="45" y="306" type="line"/>
    </contour>
  </outline>
</glyph>
<glyph name="equal" format="2">
  <advance width="586"/>
  <unicode hex="003D"/>
  <outline>
    <contour>
      <point x="45" y="398" type="line"/>
      <point x="541" y="398" type="line"/>
      <point x="541" y="529" type="line"/>
      <point x="45" y="529" type="line"/>
    </contour>
    <contour>
      <point x="45" y="175" type="line"/>
      <point x="541" y="175" type="line"/>
      <point x="541" y="307" type="line"/>
      <point x="45" y="307" type="line"/>
    </contour>
  </outline>
</glyph>
<glyph name="greater" format="2">
  <advance width="586"/>
  <unicode hex="003E"/>
  <outline>
    <contour>
      <point x="45" y="231" type="line"/>
      <point x="45" y="87" type="line"/>
      <point x="539" y="306" type="line"/>
      <point x="539" y="390" type="line"/>
      <point x="45" y="637" type="line"/>
      <point x="45" y="492" type="line"/>
      <point x="348" y="354" type="line"/>
    </contour>
  </outline>
</glyph>
<glyph name="question" format="2">
  <advance width="505"/>
  <unicode hex="003F"/>
  <outline>
    <contour>
      <point x="144" y="294" type="curve" smooth="yes"/>
      <point x="144" y="252" type="line"/>
      <point x="294" y="252" type="line"/>
      <point x="294" y="277" type="line" smooth="yes"/>
      <point x="294" y="308"/>
      <point x="312" y="324"/>
      <point x="371" y="362" type="curve" smooth="yes"/>
      <point x="454" y="415"/>
      <point x="487" y="469"/>
      <point x="487" y="546" type="curve" smooth="yes"/>
      <point x="487" y="653"/>
      <point x="402" y="724"/>
      <point x="254" y="724" type="curve" smooth="yes"/>
      <point x="156" y="724"/>
      <point x="73" y="697"/>
      <point x="0" y="655" type="curve"/>
      <point x="68" y="522" type="line"/>
      <point x="133" y="556"/>
      <point x="191" y="574"/>
      <point x="240" y="574" type="curve" smooth="yes"/>
      <point x="280" y="574"/>
      <point x="307" y="557"/>
      <point x="307" y="530" type="curve" smooth="yes"/>
      <point x="307" y="503"/>
      <point x="299" y="481"/>
      <point x="233" y="439" type="curve" smooth="yes"/>
      <point x="163" y="395"/>
      <point x="144" y="354"/>
    </contour>
    <contour>
      <point x="123" y="81" type="curve" smooth="yes"/>
      <point x="123" y="15"/>
      <point x="169" y="-12"/>
      <point x="226" y="-12" type="curve" smooth="yes"/>
      <point x="281" y="-12"/>
      <point x="327" y="15"/>
      <point x="327" y="81" type="curve" smooth="yes"/>
      <point x="327" y="150"/>
      <point x="281" y="175"/>
      <point x="226" y="175" type="curve" smooth="yes"/>
      <point x="169" y="175"/>
      <point x="123" y="150"/>
    </contour>
  </outline>
</glyph>
<glyph name="at" format="2">
  <advance width="897"/>
  <unicode hex="0040"/>
  <outline>
    <contour>
      <point x="857" y="369" type="curve"/>
      <point x="857" y="588"/>
      <point x="704" y="723"/>
      <point x="473" y="723" type="curve" smooth="yes"/>
      <point x="209" y="723"/>
      <point x="40" y="538"/>
      <point x="40" y="298" type="curve" smooth="yes"/>
      <point x="40" y="67"/>
      <point x="190" y="-75"/>
      <point x="446" y="-75" type="curve" smooth="yes"/>
      <point x="535" y="-75"/>
      <point x="621" y="-58"/>
      <point x="690" y="-29" type="curve"/>
      <point x="690" y="83" type="line"/>
      <point x="610" y="54"/>
      <point x="513" y="36"/>
      <point x="439" y="36" type="curve" smooth="yes"/>
      <point x="262" y="36"/>
      <point x="173" y="138"/>
      <point x="173" y="296" type="curve" smooth="yes"/>
      <point x="173" y="481"/>
      <point x="277" y="614"/>
      <point x="475" y="614" type="curve" smooth="yes"/>
      <point x="643" y="614"/>
      <point x="728" y="519"/>
      <point x="728" y="370" type="curve" smooth="yes"/>
      <point x="728" y="289"/>
      <point x="707" y="220"/>
      <point x="671" y="220" type="curve" smooth="yes"/>
      <point x="657" y="220"/>
      <point x="647" y="231"/>
      <point x="647" y="262" type="curve" smooth="yes"/>
      <point x="647" y="280"/>
      <point x="648" y="301"/>
      <point x="648" y="308" type="curve"/>
      <point x="658" y="514" type="line"/>
      <point x="616" y="529"/>
      <point x="549" y="544"/>
      <point x="484" y="544" type="curve" smooth="yes"/>
      <point x="321" y="544"/>
      <point x="234" y="444"/>
      <point x="234" y="312" type="curve" smooth="yes"/>
      <point x="234" y="193"/>
      <point x="295" y="114"/>
      <point x="419" y="114" type="curve" smooth="yes"/>
      <point x="474" y="114"/>
      <point x="516" y="139"/>
      <point x="546" y="172" type="curve"/>
      <point x="553" y="172" type="line"/>
      <point x="578" y="134"/>
      <point x="624" y="114"/>
      <point x="672" y="114" type="curve" smooth="yes"/>
      <point x="792" y="114"/>
      <point x="857" y="244"/>
    </contour>
    <contour>
      <point x="371" y="313" type="curve" smooth="yes"/>
      <point x="371" y="380"/>
      <point x="406" y="437"/>
      <point x="486" y="437" type="curve" smooth="yes"/>
      <point x="498" y="437"/>
      <point x="506" y="436"/>
      <point x="519" y="434" type="curve"/>
      <point x="514" y="358" type="line" smooth="yes"/>
      <point x="508" y="260"/>
      <point x="489" y="220"/>
      <point x="436" y="220" type="curve" smooth="yes"/>
      <point x="397" y="220"/>
      <point x="371" y="248"/>
    </contour>
  </outline>
</glyph>
<glyph name="E" format="2">
  <advance width="549"/>
  <unicode hex="0045"/>
  <anchor x="295" y="0" name="bottom"/>
  <anchor x="289" y="714" name="top"/>
  <anchor x="529" y="714" name="topright"/>
  <outline>
    <contour>
      <point x="501" y="0" type="line"/>
      <point x="501" y="157" type="line"/>
      <point x="270" y="157" type="line"/>
      <point x="270" y="292" type="line"/>
      <point x="484" y="292" type="line"/>
      <point x="484" y="447" type="line"/>
      <point x="270" y="447" type="line"/>
      <point x="270" y="559" type="line"/>
      <point x="501" y="559" type="line"/>
      <point x="501" y="714" type="line"/>
      <point x="77" y="714" type="line"/>
      <point x="77" y="0" type="line"/>
    </contour>
  </outline>
</glyph>
<glyph name="F" format="2">
  <advance width="539"/>
  <unicode hex="0046"/>
  <anchor x="270" y="0" name="bottom"/>
  <anchor x="288" y="714" name="top"/>
  <anchor x="519" y="714" name="topright"/>
  <outline>
    <contour>
      <point x="267" y="0" type="line"/>
      <point x="267" y="268" type="line"/>
      <point x="481" y="268" type="line"/>
      <point x="481" y="423" type="line"/>
      <point x="267" y="423" type="line"/>
      <point x="267" y="559" type="line"/>
      <point x="499" y="559" type="line"/>
      <point x="499" y="714" type="line"/>
      <point x="77" y="714" type="line"/>
      <point x="77" y="0" type="line"/>
    </contour>
  </outline>
</glyph>
<glyph name="H" format="2">
  <advance width="766"/>
  <unicode hex="0048"/>
  <anchor x="383" y="0" name="bottom"/>
  <anchor x="383" y="357" name="center"/>
  <anchor x="383" y="714" name="top"/>
  <anchor x="746" y="714" name="topright"/>
  <outline>
    <contour>
      <point x="689" y="0" type="line"/>
      <point x="689" y="714" type="line"/>
      <point x="495" y="714" type="line"/>
      <point x="495" y="449" type="line"/>
      <point x="271" y="449" type="line"/>
      <point x="271" y="714" type="line"/>
      <point x="77" y="714" type="line"/>
      <point x="77" y="0" type="line"/>
      <point x="271" y="0" type="line"/>
      <point x="271" y="291" type="line"/>
      <point x="495" y="291" type="line"/>
      <point x="495" y="0" type="line"/>
    </contour>
  </outline>
</glyph>
<glyph name="I" format="2">
  <advance width="440"/>
  <unicode hex="0049"/>
  <anchor x="220" y="0" name="bottom"/>
  <anchor x="220" y="714" name="top"/>
  <anchor x="420" y="714" name="topright"/>
  <outline>
    <contour>
      <point x="406" y="0" type="line"/>
      <point x="406" y="110" type="line"/>
      <point x="317" y="144" type="line"/>
      <point x="317" y="571" type="line"/>
      <point x="406" y="604" type="line"/>
      <point x="406" y="714" type="line"/>
      <point x="34" y="714" type="line"/>
      <point x="34" y="604" type="line"/>
      <point x="123" y="571" type="line"/>
      <point x="123" y="144" type="line"/>
      <point x="34" y="110" type="line"/>
      <point x="34" y="0" type="line"/>
    </contour>
  </outline>
</glyph>
<glyph name="J" format="2">
  <advance width="352"/>
  <unicode hex="004A"/>
  <anchor x="21" y="-204" name="bottom"/>
  <anchor x="176" y="714" name="top"/>
  <anchor x="332" y="714" name="topright"/>
  <outline>
    <contour>
      <point x="21" y="-224" type="curve" smooth="yes"/>
      <point x="171" y="-224"/>
      <point x="275" y="-145"/>
      <point x="275" y="70" type="curve" smooth="yes"/>
      <point x="275" y="714" type="line"/>
      <point x="81" y="714" type="line"/>
      <point x="81" y="53" type="line" smooth="yes"/>
      <point x="81" y="-32"/>
      <point x="61" y="-74"/>
      <point x="-8" y="-74" type="curve" smooth="yes"/>
      <point x="-35" y="-74"/>
      <point x="-58" y="-68"/>
      <point x="-79" y="-64" type="curve"/>
      <point x="-79" y="-214" type="line"/>
      <point x="-55" y="-219"/>
      <point x="-23" y="-224"/>
    </contour>
  </outline>
</glyph>
<glyph name="K" format="2">
  <advance width="687"/>
  <unicode hex="004B"/>
  <anchor x="360" y="0" name="bottom"/>
  <anchor x="364" y="714" name="top"/>
  <anchor x="667" y="714" name="topright"/>
  <outline>
    <contour>
      <point x="687" y="0" type="line"/>
      <point x="466" y="394" type="line"/>
      <point x="691" y="714" type="line"/>
      <point x="480" y="714" type="line"/>
      <point x="330" y="495" type="line" smooth="yes"/>
      <point x="310" y="467"/>
      <point x="287" y="435"/>
      <point x="271" y="404" type="curve"/>
      <point x="271" y="714" type="line"/>
      <point x="77" y="714" type="line"/>
      <point x="77" y="0" type="line"/>
      <point x="271" y="0" type="line"/>
      <point x="271" y="239" type="line"/>
      <point x="328" y="273" type="line"/>
      <point x="469" y="0" type="line"/>
    </contour>
  </outline>
</glyph>
<glyph name="L" format="2">
  <advance width="582"/>
  <unicode hex="004C"/>
  <anchor x="309" y="0" name="bottom"/>
  <anchor x="291" y="357" name="center"/>
  <anchor x="170" y="714" name="top"/>
  <anchor x="364" y="714" name="topright"/>
  <outline>
    <contour>
      <point x="77" y="0" type="line"/>
      <point x="545" y="0" type="line"/>
      <point x="545" y="156" type="line"/>
      <point x="270" y="156" type="line"/>
      <point x="270" y="714" type="line"/>
      <point x="77" y="714" type="line"/>
    </contour>
  </outline>
</glyph>
<glyph name="N" format="2">
  <advance width="834"/>
  <unicode hex="004E"/>
  <anchor x="417" y="0" name="bottom"/>
  <anchor x="417" y="714" name="top"/>
  <anchor x="814" y="714" name="topright"/>
  <outline>
    <contour>
      <point x="757" y="0" type="line"/>
      <point x="757" y="714" type="line"/>
      <point x="585" y="714" type="line"/>
      <point x="585" y="391" type="line" smooth="yes"/>
      <point x="585" y="342"/>
      <point x="589" y="264"/>
      <point x="592" y="218" type="curve"/>
      <point x="589" y="218" type="line"/>
      <point x="329" y="714" type="line"/>
      <point x="77" y="714" type="line"/>
      <point x="77" y="0" type="line"/>
      <point x="248" y="0" type="line"/>
      <point x="248" y="322" type="line" smooth="yes"/>
      <point x="248" y="375"/>
      <point x="243" y="457"/>
      <point x="239" y="503" type="curve"/>
      <point x="243" y="503" type="line"/>
      <point x="504" y="0" type="line"/>
    </contour>
  </outline>
</glyph>
<glyph name="O" format="2">
  <advance width="797"/>
  <unicode hex="004F"/>
  <anchor x="398" y="0" name="bottom"/>
  <anchor x="399" y="357" name="center"/>
  <anchor x="399" y="714" name="top"/>
  <anchor x="777" y="714" name="topright"/>
  <outline>
    <contour>
      <point x="745" y="358" type="curve" smooth="yes"/>
      <point x="745" y="580"/>
      <point x="643" y="725"/>
      <point x="399" y="725" type="curve" smooth="yes"/>
      <point x="158" y="725"/>
      <point x="51" y="581"/>
      <point x="51" y="359" type="curve" smooth="yes"/>
      <point x="51" y="136"/>
      <point x="158" y="-10"/>
      <point x="398" y="-10" type="curve" smooth="yes"/>
      <point x="643" y="-10"/>
      <point x="745" y="137"/>
    </contour>
    <contour>
      <point x="254" y="358" type="curve" smooth="yes"/>
      <point x="254" y="487"/>
      <point x="294" y="567"/>
      <point x="399" y="567" type="curve" smooth="yes"/>
      <point x="504" y="567"/>
      <point x="542" y="487"/>
      <point x="542" y="358" type="curve" smooth="yes"/>
      <point x="542" y="229"/>
      <point x="504" y="151"/>
      <point x="398" y="151" type="curve" smooth="yes"/>
      <point x="295" y="151"/>
      <point x="254" y="229"/>
    </contour>
  </outline>
</glyph>
<glyph name="R" format="2">
  <advance width="677"/>
  <unicode hex="0052"/>
  <anchor x="354" y="0" name="bottom"/>
  <anchor x="339" y="714" name="top"/>
  <anchor x="657" y="714" name="topright"/>
  <outline>
    <contour>
      <point x="311" y="714" type="curve" smooth="yes"/>
      <point x="77" y="714" type="line"/>
      <point x="77" y="0" type="line"/>
      <point x="270" y="0" type="line"/>
      <point x="270" y="260" type="line"/>
      <point x="319" y="260" type="line"/>
      <point x="470" y="0" type="line"/>
      <point x="689" y="0" type="line"/>
      <point x="481" y="311" type="line"/>
      <point x="556" y="353"/>
      <point x="602" y="416"/>
      <point x="602" y="503" type="curve" smooth="yes"/>
      <point x="602" y="642"/>
      <point x="505" y="714"/>
    </contour>
    <contour>
      <point x="308" y="568" type="line"/>
      <point x="378" y="568"/>
      <point x="407" y="540"/>
      <point x="407" y="494" type="curve" smooth="yes"/>
      <point x="407" y="427"/>
      <point x="365" y="405"/>
      <point x="306" y="405" type="curve" smooth="yes"/>
      <point x="270" y="405" type="line"/>
      <point x="270" y="568" type="line"/>
    </contour>
  </outline>
</glyph>
<glyph name="S" format="2">
  <advance width="577"/>
  <unicode hex="0053"/>
  <anchor x="289" y="0" name="bottom"/>
  <anchor x="289" y="714" name="top"/>
  <anchor x="557" y="714" name="topright"/>
  <outline>
    <contour>
      <point x="544" y="217" type="curve" smooth="yes"/>
      <point x="544" y="328"/>
      <point x="484" y="379"/>
      <point x="380" y="426" type="curve" smooth="yes"/>
      <point x="274" y="474"/>
      <point x="240" y="490"/>
      <point x="240" y="524" type="curve" smooth="yes"/>
      <point x="240" y="550"/>
      <point x="262" y="570"/>
      <point x="312" y="570" type="curve" smooth="yes"/>
      <point x="363" y="570"/>
      <point x="424" y="552"/>
      <point x="485" y="524" type="curve"/>
      <point x="544" y="673" type="line"/>
      <point x="485" y="699"/>
      <point x="411" y="724"/>
      <point x="318" y="724" type="curve" smooth="yes"/>
      <point x="158" y="724"/>
      <point x="49" y="653"/>
      <point x="49" y="515" type="curve" smooth="yes"/>
      <point x="49" y="392"/>
      <point x="116" y="343"/>
      <point x="222" y="294" type="curve" smooth="yes"/>
      <point x="315" y="252"/>
      <point x="351" y="237"/>
      <point x="351" y="200" type="curve" smooth="yes"/>
      <point x="351" y="169"/>
      <point x="325" y="147"/>
      <point x="268" y="147" type="curve" smooth="yes"/>
      <point x="204" y="147"/>
      <point x="121" y="168"/>
      <point x="44" y="207" type="curve"/>
      <point x="44" y="35" type="line"/>
      <point x="112" y="3"/>
      <point x="166" y="-10"/>
      <point x="264" y="-10" type="curve" smooth="yes"/>
      <point x="459" y="-10"/>
      <point x="544" y="100"/>
    </contour>
  </outline>
</glyph>
<glyph name="V" format="2">
  <advance width="694"/>
  <unicode hex="0056"/>
  <anchor x="343" y="0" name="bottom"/>
  <anchor x="347" y="714" name="top"/>
  <anchor x="674" y="714" name="topright"/>
  <outline>
    <contour>
      <point x="694" y="714" type="line"/>
      <point x="478" y="714" type="line"/>
      <point x="379" y="350" type="line" smooth="yes"/>
      <point x="367" y="309"/>
      <point x="351" y="224"/>
      <point x="347" y="184" type="curve"/>
      <point x="344" y="224"/>
      <point x="324" y="311"/>
      <point x="314" y="352" type="curve" smooth="yes"/>
      <point x="217" y="714" type="line"/>
      <point x="0" y="714" type="line"/>
      <point x="233" y="0" type="line"/>
      <point x="460" y="0" type="line"/>
    </contour>
  </outline>
</glyph>
<glyph name="X" format="2">
  <advance width="723"/>
  <unicode hex="0058"/>
  <anchor x="362" y="0" name="bottom"/>
  <anchor x="356" y="714" name="top"/>
  <anchor x="703" y="714" name="topright"/>
  <outline>
    <contour>
      <point x="720" y="0" type="line"/>
      <point x="477" y="350" type="line"/>
      <point x="703" y="714" type="line"/>
      <point x="483" y="714" type="line"/>
      <point x="359" y="493" type="line"/>
      <point x="230" y="714" type="line"/>
      <point x="16" y="714" type="line"/>
      <point x="239" y="365" type="line"/>
      <point x="2" y="0" type="line"/>
      <point x="220" y="0" type="line"/>
      <point x="358" y="223" type="line"/>
      <point x="497" y="0" type="line"/>
    </contour>
  </outline>
</glyph>
<glyph name="Y" format="2">
  <advance width="664"/>
  <unicode hex="0059"/>
  <anchor x="332" y="0" name="bottom"/>
  <anchor x="332" y="714" name="top"/>
  <anchor x="644" y="714" name="topright"/>
  <outline>
    <contour>
      <point x="332" y="449" type="line"/>
      <point x="210" y="714" type="line"/>
      <point x="0" y="714" type="line"/>
      <point x="235" y="273" type="line"/>
      <point x="235" y="0" type="line"/>
      <point x="429" y="0" type="line"/>
      <point x="429" y="279" type="line"/>
      <point x="664" y="714" type="line"/>
      <point x="455" y="714" type="line"/>
    </contour>
  </outline>
</glyph>
<glyph name="Z" format="2">
  <advance width="611"/>
  <unicode hex="005A"/>
  <anchor x="316" y="0" name="bottom"/>
  <anchor x="315" y="714" name="top"/>
  <anchor x="591" y="714" name="topright"/>
  <outline>
    <contour>
      <point x="586" y="0" type="line"/>
      <point x="586" y="156" type="line"/>
      <point x="269" y="156" type="line"/>
      <point x="578" y="595" type="line"/>
      <point x="578" y="714" type="line"/>
      <point x="37" y="714" type="line"/>
      <point x="37" y="558" type="line"/>
      <point x="339" y="558" type="line"/>
      <point x="30" y="119" type="line"/>
      <point x="30" y="0" type="line"/>
    </contour>
  </outline>
</glyph>
<glyph name="bracketleft" format="2">
  <advance width="324"/>
  <unicode hex="005B"/>
  <outline>
    <contour>
      <point x="301" y="-168" type="line"/>
      <point x="301" y="-44" type="line"/>
      <point x="212" y="-44" type="line"/>
      <point x="212" y="610" type="line"/>
      <point x="301" y="610" type="line"/>
      <point x="301" y="734" type="line"/>
      <point x="57" y="734" type="line"/>
      <point x="57" y="-168" type="line"/>
    </contour>
  </outline>
</glyph>
<glyph name="backslash" format="2">
  <advance width="442"/>
  <unicode hex="005C"/>
  <outline>
    <contour>
      <point x="172" y="724" type="line"/>
      <point x="3" y="724" type="line"/>
      <point x="269" y="-10" type="line"/>
      <point x="438" y="-10" type="line"/>
    </contour>
  </outline>
</glyph>
<glyph name="bracketright" format="2">
  <advance width="324"/>
  <unicode hex="005D"/>
  <outline>
    <contour>
      <point x="23" y="-44" type="line"/>
      <point x="23" y="-168" type="line"/>
      <point x="267" y="-168" type="line"/>
      <point x="267" y="734" type="line"/>
      <point x="23" y="734" type="line"/>
      <point x="23" y="610" type="line"/>
      <point x="112" y="610" type="line"/>
      <point x="112" y="-44" type="line"/>
    </contour>
  </outline>
</glyph>
<glyph name="asciicircum" format="2">
  <advance width="525"/>
  <unicode hex="005E"/>
  <outline>
    <contour>
      <point x="-8" y="245" type="line"/>
      <point x="132" y="245" type="line"/>
      <point x="253" y="527" type="line"/>
      <point x="394" y="245" type="line"/>
      <point x="538" y="245" type="line"/>
      <point x="290" y="717" type="line"/>
      <point x="207" y="717" type="line"/>
    </contour>
  </outline>
</glyph>
<glyph name="underscore" format="2">
  <advance width="500"/>
  <unicode hex="005F"/>
  <outline>
    <contour>
      <point x="502" y="-185" type="line"/>
      <point x="502" y="-65" type="line"/>
      <point x="-2" y="-65" type="line"/>
      <point x="-2" y="-185" type="line"/>
    </contour>
  </outline>
</glyph>
<glyph name="grave" format="2">
  <advance width="418"/>
  <unicode hex="0060"/>
  <outline>
    <contour>
      <point x="250" y="766" type="curve"/>
      <point x="40" y="766" type="line"/>
      <point x="40" y="756" type="line"/>
      <point x="88" y="718"/>
      <point x="197" y="640"/>
      <point x="251" y="606" type="curve"/>
      <point x="378" y="606" type="line"/>
      <point x="378" y="620" type="line"/>
      <point x="345" y="657"/>
      <point x="284" y="721"/>
    </contour>
  </outline>
</glyph>
<glyph name="i" format="2">
  <advance width="325"/>
  <unicode hex="0069"/>
  <anchor x="166" y="0" name="bottom"/>
  <anchor x="163" y="776" name="top"/>
  <anchor x="305" y="776" name="topright"/>
  <outline>
    <contour>
      <point x="258" y="553" type="line"/>
      <point x="67" y="553" type="line"/>
      <point x="67" y="0" type="line"/>
      <point x="258" y="0" type="line"/>
    </contour>
    <contour>
      <point x="163" y="776" type="curve" smooth="yes"/>
      <point x="107" y="776"/>
      <point x="62" y="759"/>
      <point x="62" y="691" type="curve"/>
      <point x="62" y="625"/>
      <point x="107" y="607"/>
      <point x="163" y="607" type="curve" smooth="yes"/>
      <point x="218" y="607"/>
      <point x="265" y="625"/>
      <point x="265" y="691" type="curve" smooth="yes"/>
      <point x="265" y="759"/>
      <point x="218" y="776"/>
    </contour>
  </outline>
</glyph>
<glyph name="l" format="2">
  <advance width="323"/>
  <unicode hex="006C"/>
  <anchor x="162" y="0" name="bottom"/>
  <anchor x="162" y="277" name="center"/>
  <anchor x="162" y="760" name="top"/>
  <anchor x="278" y="760" name="topright"/>
  <outline>
    <contour>
      <point x="257" y="0" type="line"/>
      <point x="257" y="760" type="line"/>
      <point x="66" y="760" type="line"/>
      <point x="66" y="0" type="line"/>
    </contour>
  </outline>
</glyph>
<glyph name="v" format="2">
  <advance width="611"/>
  <unicode hex="0076"/>
  <anchor x="307" y="0" name="bottom"/>
  <anchor x="304" y="553" name="top"/>
  <anchor x="591" y="553" name="topright"/>
  <outline>
    <contour>
      <point x="211" y="0" type="line"/>
      <point x="400" y="0" type="line"/>
      <point x="611" y="553" type="line"/>
      <point x="412" y="553" type="line"/>
      <point x="314" y="225" type="line" smooth="yes"/>
      <point x="311" y="214"/>
      <point x="305" y="192"/>
      <point x="305" y="170" type="curve"/>
      <point x="302" y="170" type="line"/>
      <point x="302" y="191"/>
      <point x="295" y="220"/>
      <point x="293" y="226" type="curve" smooth="yes"/>
      <point x="199" y="553" type="line"/>
      <point x="0" y="553" type="line"/>
    </contour>
  </outline>
</glyph>
<glyph name="x" format="2">
  <advance width="630"/>
  <unicode hex="0078"/>
  <anchor x="315" y="0" name="bottom"/>
  <anchor x="314" y="553" name="top"/>
  <anchor x="610" y="553" name="topright"/>
  <outline>
    <contour>
      <point x="183" y="282" type="line"/>
      <point x="5" y="0" type="line"/>
      <point x="222" y="0" type="line"/>
      <point x="315" y="168" type="line"/>
      <point x="408" y="0" type="line"/>
      <point x="625" y="0" type="line"/>
      <point x="445" y="282" type="line"/>
      <point x="618" y="553" type="line"/>
      <point x="401" y="553" type="line"/>
      <point x="315" y="398" type="line"/>
      <point x="231" y="553" type="line"/>
      <point x="14" y="553" type="line"/>
    </contour>
  </outline>
</glyph>
<glyph name="y" format="2">
  <advance width="610"/>
  <unicode hex="0079"/>
  <anchor x="138" y="-240" name="bottom"/>
  <anchor x="305" y="553" name="top"/>
  <anchor x="590" y="553" name="topright"/>
  <outline>
    <contour>
      <point x="-1" y="553" type="line"/>
      <point x="217" y="8" type="line"/>
      <point x="215" y="3" type="line" smooth="yes"/>
      <point x="196" y="-45"/>
      <point x="172" y="-88"/>
      <point x="109" y="-88" type="curve" smooth="yes"/>
      <point x="86" y="-88"/>
      <point x="64" y="-85"/>
      <point x="50" y="-82" type="curve"/>
      <point x="50" y="-232" type="line"/>
      <point x="69" y="-236"/>
      <point x="93" y="-240"/>
      <point x="128" y="-240" type="curve" smooth="yes"/>
      <point x="273" y="-240"/>
      <point x="340" y="-170"/>
      <point x="391" y="-35" type="curve" smooth="yes"/>
      <point x="610" y="553" type="line"/>
      <point x="415" y="553" type="line"/>
      <point x="319" y="235" type="line" smooth="yes"/>
      <point x="315" y="222"/>
      <point x="310" y="202"/>
      <point x="307" y="176" type="curve"/>
      <point x="303" y="176" type="line"/>
      <point x="302" y="197"/>
      <point x="298" y="222"/>
      <point x="294" y="236" type="curve" smooth="yes"/>
      <point x="200" y="553" type="line"/>
    </contour>
  </outline>
</glyph>
<glyph name="z" format="2">
  <advance width="507"/>
  <unicode hex="007A"/>
  <anchor x="255" y="0" name="bottom"/>
  <anchor x="254" y="553" name="top"/>
  <anchor x="477" y="553" name="topright"/>
  <outline>
    <contour>
      <point x="482" y="0" type="line"/>
      <point x="482" y="146" type="line"/>
      <point x="252" y="146" type="line"/>
      <point x="471" y="435" type="line"/>
      <point x="471" y="553" type="line"/>
      <point x="37" y="553" type="line"/>
      <point x="37" y="407" type="line"/>
      <point x="253" y="407" type="line"/>
      <point x="24" y="109" type="line"/>
      <point x="24" y="0" type="line"/>
    </contour>
  </outline>
</glyph>
<glyph name="braceleft" format="2">
  <advance width="433"/>
  <unicode hex="007B"/>
  <outline>
    <contour>
      <point x="401" y="-168" type="curve"/>
      <point x="401" y="-32" type="line"/>
      <point x="362" y="-31"/>
      <point x="308" y="-29"/>
      <point x="308" y="20" type="curve" smooth="yes"/>
      <point x="308" y="155" type="line" smooth="yes"/>
      <point x="308" y="231"/>
      <point x="267" y="263"/>
      <point x="191" y="275" type="curve"/>
      <point x="191" y="281" type="line"/>
      <point x="265" y="291"/>
      <point x="308" y="323"/>
      <point x="308" y="404" type="curve" smooth="yes"/>
      <point x="308" y="536" type="line" smooth="yes"/>
      <point x="308" y="586"/>
      <point x="361" y="587"/>
      <point x="401" y="588" type="curve"/>
      <point x="401" y="724" type="line"/>
      <point x="193" y="724"/>
      <point x="150" y="672"/>
      <point x="150" y="558" type="curve" smooth="yes"/>
      <point x="150" y="434" type="line" smooth="yes"/>
      <point x="150" y="373"/>
      <point x="92" y="351"/>
      <point x="30" y="351" type="curve"/>
      <point x="30" y="204" type="line"/>
      <point x="90" y="204"/>
      <point x="150" y="181"/>
      <point x="150" y="121" type="curve" smooth="yes"/>
      <point x="150" y="0" type="line" smooth="yes"/>
      <point x="150" y="-117"/>
      <point x="196" y="-168"/>
    </contour>
  </outline>
</glyph>
<glyph name="braceright" format="2">
  <advance width="433"/>
  <unicode hex="007D"/>
  <outline>
    <contour>
      <point x="32" y="-32" type="curve"/>
      <point x="32" y="-168" type="line"/>
      <point x="237" y="-168"/>
      <point x="283" y="-117"/>
      <point x="283" y="0" type="curve" smooth="yes"/>
      <point x="283" y="121" type="line" smooth="yes"/>
      <point x="283" y="181"/>
      <point x="343" y="204"/>
      <point x="403" y="204" type="curve"/>
      <point x="403" y="351" type="line"/>
      <point x="341" y="351"/>
      <point x="283" y="373"/>
      <point x="283" y="434" type="curve" smooth="yes"/>
      <point x="283" y="558" type="line" smooth="yes"/>
      <point x="283" y="672"/>
      <point x="240" y="724"/>
      <point x="32" y="724" type="curve"/>
      <point x="32" y="588" type="line"/>
      <point x="72" y="587"/>
      <point x="125" y="586"/>
      <point x="125" y="536" type="curve" smooth="yes"/>
      <point x="125" y="404" type="line" smooth="yes"/>
      <point x="125" y="323"/>
      <point x="168" y="291"/>
      <point x="242" y="281" type="curve"/>
      <point x="242" y="275" type="line"/>
      <point x="166" y="263"/>
      <point x="125" y="231"/>
      <point x="125" y="155" type="curve" smooth="yes"/>
      <point x="125" y="20" type="line" smooth="yes"/>
      <point x="125" y="-29"/>
      <point x="71" y="-31"/>
    </contour>
  </outline>
</glyph>
<glyph name="asciitilde" format="2">
  <advance width="586"/>
  <unicode hex="007E"/>
  <outline>
    <contour>
      <point x="274" y="289" type="curve" smooth="yes"/>
      <point x="339" y="263"/>
      <point x="372" y="258"/>
      <point x="411" y="258" type="curve" smooth="yes"/>
      <point x="464" y="258"/>
      <point x="506" y="276"/>
      <point x="540" y="311" type="curve"/>
      <point x="540" y="448" type="line"/>
      <point x="506" y="415"/>
      <point x="464" y="389"/>
      <point x="427" y="389" type="curve" smooth="yes"/>
      <point x="397" y="389"/>
      <point x="360" y="395"/>
      <point x="311" y="416" type="curve" smooth="yes"/>
      <point x="246" y="442"/>
      <point x="213" y="447"/>
      <point x="174" y="447" type="curve" smooth="yes"/>
      <point x="120" y="447"/>
      <point x="79" y="429"/>
      <point x="45" y="394" type="curve"/>
      <point x="45" y="257" type="line"/>
      <point x="79" y="290"/>
      <point x="120" y="316"/>
      <point x="159" y="316" type="curve" smooth="yes"/>
      <point x="190" y="316"/>
      <point x="225" y="310"/>
    </contour>
  </outline>
</glyph>
<glyph name="exclamdown" format="2">
  <advance width="290"/>
  <unicode hex="00A1"/>
  <outline>
    <contour>
      <point x="65" y="299" type="line"/>
      <point x="40" y="-163" type="line"/>
      <point x="251" y="-163" type="line"/>
      <point x="226" y="299" type="line"/>
    </contour>
    <contour>
      <point x="249" y="470" type="curve" smooth="yes"/>
      <point x="249" y="536"/>
      <point x="202" y="563"/>
      <point x="146" y="563" type="curve" smooth="yes"/>
      <point x="91" y="563"/>
      <point x="45" y="536"/>
      <point x="45" y="470" type="curve" smooth="yes"/>
      <point x="45" y="401"/>
      <point x="91" y="376"/>
      <point x="146" y="376" type="curve" smooth="yes"/>
      <point x="202" y="376"/>
      <point x="249" y="401"/>
    </contour>
  </outline>
</glyph>
<glyph name="cent" format="2">
  <advance width="586"/>
  <unicode hex="00A2"/>
  <outline>
    <contour>
      <point x="377" y="649" type="curve"/>
      <point x="377" y="724" type="line"/>
      <point x="276" y="724" type="line"/>
      <point x="276" y="643" type="line"/>
      <point x="150" y="618"/>
      <point x="63" y="529"/>
      <point x="63" y="361" type="curve" smooth="yes"/>
      <point x="63" y="190"/>
      <point x="144" y="101"/>
      <point x="276" y="81" type="curve"/>
      <point x="276" y="-10" type="line"/>
      <point x="377" y="-10" type="line"/>
      <point x="377" y="78" type="line"/>
      <point x="434" y="84"/>
      <point x="478" y="101"/>
      <point x="516" y="126" type="curve"/>
      <point x="516" y="278" type="line"/>
      <point x="467" y="247"/>
      <point x="410" y="229"/>
      <point x="355" y="229" type="curve" smooth="yes"/>
      <point x="297" y="229"/>
      <point x="257" y="266"/>
      <point x="257" y="362" type="curve" smooth="yes"/>
      <point x="257" y="455"/>
      <point x="296" y="500"/>
      <point x="354" y="500" type="curve" smooth="yes"/>
      <point x="396" y="500"/>
      <point x="433" y="487"/>
      <point x="479" y="467" type="curve"/>
      <point x="535" y="608" type="line"/>
      <point x="489" y="631"/>
      <point x="435" y="646"/>
    </contour>
  </outline>
</glyph>
<glyph name="sterling" format="2">
  <advance width="586"/>
  <unicode hex="00A3"/>
  <outline>
    <contour>
      <point x="353" y="725" type="curve" smooth="yes"/>
      <point x="221" y="725"/>
      <point x="131" y="661"/>
      <point x="131" y="510" type="curve" smooth="yes"/>
      <point x="131" y="452" type="line"/>
      <point x="50" y="452" type="line"/>
      <point x="50" y="317" type="line"/>
      <point x="131" y="317" type="line"/>
      <point x="131" y="269" type="line" smooth="yes"/>
      <point x="131" y="202"/>
      <point x="104" y="184"/>
      <point x="51" y="153" type="curve"/>
      <point x="51" y="0" type="line"/>
      <point x="569" y="0" type="line"/>
      <point x="569" y="159" type="line"/>
      <point x="241" y="159" type="line"/>
      <point x="276" y="176"/>
      <point x="319" y="206"/>
      <point x="319" y="270" type="curve" smooth="yes"/>
      <point x="319" y="317" type="line"/>
      <point x="487" y="317" type="line"/>
      <point x="487" y="452" type="line"/>
      <point x="319" y="452" type="line"/>
      <point x="319" y="504" type="line" smooth="yes"/>
      <point x="319" y="557"/>
      <point x="343" y="571"/>
      <point x="374" y="571" type="curve" smooth="yes"/>
      <point x="404" y="571"/>
      <point x="447" y="563"/>
      <point x="497" y="544" type="curve"/>
      <point x="551" y="685" type="line"/>
      <point x="494" y="709"/>
      <point x="424" y="725"/>
    </contour>
  </outline>
</glyph>
<glyph name="currency" format="2">
  <advance width="566"/>
  <unicode hex="00A4"/>
  <outline>
    <contour>
      <point x="88" y="353" type="curve" smooth="yes"/>
      <point x="88" y="322"/>
      <point x="94" y="295"/>
      <point x="108" y="268" type="curve"/>
      <point x="48" y="210" type="line"/>
      <point x="135" y="123" type="line"/>
      <point x="193" y="179" type="line"/>
      <point x="219" y="166"/>
      <point x="248" y="161"/>
      <point x="279" y="161" type="curve" smooth="yes"/>
      <point x="310" y="161"/>
      <point x="340" y="169"/>
      <point x="365" y="180" type="curve"/>
      <point x="424" y="122" type="line"/>
      <point x="511" y="209" type="line"/>
      <point x="452" y="267" type="line"/>
      <point x="466" y="294"/>
      <point x="472" y="321"/>
      <point x="472" y="353" type="curve" smooth="yes"/>
      <point x="472" y="384"/>
      <point x="465" y="416"/>
      <point x="452" y="440" type="curve"/>
      <point x="514" y="501" type="line"/>
      <point x="424" y="586" type="line"/>
      <point x="365" y="524" type="line"/>
      <point x="337" y="539"/>
      <point x="310" y="546"/>
      <point x="279" y="546" type="curve" smooth="yes"/>
      <point x="253" y="546"/>
      <point x="220" y="538"/>
      <point x="195" y="526" type="curve"/>
      <point x="135" y="586" type="line"/>
      <point x="47" y="497" type="line"/>
      <point x="108" y="439" type="line"/>
      <point x="96" y="414"/>
      <point x="88" y="384"/>
    </contour>
    <contour>
      <point x="213" y="353" type="curve" smooth="yes"/>
      <point x="213" y="391"/>
      <point x="243" y="420"/>
      <point x="279" y="420" type="curve" smooth="yes"/>
      <point x="317" y="420"/>
      <point x="348" y="391"/>
      <point x="348" y="353" type="curve" smooth="yes"/>
      <point x="348" y="316"/>
      <point x="317" y="287"/>
      <point x="279" y="287" type="curve" smooth="yes"/>
      <point x="243" y="287"/>
      <point x="213" y="316"/>
    </contour>
  </outline>
</glyph>
<glyph name="yen" format="2">
  <advance width="586"/>
  <unicode hex="00A5"/>
  <outline>
    <contour>
      <point x="293" y="468" type="line"/>
      <point x="199" y="714" type="line"/>
      <point x="4" y="714" type="line"/>
      <point x="177" y="366" type="line"/>
      <point x="84" y="366" type="line"/>
      <point x="84" y="263" type="line"/>
      <point x="204" y="263" type="line"/>
      <point x="204" y="206" type="line"/>
      <point x="84" y="206" type="line"/>
      <point x="84" y="104" type="line"/>
      <point x="204" y="104" type="line"/>
      <point x="204" y="0" type="line"/>
      <point x="382" y="0" type="line"/>
      <point x="382" y="104" type="line"/>
      <point x="500" y="104" type="line"/>
      <point x="500" y="206" type="line"/>
      <point x="382" y="206" type="line"/>
      <point x="382" y="263" type="line"/>
      <point x="500" y="263" type="line"/>
      <point x="500" y="366" type="line"/>
      <point x="405" y="366" type="line"/>
      <point x="582" y="714" type="line"/>
      <point x="387" y="714" type="line"/>
    </contour>
  </outline>
</glyph>
<glyph name="brokenbar" format="2">
  <advance width="509"/>
  <unicode hex="00A6"/>
  <outline>
    <contour>
      <point x="189" y="760" type="line"/>
      <point x="189" y="350" type="line"/>
      <point x="320" y="350" type="line"/>
      <point x="320" y="760" type="line"/>
    </contour>
    <contour>
      <point x="189" y="192" type="line"/>
      <point x="189" y="-218" type="line"/>
      <point x="320" y="-218" type="line"/>
      <point x="320" y="192" type="line"/>
    </contour>
  </outline>
</glyph>
<glyph name="section" format="2">
  <advance width="500"/>
  <unicode hex="00A7"/>
  <outline>
    <contour>
      <point x="52" y="392" type="curve" smooth="yes"/>
      <point x="52" y="300"/>
      <point x="119" y="260"/>
      <point x="215" y="217" type="curve" smooth="yes"/>
      <point x="285" y="186"/>
      <point x="298" y="170"/>
      <point x="298" y="143" type="curve" smooth="yes"/>
      <point x="298" y="115"/>
      <point x="281" y="96"/>
      <point x="230" y="96" type="curve" smooth="yes"/>
      <point x="185" y="96"/>
      <point x="114" y="118"/>
      <point x="57" y="149" type="curve"/>
      <point x="57" y="30" type="line"/>
      <point x="105" y="2"/>
      <point x="162" y="-12"/>
      <point x="229" y="-12" type="curve" smooth="yes"/>
      <point x="370" y="-12"/>
      <point x="442" y="57"/>
      <point x="442" y="147" type="curve" smooth="yes"/>
      <point x="442" y="199"/>
      <point x="417" y="239"/>
      <point x="381" y="266" type="curve"/>
      <point x="417" y="292"/>
      <point x="453" y="325"/>
      <point x="453" y="392" type="curve" smooth="yes"/>
      <point x="453" y="455"/>
      <point x="406" y="507"/>
      <point x="292" y="553" type="curve" smooth="yes"/>
      <point x="224" y="581"/>
      <point x="207" y="604"/>
      <point x="207" y="626" type="curve" smooth="yes"/>
      <point x="207" y="650"/>
      <point x="226" y="662"/>
      <point x="260" y="662" type="curve" smooth="yes"/>
      <point x="301" y="662"/>
      <point x="351" y="643"/>
      <point x="394" y="620" type="curve"/>
      <point x="442" y="728" type="line"/>
      <point x="392" y="752"/>
      <point x="328" y="770"/>
      <point x="261" y="770" type="curve" smooth="yes"/>
      <point x="134" y="770"/>
      <point x="63" y="710"/>
      <point x="63" y="626" type="curve" smooth="yes"/>
      <point x="63" y="576"/>
      <point x="87" y="538"/>
      <point x="132" y="506" type="curve"/>
      <point x="93" y="482"/>
      <point x="52" y="443"/>
    </contour>
    <contour>
      <point x="194" y="407" type="curve" smooth="yes"/>
      <point x="194" y="433"/>
      <point x="208" y="449"/>
      <point x="222" y="457" type="curve"/>
      <point x="290" y="428"/>
      <point x="311" y="402"/>
      <point x="311" y="367" type="curve" smooth="yes"/>
      <point x="311" y="341"/>
      <point x="300" y="325"/>
      <point x="291" y="315" type="curve"/>
      <point x="278" y="322" type="line"/>
      <point x="219" y="353"/>
      <point x="194" y="374"/>
    </contour>
  </outline>
</glyph>
<glyph name="dieresis" format="2">
  <advance width="602"/>
  <unicode hex="00A8"/>
  <outline>
    <contour>
      <point x="109" y="690" type="curve"/>
      <point x="109" y="638"/>
      <point x="145" y="614"/>
      <point x="192" y="614" type="curve" smooth="yes"/>
      <point x="237" y="614"/>
      <point x="276" y="638"/>
      <point x="276" y="690" type="curve" smooth="yes"/>
      <point x="276" y="743"/>
      <point x="237" y="767"/>
      <point x="192" y="767" type="curve" smooth="yes"/>
      <point x="145" y="767"/>
      <point x="109" y="743"/>
    </contour>
    <contour>
      <point x="343" y="690" type="curve"/>
      <point x="343" y="638"/>
      <point x="379" y="614"/>
      <point x="427" y="614" type="curve" smooth="yes"/>
      <point x="472" y="614"/>
      <point x="511" y="638"/>
      <point x="511" y="690" type="curve" smooth="yes"/>
      <point x="511" y="743"/>
      <point x="472" y="767"/>
      <point x="427" y="767" type="curve" smooth="yes"/>
      <point x="379" y="767"/>
      <point x="343" y="743"/>
    </contour>
  </outline>
</glyph>
<glyph name="copyright" format="2">
  <advance width="824"/>
  <unicode hex="00A9"/>
  <outline>
    <contour>
      <point x="412" y="-10" type="curve" smooth="yes"/>
      <point x="625" y="-10"/>
      <point x="779" y="144"/>
      <point x="779" y="357" type="curve" smooth="yes"/>
      <point x="779" y="570"/>
      <point x="625" y="724"/>
      <point x="412" y="724" type="curve" smooth="yes"/>
      <point x="199" y="724"/>
      <point x="45" y="570"/>
      <point x="45" y="357" type="curve" smooth="yes"/>
      <point x="45" y="144"/>
      <point x="199" y="-10"/>
    </contour>
    <contour>
      <point x="413" y="128" type="curve" smooth="yes"/>
      <point x="465" y="128"/>
      <point x="505" y="138"/>
      <point x="546" y="159" type="curve"/>
      <point x="546" y="272" type="line"/>
      <point x="506" y="249"/>
      <point x="462" y="239"/>
      <point x="420" y="239" type="curve" smooth="yes"/>
      <point x="361" y="239"/>
      <point x="333" y="274"/>
      <point x="333" y="357" type="curve" smooth="yes"/>
      <point x="333" y="433"/>
      <point x="365" y="474"/>
      <point x="417" y="474" type="curve" smooth="yes"/>
      <point x="455" y="474"/>
      <point x="486" y="465"/>
      <point x="520" y="447" type="curve"/>
      <point x="565" y="547" type="line"/>
      <point x="517" y="571"/>
      <point x="468" y="585"/>
      <point x="408" y="585" type="curve" smooth="yes"/>
      <point x="267" y="585"/>
      <point x="196" y="495"/>
      <point x="196" y="359" type="curve" smooth="yes"/>
      <point x="196" y="219"/>
      <point x="269" y="128"/>
    </contour>
    <contour>
      <point x="412" y="70" type="curve" smooth="yes"/>
      <point x="247" y="70"/>
      <point x="133" y="188"/>
      <point x="133" y="357" type="curve" smooth="yes"/>
      <point x="133" y="526"/>
      <point x="247" y="644"/>
      <point x="412" y="644" type="curve" smooth="yes"/>
      <point x="575" y="644"/>
      <point x="689" y="526"/>
      <point x="689" y="357" type="curve" smooth="yes"/>
      <point x="689" y="188"/>
      <point x="575" y="70"/>
    </contour>
  </outline>
</glyph>
<glyph name="ordfeminine" format="2">
  <advance width="397"/>
  <unicode hex="00AA"/>
  <anchor x="192" y="359" name="bottom"/>
  <anchor x="192" y="725" name="top"/>
  <outline>
    <contour>
      <point x="213" y="722" type="curve" smooth="yes"/>
      <point x="134" y="722"/>
      <point x="94" y="707"/>
      <point x="45" y="683" type="curve"/>
      <point x="82" y="602" type="line"/>
      <point x="124" y="621"/>
      <point x="150" y="629"/>
      <point x="185" y="629" type="curve" smooth="yes"/>
      <point x="218" y="629"/>
      <point x="235" y="618"/>
      <point x="235" y="592" type="curve" smooth="yes"/>
      <point x="235" y="589" type="line"/>
      <point x="192" y="587" type="line" smooth="yes"/>
      <point x="84" y="582"/>
      <point x="24" y="557"/>
      <point x="24" y="472" type="curve" smooth="yes"/>
      <point x="24" y="393"/>
      <point x="74" y="356"/>
      <point x="138" y="356" type="curve" smooth="yes"/>
      <point x="197" y="356"/>
      <point x="228" y="379"/>
      <point x="257" y="424" type="curve"/>
      <point x="279" y="362" type="line"/>
      <point x="358" y="362" type="line"/>
      <point x="358" y="581" type="line"/>
      <point x="358" y="675"/>
      <point x="299" y="722"/>
    </contour>
    <contour>
      <point x="194" y="519" type="curve" smooth="yes"/>
      <point x="235" y="522" type="line"/>
      <point x="235" y="511" type="line"/>
      <point x="235" y="477"/>
      <point x="217" y="445"/>
      <point x="181" y="445" type="curve" smooth="yes"/>
      <point x="159" y="445"/>
      <point x="147" y="457"/>
      <point x="147" y="478" type="curve" smooth="yes"/>
      <point x="147" y="497"/>
      <point x="154" y="516"/>
    </contour>
  </outline>
</glyph>
<glyph name="guillemotleft" format="2">
  <advance width="681"/>
  <unicode hex="00AB"/>
  <outline>
    <contour>
      <point x="36" y="287" type="line"/>
      <point x="36" y="274" type="line"/>
      <point x="226" y="39" type="line"/>
      <point x="363" y="111" type="line"/>
      <point x="230" y="281" type="line"/>
      <point x="363" y="450" type="line"/>
      <point x="226" y="523" type="line"/>
    </contour>
    <contour>
      <point x="317" y="287" type="line"/>
      <point x="317" y="274" type="line"/>
      <point x="506" y="39" type="line"/>
      <point x="644" y="111" type="line"/>
      <point x="510" y="281" type="line"/>
      <point x="644" y="450" type="line"/>
      <point x="506" y="523" type="line"/>
    </contour>
  </outline>
</glyph>
<glyph name="registered" format="2">
  <advance width="824"/>
  <unicode hex="00AE"/>
  <outline>
    <contour>
      <point x="253" y="153" type="line"/>
      <point x="384" y="153" type="line"/>
      <point x="384" y="309" type="line"/>
      <point x="401" y="309" type="line"/>
      <point x="472" y="153" type="line"/>
      <point x="608" y="153" type="line"/>
      <point x="513" y="330" type="line"/>
      <point x="552" y="348"/>
      <point x="582" y="380"/>
      <point x="582" y="448" type="curve" smooth="yes"/>
      <point x="582" y="532"/>
      <point x="528" y="580"/>
      <point x="389" y="580" type="curve" smooth="yes"/>
      <point x="253" y="580" type="line"/>
    </contour>
    <contour>
      <point x="389" y="395" type="curve" smooth="yes"/>
      <point x="384" y="395" type="line"/>
      <point x="384" y="485" type="line"/>
      <point x="390" y="485" type="line" smooth="yes"/>
      <point x="427" y="485"/>
      <point x="450" y="478"/>
      <point x="450" y="443" type="curve" smooth="yes"/>
      <point x="450" y="407"/>
      <point x="427" y="395"/>
    </contour>
    <contour>
      <point x="412" y="-10" type="curve" smooth="yes"/>
      <point x="625" y="-10"/>
      <point x="779" y="144"/>
      <point x="779" y="357" type="curve" smooth="yes"/>
      <point x="779" y="570"/>
      <point x="625" y="724"/>
      <point x="412" y="724" type="curve" smooth="yes"/>
      <point x="199" y="724"/>
      <point x="45" y="570"/>
      <point x="45" y="357" type="curve" smooth="yes"/>
      <point x="45" y="144"/>
      <point x="199" y="-10"/>
    </contour>
    <contour>
      <point x="412" y="70" type="curve" smooth="yes"/>
      <point x="247" y="70"/>
      <point x="133" y="188"/>
      <point x="133" y="357" type="curve" smooth="yes"/>
      <point x="133" y="526"/>
      <point x="247" y="644"/>
      <point x="412" y="644" type="curve" smooth="yes"/>
      <point x="575" y="644"/>
      <point x="689" y="526"/>
      <point x="689" y="357" type="curve" smooth="yes"/>
      <point x="689" y="188"/>
      <point x="575" y="70"/>
    </contour>
  </outline>
</glyph>
<glyph name="degree" format="2">
  <advance width="422"/>
  <unicode hex="00B0"/>
  <outline>
    <contour>
      <point x="211" y="366" type="curve" smooth="yes"/>
      <point x="316" y="366"/>
      <point x="391" y="439"/>
      <point x="391" y="544" type="curve" smooth="yes"/>
      <point x="391" y="648"/>
      <point x="316" y="724"/>
      <point x="211" y="724" type="curve" smooth="yes"/>
      <point x="106" y="724"/>
      <point x="31" y="648"/>
      <point x="31" y="544" type="curve" smooth="yes"/>
      <point x="31" y="439"/>
      <point x="106" y="366"/>
    </contour>
    <contour>
      <point x="211" y="482" type="curve" smooth="yes"/>
      <point x="172" y="482"/>
      <point x="147" y="507"/>
      <point x="147" y="544" type="curve" smooth="yes"/>
      <point x="147" y="583"/>
      <point x="172" y="609"/>
      <point x="211" y="609" type="curve" smooth="yes"/>
      <point x="250" y="609"/>
      <point x="275" y="583"/>
      <point x="275" y="544" type="curve" smooth="yes"/>
      <point x="275" y="507"/>
      <point x="250" y="482"/>
    </contour>
  </outline>
</glyph>
<glyph name="twosuperior" format="2">
  <advance width="399"/>
  <unicode hex="00B2"/>
  <outline>
    <contour>
      <point x="366" y="416" type="line"/>
      <point x="366" y="526" type="line"/>
      <point x="197" y="526" type="line"/>
      <point x="229" y="553" type="line" smooth="yes"/>
      <point x="295" y="609"/>
      <point x="356" y="661"/>
      <point x="356" y="739" type="curve" smooth="yes"/>
      <point x="356" y="808"/>
      <point x="307" y="855"/>
      <point x="211" y="855" type="curve" smooth="yes"/>
      <point x="124" y="855"/>
      <point x="74" y="829"/>
      <point x="30" y="789" type="curve"/>
      <point x="99" y="708" type="line"/>
      <point x="136" y="743"/>
      <point x="161" y="751"/>
      <point x="183" y="751" type="curve" smooth="yes"/>
      <point x="203" y="751"/>
      <point x="215" y="741"/>
      <point x="215" y="723" type="curve" smooth="yes"/>
      <point x="215" y="702"/>
      <point x="198" y="677"/>
      <point x="142" y="621" type="curve" smooth="yes"/>
      <point x="37" y="517" type="line"/>
      <point x="37" y="416" type="line"/>
    </contour>
  </outline>
</glyph>
<glyph name="threesuperior" format="2">
  <advance width="399"/>
  <unicode hex="00B3"/>
  <outline>
    <contour>
      <point x="198" y="853" type="curve" smooth="yes"/>
      <point x="127" y="853"/>
      <point x="71" y="828"/>
      <point x="31" y="797" type="curve"/>
      <point x="88" y="714" type="line"/>
      <point x="122" y="740"/>
      <point x="149" y="750"/>
      <point x="181" y="750" type="curve" smooth="yes"/>
      <point x="214" y="750"/>
      <point x="226" y="733"/>
      <point x="226" y="717" type="curve" smooth="yes"/>
      <point x="226" y="696"/>
      <point x="213" y="679"/>
      <point x="158" y="679" type="curve" smooth="yes"/>
      <point x="119" y="679" type="line"/>
      <point x="119" y="584" type="line"/>
      <point x="170" y="584" type="line" smooth="yes"/>
      <point x="229" y="584"/>
      <point x="236" y="567"/>
      <point x="236" y="549" type="curve" smooth="yes"/>
      <point x="236" y="525"/>
      <point x="213" y="516"/>
      <point x="179" y="516" type="curve" smooth="yes"/>
      <point x="127" y="516"/>
      <point x="76" y="527"/>
      <point x="34" y="556" type="curve"/>
      <point x="34" y="442" type="line"/>
      <point x="74" y="419"/>
      <point x="127" y="408"/>
      <point x="185" y="408" type="curve" smooth="yes"/>
      <point x="299" y="408"/>
      <point x="368" y="452"/>
      <point x="368" y="532" type="curve" smooth="yes"/>
      <point x="368" y="588"/>
      <point x="338" y="621"/>
      <point x="275" y="637" type="curve"/>
      <point x="275" y="641" type="line"/>
      <point x="332" y="662"/>
      <point x="354" y="698"/>
      <point x="354" y="748" type="curve" smooth="yes"/>
      <point x="354" y="811"/>
      <point x="297" y="853"/>
    </contour>
  </outline>
</glyph>
<glyph name="acute" format="2">
  <advance width="418"/>
  <unicode hex="00B4"/>
  <outline>
    <contour>
      <point x="378" y="756" type="curve"/>
      <point x="378" y="766" type="line"/>
      <point x="169" y="766" type="line"/>
      <point x="136" y="721"/>
      <point x="74" y="657"/>
      <point x="40" y="620" type="curve"/>
      <point x="40" y="606" type="line"/>
      <point x="167" y="606" type="line"/>
      <point x="221" y="640"/>
      <point x="331" y="718"/>
    </contour>
  </outline>
</glyph>
<glyph name="micro" format="2">
  <advance width="672"/>
  <unicode hex="00B5"/>
  <outline>
    <contour>
      <point x="606" y="553" type="line"/>
      <point x="414" y="553" type="line"/>
      <point x="414" y="311" type="line" smooth="yes"/>
      <point x="414" y="201"/>
      <point x="393" y="141"/>
      <point x="328" y="141" type="curve" smooth="yes"/>
      <point x="277" y="141"/>
      <point x="257" y="178"/>
      <point x="257" y="253" type="curve" smooth="yes"/>
      <point x="257" y="553" type="line"/>
      <point x="66" y="553" type="line"/>
      <point x="66" y="-240" type="line"/>
      <point x="257" y="-240" type="line"/>
      <point x="257" y="-84" type="line" smooth="yes"/>
      <point x="257" y="-47"/>
      <point x="254" y="3"/>
      <point x="251" y="31" type="curve"/>
      <point x="253" y="31" type="line"/>
      <point x="271" y="3"/>
      <point x="289" y="-10"/>
      <point x="325" y="-10" type="curve" smooth="yes"/>
      <point x="368" y="-10"/>
      <point x="407" y="17"/>
      <point x="429" y="74" type="curve"/>
      <point x="437" y="74" type="line"/>
      <point x="463" y="0" type="line"/>
      <point x="606" y="0" type="line"/>
    </contour>
  </outline>
</glyph>
<glyph name="paragraph" format="2">
  <advance width="643"/>
  <unicode hex="00B6"/>
  <outline>
    <contour>
      <point x="579" y="-127" type="line"/>
      <point x="579" y="760" type="line"/>
      <point x="270" y="760" type="line" smooth="yes"/>
      <point x="139" y="760"/>
      <point x="50" y="700"/>
      <point x="50" y="509" type="curve" smooth="yes"/>
      <point x="50" y="326"/>
      <point x="131" y="264"/>
      <point x="255" y="264" type="curve" smooth="yes"/>
      <point x="283" y="264"/>
      <point x="296" y="267"/>
      <point x="316" y="273" type="curve"/>
      <point x="316" y="-127" type="line"/>
      <point x="409" y="-127" type="line"/>
      <point x="409" y="648" type="line"/>
      <point x="486" y="648" type="line"/>
      <point x="486" y="-127" type="line"/>
    </contour>
  </outline>
</glyph>
<glyph name="cedilla" format="2">
  <advance width="288"/>
  <unicode hex="00B8"/>
  <outline>
    <contour>
      <point x="264" y="-123" type="curve" smooth="yes"/>
      <point x="264" y="-59"/>
      <point x="212" y="-39"/>
      <point x="172" y="-30" type="curve"/>
      <point x="181" y="0" type="line"/>
      <point x="86" y="0" type="line"/>
      <point x="56" y="-68" type="line"/>
      <point x="107" y="-77"/>
      <point x="127" y="-89"/>
      <point x="127" y="-112" type="curve" smooth="yes"/>
      <point x="127" y="-129"/>
      <point x="112" y="-140"/>
      <point x="87" y="-140" type="curve" smooth="yes"/>
      <point x="65" y="-140"/>
      <point x="44" y="-136"/>
      <point x="22" y="-129" type="curve"/>
      <point x="22" y="-223" type="line"/>
      <point x="46" y="-232"/>
      <point x="84" y="-240"/>
      <point x="130" y="-240" type="curve" smooth="yes"/>
      <point x="211" y="-240"/>
      <point x="264" y="-194"/>
    </contour>
  </outline>
</glyph>
<glyph name="onesuperior" format="2">
  <advance width="399"/>
  <unicode hex="00B9"/>
  <outline>
    <contour>
      <point x="301" y="844" type="line"/>
      <point x="194" y="844" type="line"/>
      <point x="28" y="710" type="line"/>
      <point x="99" y="627" type="line"/>
      <point x="138" y="661" type="line" smooth="yes"/>
      <point x="148" y="670"/>
      <point x="162" y="684"/>
      <point x="168" y="696" type="curve"/>
      <point x="166" y="682"/>
      <point x="163" y="611"/>
      <point x="163" y="590" type="curve" smooth="yes"/>
      <point x="163" y="416" type="line"/>
      <point x="301" y="416" type="line"/>
    </contour>
  </outline>
</glyph>
<glyph name="ordmasculine" format="2">
  <advance width="392"/>
  <unicode hex="00BA"/>
  <anchor x="194" y="360" name="bottom"/>
  <anchor x="200" y="725" name="top"/>
  <outline>
    <contour>
      <point x="369" y="539" type="curve"/>
      <point x="369" y="654"/>
      <point x="294" y="722"/>
      <point x="197" y="722" type="curve" smooth="yes"/>
      <point x="90" y="722"/>
      <point x="24" y="656"/>
      <point x="24" y="539" type="curve" smooth="yes"/>
      <point x="24" y="425"/>
      <point x="95" y="356"/>
      <point x="195" y="356" type="curve" smooth="yes"/>
      <point x="301" y="356"/>
      <point x="369" y="423"/>
    </contour>
    <contour>
      <point x="147" y="539" type="curve"/>
      <point x="147" y="595"/>
      <point x="162" y="624"/>
      <point x="196" y="624" type="curve" smooth="yes"/>
      <point x="229" y="624"/>
      <point x="244" y="595"/>
      <point x="244" y="539" type="curve" smooth="yes"/>
      <point x="244" y="483"/>
      <point x="229" y="455"/>
      <point x="196" y="455" type="curve" smooth="yes"/>
      <point x="162" y="455"/>
      <point x="147" y="483"/>
    </contour>
  </outline>
</glyph>
<glyph name="onequarter" format="2">
  <advance width="887"/>
  <unicode hex="00BC"/>
  <outline>
    <contour>
      <point x="174" y="0" type="line"/>
      <point x="321" y="0" type="line"/>
      <point x="689" y="714" type="line"/>
      <point x="542" y="714" type="line"/>
    </contour>
    <contour>
      <point x="129" y="460" type="curve" smooth="yes"/>
      <point x="129" y="286" type="line"/>
      <point x="267" y="286" type="line"/>
      <point x="267" y="714" type="line"/>
      <point x="160" y="714" type="line"/>
      <point x="-6" y="580" type="line"/>
      <point x="65" y="497" type="line"/>
      <point x="106" y="533" type="line" smooth="yes"/>
      <point x="119" y="546"/>
      <point x="131" y="560"/>
      <point x="134" y="566" type="curve"/>
      <point x="130" y="530"/>
      <point x="129" y="479"/>
    </contour>
    <contour>
      <point x="683" y="0" type="line"/>
      <point x="817" y="0" type="line"/>
      <point x="817" y="68" type="line"/>
      <point x="878" y="68" type="line"/>
      <point x="878" y="166" type="line"/>
      <point x="817" y="166" type="line"/>
      <point x="817" y="431" type="line"/>
      <point x="673" y="431" type="line"/>
      <point x="502" y="160" type="line"/>
      <point x="502" y="68" type="line"/>
      <point x="683" y="68" type="line"/>
    </contour>
    <contour>
      <point x="606" y="166" type="line"/>
      <point x="656" y="248" type="line" smooth="yes"/>
      <point x="663" y="259"/>
      <point x="673" y="280"/>
      <point x="686" y="313" type="curve"/>
      <point x="684" y="292"/>
      <point x="683" y="270"/>
      <point x="683" y="247" type="curve" smooth="yes"/>
      <point x="683" y="166" type="line"/>
    </contour>
  </outline>
</glyph>
<glyph name="onehalf" format="2">
  <advance width="926"/>
  <unicode hex="00BD"/>
  <outline>
    <contour>
      <point x="186" y="0" type="line"/>
      <point x="333" y="0" type="line"/>
      <point x="701" y="714" type="line"/>
      <point x="554" y="714" type="line"/>
    </contour>
    <contour>
      <point x="129" y="460" type="curve" smooth="yes"/>
      <point x="129" y="286" type="line"/>
      <point x="267" y="286" type="line"/>
      <point x="267" y="714" type="line"/>
      <point x="160" y="714" type="line"/>
      <point x="-6" y="580" type="line"/>
      <point x="65" y="497" type="line"/>
      <point x="103" y="531" type="line"/>
      <point x="116" y="543"/>
      <point x="131" y="560"/>
      <point x="134" y="566" type="curve"/>
      <point x="133" y="561"/>
      <point x="129" y="471"/>
    </contour>
    <contour>
      <point x="564" y="0" type="line"/>
      <point x="893" y="0" type="line"/>
      <point x="893" y="110" type="line"/>
      <point x="724" y="110" type="line"/>
      <point x="820" y="195" type="line"/>
      <point x="854" y="229"/>
      <point x="883" y="270"/>
      <point x="883" y="323" type="curve" smooth="yes"/>
      <point x="883" y="396"/>
      <point x="830" y="439"/>
      <point x="738" y="439" type="curve" smooth="yes"/>
      <point x="662" y="439"/>
      <point x="609" y="421"/>
      <point x="557" y="373" type="curve"/>
      <point x="626" y="292" type="line"/>
      <point x="656" y="321"/>
      <point x="684" y="335"/>
      <point x="710" y="335" type="curve" smooth="yes"/>
      <point x="731" y="335"/>
      <point x="742" y="326"/>
      <point x="742" y="307" type="curve" smooth="yes"/>
      <point x="742" y="284"/>
      <point x="724" y="260"/>
      <point x="669" y="205" type="curve" smooth="yes"/>
      <point x="564" y="101" type="line"/>
    </contour>
  </outline>
</glyph>
<glyph name="threequarters" format="2">
  <advance width="922"/>
  <unicode hex="00BE"/>
  <outline>
    <contour>
      <point x="227" y="0" type="line"/>
      <point x="374" y="0" type="line"/>
      <point x="742" y="714" type="line"/>
      <point x="595" y="714" type="line"/>
    </contour>
    <contour>
      <point x="195" y="278" type="curve" smooth="yes"/>
      <point x="311" y="278"/>
      <point x="378" y="323"/>
      <point x="378" y="402" type="curve" smooth="yes"/>
      <point x="378" y="458"/>
      <point x="348" y="491"/>
      <point x="285" y="507" type="curve"/>
      <point x="285" y="511" type="line"/>
      <point x="342" y="532"/>
      <point x="364" y="567"/>
      <point x="364" y="618" type="curve" smooth="yes"/>
      <point x="364" y="683"/>
      <point x="304" y="723"/>
      <point x="208" y="723" type="curve" smooth="yes"/>
      <point x="145" y="723"/>
      <point x="90" y="704"/>
      <point x="41" y="667" type="curve"/>
      <point x="98" y="584" type="line"/>
      <point x="133" y="611"/>
      <point x="159" y="620"/>
      <point x="191" y="620" type="curve" smooth="yes"/>
      <point x="224" y="620"/>
      <point x="236" y="603"/>
      <point x="236" y="587" type="curve" smooth="yes"/>
      <point x="236" y="560"/>
      <point x="215" y="549"/>
      <point x="168" y="549" type="curve" smooth="yes"/>
      <point x="129" y="549" type="line"/>
      <point x="129" y="454" type="line"/>
      <point x="180" y="454" type="line" smooth="yes"/>
      <point x="225" y="454"/>
      <point x="246" y="446"/>
      <point x="246" y="419" type="curve" smooth="yes"/>
      <point x="246" y="397"/>
      <point x="227" y="386"/>
      <point x="189" y="386" type="curve" smooth="yes"/>
      <point x="130" y="386"/>
      <point x="82" y="399"/>
      <point x="44" y="426" type="curve"/>
      <point x="44" y="312" type="line"/>
      <point x="85" y="289"/>
      <point x="135" y="278"/>
    </contour>
    <contour>
      <point x="718" y="0" type="line"/>
      <point x="852" y="0" type="line"/>
      <point x="852" y="68" type="line"/>
      <point x="913" y="68" type="line"/>
      <point x="913" y="166" type="line"/>
      <point x="852" y="166" type="line"/>
      <point x="852" y="431" type="line"/>
      <point x="708" y="431" type="line"/>
      <point x="537" y="160" type="line"/>
      <point x="537" y="68" type="line"/>
      <point x="718" y="68" type="line"/>
    </contour>
    <contour>
      <point x="641" y="166" type="line"/>
      <point x="691" y="248" type="line" smooth="yes"/>
      <point x="698" y="259"/>
      <point x="708" y="280"/>
      <point x="721" y="313" type="curve"/>
      <point x="719" y="292"/>
      <point x="718" y="270"/>
      <point x="718" y="247" type="curve" smooth="yes"/>
      <point x="718" y="166" type="line"/>
    </contour>
  </outline>
</glyph>
<glyph name="AE" format="2">
  <advance width="946"/>
  <unicode hex="00C6"/>
  <anchor x="473" y="0" name="bottom"/>
  <anchor x="528" y="714" name="top"/>
  <outline>
    <contour>
      <point x="898" y="0" type="line"/>
      <point x="898" y="157" type="line"/>
      <point x="667" y="157" type="line"/>
      <point x="667" y="292" type="line"/>
      <point x="881" y="292" type="line"/>
      <point x="881" y="447" type="line"/>
      <point x="667" y="447" type="line"/>
      <point x="667" y="559" type="line"/>
      <point x="898" y="559" type="line"/>
      <point x="898" y="714" type="line"/>
      <point x="302" y="714" type="line"/>
      <point x="-5" y="0" type="line"/>
      <point x="211" y="0" type="line"/>
      <point x="260" y="134" type="line"/>
      <point x="473" y="134" type="line"/>
      <point x="473" y="0" type="line"/>
    </contour>
    <contour>
      <point x="319" y="294" type="line"/>
      <point x="419" y="551" type="line"/>
      <point x="473" y="551" type="line"/>
      <point x="473" y="294" type="line"/>
    </contour>
  </outline>
</glyph>
<glyph name="Eth" format="2">
  <advance width="734"/>
  <unicode hex="00D0"/>
  <anchor x="367" y="0" name="bottom"/>
  <anchor x="367" y="714" name="top"/>
  <outline>
    <contour>
      <point x="324" y="714" type="curve" smooth="yes"/>
      <point x="77" y="714" type="line"/>
      <point x="77" y="431" type="line"/>
      <point x="15" y="431" type="line"/>
      <point x="15" y="275" type="line"/>
      <point x="77" y="275" type="line"/>
      <point x="77" y="0" type="line"/>
      <point x="308" y="0" type="line" smooth="yes"/>
      <point x="535" y="0"/>
      <point x="683" y="123"/>
      <point x="683" y="372" type="curve" smooth="yes"/>
      <point x="683" y="593"/>
      <point x="554" y="714"/>
    </contour>
    <contour>
      <point x="326" y="558" type="line"/>
      <point x="431" y="558"/>
      <point x="483" y="495"/>
      <point x="483" y="365" type="curve" smooth="yes"/>
      <point x="483" y="225"/>
      <point x="430" y="158"/>
      <point x="313" y="158" type="curve" smooth="yes"/>
      <point x="270" y="158" type="line"/>
      <point x="270" y="275" type="line"/>
      <point x="373" y="275" type="line"/>
      <point x="373" y="431" type="line"/>
      <point x="270" y="431" type="line"/>
      <point x="270" y="558" type="line"/>
    </contour>
  </outline>
</glyph>
<glyph name="multiply" format="2">
  <advance width="586"/>
  <unicode hex="00D7"/>
  <outline>
    <contour>
      <point x="424" y="576" type="line"/>
      <point x="290" y="446" type="line"/>
      <point x="158" y="576" type="line"/>
      <point x="69" y="484" type="line"/>
      <point x="199" y="353" type="line"/>
      <point x="70" y="222" type="line"/>
      <point x="158" y="131" type="line"/>
      <point x="290" y="262" type="line"/>
      <point x="424" y="130" type="line"/>
      <point x="514" y="220" type="line"/>
      <point x="382" y="353" type="line"/>
      <point x="516" y="487" type="line"/>
    </contour>
  </outline>
</glyph>
<glyph name="Oslash" format="2">
  <advance width="797"/>
  <unicode hex="00D8"/>
  <anchor x="399" y="0" name="bottom"/>
  <anchor x="402" y="714" name="top"/>
  <outline>
    <contour>
      <point x="745" y="358" type="curve" smooth="yes"/>
      <point x="745" y="477"/>
      <point x="716" y="575"/>
      <point x="650" y="639" type="curve"/>
      <point x="690" y="700" type="line"/>
      <point x="597" y="756" type="line"/>
      <point x="560" y="698" type="line"/>
      <point x="516" y="716"/>
      <point x="462" y="725"/>
      <point x="399" y="725" type="curve" smooth="yes"/>
      <point x="158" y="725"/>
      <point x="51" y="581"/>
      <point x="51" y="359" type="curve" smooth="yes"/>
      <point x="51" y="234"/>
      <point x="83" y="134"/>
      <point x="154" y="69" type="curve"/>
      <point x="113" y="8" type="line"/>
      <point x="207" y="-53" type="line"/>
      <point x="248" y="11" type="line"/>
      <point x="291" y="-3"/>
      <point x="341" y="-10"/>
      <point x="398" y="-10" type="curve" smooth="yes"/>
      <point x="643" y="-10"/>
      <point x="745" y="137"/>
    </contour>
    <contour>
      <point x="542" y="358" type="curve" smooth="yes"/>
      <point x="542" y="229"/>
      <point x="504" y="151"/>
      <point x="398" y="151" type="curve" smooth="yes"/>
      <point x="377" y="151"/>
      <point x="357" y="154"/>
      <point x="341" y="158" type="curve"/>
      <point x="533" y="461" type="line"/>
      <point x="539" y="433"/>
      <point x="542" y="398"/>
    </contour>
    <contour>
      <point x="254" y="358" type="curve" smooth="yes"/>
      <point x="254" y="487"/>
      <point x="294" y="567"/>
      <point x="399" y="567" type="curve" smooth="yes"/>
      <point x="423" y="567"/>
      <point x="446" y="561"/>
      <point x="465" y="553" type="curve"/>
      <point x="268" y="241" type="line"/>
      <point x="257" y="273"/>
      <point x="254" y="313"/>
    </contour>
  </outline>
</glyph>
<glyph name="Thorn" format="2">
  <advance width="627"/>
  <unicode hex="00DE"/>
  <anchor x="314" y="0" name="bottom"/>
  <anchor x="314" y="714" name="top"/>
  <outline>
    <contour>
      <point x="595" y="383" type="curve" smooth="yes"/>
      <point x="595" y="528"/>
      <point x="505" y="610"/>
      <point x="324" y="610" type="curve" smooth="yes"/>
      <point x="270" y="610" type="line"/>
      <point x="270" y="714" type="line"/>
      <point x="77" y="714" type="line"/>
      <point x="77" y="0" type="line"/>
      <point x="270" y="0" type="line"/>
      <point x="270" y="133" type="line"/>
      <point x="324" y="133" type="line" smooth="yes"/>
      <point x="527" y="133"/>
      <point x="595" y="253"/>
    </contour>
    <contour>
      <point x="305" y="290" type="curve" smooth="yes"/>
      <point x="270" y="290" type="line"/>
      <point x="270" y="454" type="line"/>
      <point x="320" y="454" type="line" smooth="yes"/>
      <point x="376" y="454"/>
      <point x="400" y="427"/>
      <point x="400" y="382" type="curve" smooth="yes"/>
      <point x="400" y="317"/>
      <point x="355" y="290"/>
    </contour>
  </outline>
</glyph>
<glyph name="germandbls" format="2">
  <advance width="750"/>
  <unicode hex="00DF"/>
  <anchor x="375" y="0" name="bottom"/>
  <anchor x="375" y="765" name="top"/>
  <outline>
    <contour>
      <point x="654" y="581" type="curve" smooth="yes"/>
      <point x="654" y="704"/>
      <point x="533" y="765"/>
      <point x="365" y="765" type="curve" smooth="yes"/>
      <point x="193" y="765"/>
      <point x="66" y="684"/>
      <point x="66" y="537" type="curve" smooth="yes"/>
      <point x="66" y="0" type="line"/>
      <point x="257" y="0" type="line"/>
      <point x="257" y="517" type="line" smooth="yes"/>
      <point x="257" y="582"/>
      <point x="291" y="619"/>
      <point x="365" y="619" type="curve" smooth="yes"/>
      <point x="424" y="619"/>
      <point x="458" y="594"/>
      <point x="458" y="561" type="curve" smooth="yes"/>
      <point x="458" y="485"/>
      <point x="322" y="473"/>
      <point x="322" y="369" type="curve" smooth="yes"/>
      <point x="322" y="317"/>
      <point x="350" y="284"/>
      <point x="431" y="241" type="curve" smooth="yes"/>
      <point x="513" y="198"/>
      <point x="522" y="186"/>
      <point x="522" y="164" type="curve" smooth="yes"/>
      <point x="522" y="137"/>
      <point x="492" y="122"/>
      <point x="455" y="122" type="curve" smooth="yes"/>
      <point x="415" y="122"/>
      <point x="352" y="141"/>
      <point x="319" y="161" type="curve"/>
      <point x="319" y="19" type="line"/>
      <point x="361" y="-3"/>
      <point x="410" y="-10"/>
      <point x="500" y="-10" type="curve" smooth="yes"/>
      <point x="644" y="-10"/>
      <point x="721" y="51"/>
      <point x="721" y="163" type="curve" smooth="yes"/>
      <point x="721" y="240"/>
      <point x="690" y="278"/>
      <point x="624" y="320" type="curve" smooth="yes"/>
      <point x="558" y="362"/>
      <point x="523" y="371"/>
      <point x="523" y="396" type="curve" smooth="yes"/>
      <point x="523" y="424"/>
      <point x="654" y="469"/>
    </contour>
  </outline>
</glyph>
<glyph name="ae" format="2">
  <advance width="935"/>
  <unicode hex="00E6"/>
  <anchor x="468" y="0" name="bottom"/>
  <anchor x="481" y="553" name="top"/>
  <outline>
    <contour>
      <point x="653" y="563" type="curve" smooth="yes"/>
      <point x="577" y="563"/>
      <point x="527" y="549"/>
      <point x="481" y="517" type="curve"/>
      <point x="436" y="548"/>
      <point x="380" y="563"/>
      <point x="317" y="563" type="curve" smooth="yes"/>
      <point x="236" y="563"/>
      <point x="158" y="547"/>
      <point x="95" y="514" type="curve"/>
      <point x="149" y="389" type="line"/>
      <point x="201" y="413"/>
      <point x="258" y="428"/>
      <point x="302" y="428" type="curve" smooth="yes"/>
      <point x="337" y="428"/>
      <point x="368" y="414"/>
      <point x="368" y="361" type="curve" smooth="yes"/>
      <point x="368" y="352" type="line"/>
      <point x="279" y="349" type="line" smooth="yes"/>
      <point x="133" y="344"/>
      <point x="36" y="295"/>
      <point x="36" y="172" type="curve" smooth="yes"/>
      <point x="36" y="48"/>
      <point x="120" y="-10"/>
      <point x="212" y="-10" type="curve" smooth="yes"/>
      <point x="332" y="-10"/>
      <point x="377" y="12"/>
      <point x="445" y="83" type="curve"/>
      <point x="495" y="19"/>
      <point x="571" y="-10"/>
      <point x="655" y="-10" type="curve" smooth="yes"/>
      <point x="750" y="-10"/>
      <point x="804" y="3"/>
      <point x="858" y="31" type="curve"/>
      <point x="858" y="168" type="line"/>
      <point x="795" y="136"/>
      <point x="731" y="126"/>
      <point x="680" y="126" type="curve" smooth="yes"/>
      <point x="598" y="126"/>
      <point x="556" y="171"/>
      <point x="553" y="225" type="curve"/>
      <point x="893" y="225" type="line"/>
      <point x="893" y="309" type="line" smooth="yes"/>
      <point x="893" y="479"/>
      <point x="793" y="563"/>
    </contour>
    <contour>
      <point x="328" y="245" type="curve" smooth="yes"/>
      <point x="369" y="247" type="line"/>
      <point x="369" y="204" type="line"/>
      <point x="369" y="157"/>
      <point x="331" y="125"/>
      <point x="286" y="125" type="curve" smooth="yes"/>
      <point x="253" y="125"/>
      <point x="231" y="138"/>
      <point x="231" y="174" type="curve" smooth="yes"/>
      <point x="231" y="216"/>
      <point x="253" y="243"/>
    </contour>
    <contour>
      <point x="642" y="433" type="curve" smooth="yes"/>
      <point x="693" y="433"/>
      <point x="721" y="393"/>
      <point x="722" y="345" type="curve"/>
      <point x="556" y="345" type="line"/>
      <point x="561" y="410"/>
      <point x="595" y="433"/>
    </contour>
  </outline>
</glyph>
<glyph name="eth" format="2">
  <advance width="641"/>
  <unicode hex="00F0"/>
  <anchor x="321" y="0" name="bottom"/>
  <anchor x="321" y="769" name="top"/>
  <outline>
    <contour>
      <point x="234" y="768" type="curve"/>
      <point x="181" y="679" type="line"/>
      <point x="206" y="664"/>
      <point x="234" y="647"/>
      <point x="254" y="634" type="curve"/>
      <point x="184" y="589" type="line"/>
      <point x="241" y="499" type="line"/>
      <point x="330" y="557" type="line"/>
      <point x="362" y="525"/>
      <point x="381" y="492"/>
      <point x="400" y="456" type="curve"/>
      <point x="396" y="454" type="line"/>
      <point x="379" y="481"/>
      <point x="342" y="495"/>
      <point x="277" y="495" type="curve" smooth="yes"/>
      <point x="144" y="495"/>
      <point x="43" y="408"/>
      <point x="43" y="243" type="curve" smooth="yes"/>
      <point x="43" y="78"/>
      <point x="158" y="-10"/>
      <point x="317" y="-10" type="curve" smooth="yes"/>
      <point x="486" y="-10"/>
      <point x="594" y="102"/>
      <point x="594" y="283" type="curve" smooth="yes"/>
      <point x="594" y="439"/>
      <point x="545" y="541"/>
      <point x="451" y="633" type="curve"/>
      <point x="522" y="680" type="line"/>
      <point x="466" y="769" type="line"/>
      <point x="364" y="702" type="line"/>
      <point x="328" y="726"/>
      <point x="286" y="746"/>
    </contour>
    <contour>
      <point x="319" y="358" type="curve" smooth="yes"/>
      <point x="374" y="358"/>
      <point x="399" y="312"/>
      <point x="399" y="266" type="curve" smooth="yes"/>
      <point x="399" y="172"/>
      <point x="378" y="126"/>
      <point x="319" y="126" type="curve" smooth="yes"/>
      <point x="260" y="126"/>
      <point x="239" y="173"/>
      <point x="239" y="244" type="curve" smooth="yes"/>
      <point x="239" y="323"/>
      <point x="259" y="358"/>
    </contour>
  </outline>
</glyph>
<glyph name="divide" format="2">
  <advance width="586"/>
  <unicode hex="00F7"/>
  <outline>
    <contour>
      <point x="45" y="287" type="line"/>
      <point x="540" y="287" type="line"/>
      <point x="540" y="418" type="line"/>
      <point x="45" y="418" type="line"/>
    </contour>
    <contour>
      <point x="292" y="79" type="curve" smooth="yes"/>
      <point x="332" y="79"/>
      <point x="369" y="104"/>
      <point x="369" y="162" type="curve" smooth="yes"/>
      <point x="369" y="224"/>
      <point x="332" y="245"/>
      <point x="292" y="245" type="curve" smooth="yes"/>
      <point x="251" y="245"/>
      <point x="216" y="224"/>
      <point x="216" y="162" type="curve" smooth="yes"/>
      <point x="216" y="104"/>
      <point x="251" y="79"/>
    </contour>
    <contour>
      <point x="292" y="460" type="curve" smooth="yes"/>
      <point x="332" y="460"/>
      <point x="369" y="485"/>
      <point x="369" y="543" type="curve" smooth="yes"/>
      <point x="369" y="605"/>
      <point x="332" y="626"/>
      <point x="292" y="626" type="curve" smooth="yes"/>
      <point x="251" y="626"/>
      <point x="216" y="605"/>
      <point x="216" y="543" type="curve" smooth="yes"/>
      <point x="216" y="485"/>
      <point x="251" y="460"/>
    </contour>
  </outline>
</glyph>
<glyph name="oslash" format="2">
  <advance width="665"/>
  <unicode hex="00F8"/>
  <anchor x="333" y="0" name="bottom"/>
  <anchor x="334" y="553" name="top"/>
  <outline>
    <contour>
      <point x="622" y="278" type="curve" smooth="yes"/>
      <point x="622" y="374"/>
      <point x="588" y="448"/>
      <point x="532" y="496" type="curve"/>
      <point x="565" y="547" type="line"/>
      <point x="483" y="598" type="line"/>
      <point x="448" y="544" type="line"/>
      <point x="414" y="556"/>
      <point x="375" y="563"/>
      <point x="334" y="563" type="curve" smooth="yes"/>
      <point x="152" y="563"/>
      <point x="42" y="461"/>
      <point x="42" y="278" type="curve" smooth="yes"/>
      <point x="42" y="179"/>
      <point x="76" y="104"/>
      <point x="134" y="55" type="curve"/>
      <point x="95" y="-5" type="line"/>
      <point x="178" y="-57" type="line"/>
      <point x="219" y="7" type="line"/>
      <point x="253" y="-4"/>
      <point x="291" y="-10"/>
      <point x="331" y="-10" type="curve" smooth="yes"/>
      <point x="512" y="-10"/>
      <point x="622" y="93"/>
    </contour>
    <contour>
      <point x="225" y="278" type="curve" smooth="yes"/>
      <point x="225" y="379"/>
      <point x="253" y="431"/>
      <point x="332" y="431" type="curve" smooth="yes"/>
      <point x="347" y="431"/>
      <point x="360" y="429"/>
      <point x="372" y="425" type="curve"/>
      <point x="231" y="206" type="line"/>
      <point x="226" y="227"/>
      <point x="225" y="250"/>
    </contour>
    <contour>
      <point x="439" y="278" type="curve" smooth="yes"/>
      <point x="439" y="176"/>
      <point x="414" y="122"/>
      <point x="333" y="122" type="curve" smooth="yes"/>
      <point x="319" y="122"/>
      <point x="307" y="123"/>
      <point x="296" y="126" type="curve"/>
      <point x="434" y="342" type="line"/>
      <point x="438" y="324"/>
      <point x="439" y="302"/>
    </contour>
  </outline>
</glyph>
<glyph name="thorn" format="2">
  <advance width="643"/>
  <unicode hex="00FE"/>
  <anchor x="322" y="-240" name="bottom"/>
  <anchor x="322" y="760" name="top"/>
  <outline>
    <contour>
      <point x="600" y="278" type="curve" smooth="yes"/>
      <point x="600" y="465"/>
      <point x="519" y="563"/>
      <point x="404" y="563" type="curve" smooth="yes"/>
      <point x="331" y="563"/>
      <point x="282" y="527"/>
      <point x="257" y="482" type="curve"/>
      <point x="248" y="482" type="line"/>
      <point x="252" y="502"/>
      <point x="257" y="538"/>
      <point x="257" y="592" type="curve" smooth="yes"/>
      <point x="257" y="760" type="line"/>
      <point x="66" y="760" type="line"/>
      <point x="66" y="-240" type="line"/>
      <point x="257" y="-240" type="line"/>
      <point x="257" y="-21" type="line" smooth="yes"/>
      <point x="257" y="0"/>
      <point x="254" y="33"/>
      <point x="250" y="53" type="curve"/>
      <point x="257" y="53" type="line"/>
      <point x="285" y="21"/>
      <point x="328" y="-10"/>
      <point x="397" y="-10" type="curve" smooth="yes"/>
      <point x="514" y="-10"/>
      <point x="600" y="89"/>
    </contour>
    <contour>
      <point x="406" y="280" type="curve" smooth="yes"/>
      <point x="406" y="191"/>
      <point x="388" y="144"/>
      <point x="336" y="144" type="curve" smooth="yes"/>
      <point x="277" y="144"/>
      <point x="257" y="191"/>
      <point x="257" y="279" type="curve" smooth="yes"/>
      <point x="257" y="293" type="line" smooth="yes"/>
      <point x="259" y="373"/>
      <point x="278" y="413"/>
      <point x="333" y="413" type="curve" smooth="yes"/>
      <point x="387" y="413"/>
      <point x="406" y="367"/>
    </contour>
  </outline>
</glyph>
<glyph name="dcroat" format="2">
  <advance width="663"/>
  <unicode hex="0111"/>
  <anchor x="332" y="0" name="bottom"/>
  <anchor x="332" y="760" name="top"/>
  <outline>
    <contour>
      <point x="230" y="-10" type="curve" smooth="yes"/>
      <point x="301" y="-10"/>
      <point x="343" y="26"/>
      <point x="371" y="70" type="curve"/>
      <point x="378" y="70" type="line"/>
      <point x="421" y="0" type="line"/>
      <point x="577" y="0" type="line"/>
      <point x="577" y="570" type="line"/>
      <point x="653" y="570" type="line"/>
      <point x="653" y="688" type="line"/>
      <point x="577" y="688" type="line"/>
      <point x="577" y="760" type="line"/>
      <point x="385" y="760" type="line"/>
      <point x="385" y="688" type="line"/>
      <point x="272" y="688" type="line"/>
      <point x="272" y="570" type="line"/>
      <point x="385" y="570" type="line"/>
      <point x="385" y="565" type="line" smooth="yes"/>
      <point x="385" y="505"/>
      <point x="396" y="450"/>
      <point x="400" y="434" type="curve"/>
      <point x="396" y="434" type="line"/>
      <point x="367" y="479"/>
      <point x="323" y="514"/>
      <point x="248" y="514" type="curve" smooth="yes"/>
      <point x="128" y="514"/>
      <point x="42" y="431"/>
      <point x="42" y="251" type="curve" smooth="yes"/>
      <point x="42" y="81"/>
      <point x="121" y="-10"/>
    </contour>
    <contour>
      <point x="326" y="141" type="curve" smooth="yes"/>
      <point x="275" y="141"/>
      <point x="253" y="193"/>
      <point x="253" y="249" type="curve" smooth="yes"/>
      <point x="253" y="332"/>
      <point x="283" y="360"/>
      <point x="323" y="360" type="curve" smooth="yes"/>
      <point x="370" y="360"/>
      <point x="401" y="321"/>
      <point x="401" y="250" type="curve" smooth="yes"/>
      <point x="401" y="238" type="line" smooth="yes"/>
      <point x="399" y="173"/>
      <point x="381" y="141"/>
    </contour>
  </outline>
</glyph>
<glyph name="eogonek" format="2">
  <advance width="618"/>
  <unicode hex="0119"/>
  <anchor x="333" y="-240" name="bottom"/>
  <anchor x="309" y="553" name="top"/>
  <outline>
    <contour>
      <point x="447" y="-91" type="curve" smooth="yes"/>
      <point x="447" y="-62"/>
      <point x="459" y="-38"/>
      <point x="540" y="31" type="curve"/>
      <point x="437" y="25" type="line"/>
      <point x="348" y="-35"/>
      <point x="323" y="-82"/>
      <point x="323" y="-127" type="curve" smooth="yes"/>
      <point x="323" y="-197"/>
      <point x="382" y="-240"/>
      <point x="458" y="-240" type="curve" smooth="yes"/>
      <point x="494" y="-240"/>
      <point x="521" y="-234"/>
      <point x="543" y="-227" type="curve"/>
      <point x="543" y="-119" type="line"/>
      <point x="529" y="-125"/>
      <point x="508" y="-130"/>
      <point x="488" y="-130" type="curve" smooth="yes"/>
      <point x="465" y="-130"/>
      <point x="447" y="-116"/>
    </contour>
    <component base="e"/>
  </outline>
</glyph>
<glyph name="Hbar" format="2">
  <advance width="782"/>
  <unicode hex="0126"/>
  <anchor x="391" y="0" name="bottom"/>
  <anchor x="391" y="714" name="top"/>
  <outline>
    <contour>
      <point x="85" y="0" type="line"/>
      <point x="278" y="0" type="line"/>
      <point x="278" y="291" type="line"/>
      <point x="503" y="291" type="line"/>
      <point x="503" y="0" type="line"/>
      <point x="697" y="0" type="line"/>
      <point x="697" y="521" type="line"/>
      <point x="782" y="521" type="line"/>
      <point x="782" y="635" type="line"/>
      <point x="697" y="635" type="line"/>
      <point x="697" y="714" type="line"/>
      <point x="503" y="714" type="line"/>
      <point x="503" y="635" type="line"/>
      <point x="278" y="635" type="line"/>
      <point x="278" y="714" type="line"/>
      <point x="85" y="714" type="line"/>
      <point x="85" y="635" type="line"/>
      <point x="0" y="635" type="line"/>
      <point x="0" y="521" type="line"/>
      <point x="85" y="521" type="line"/>
    </contour>
    <contour>
      <point x="278" y="449" type="line"/>
      <point x="278" y="521" type="line"/>
      <point x="503" y="521" type="line"/>
      <point x="503" y="449" type="line"/>
    </contour>
  </outline>
</glyph>
<glyph name="hbar" format="2">
  <advance width="680"/>
  <unicode hex="0127"/>
  <anchor x="340" y="0" name="bottom"/>
  <anchor x="164" y="760" name="top"/>
  <outline>
    <contour>
      <point x="267" y="760" type="line"/>
      <point x="76" y="760" type="line"/>
      <point x="76" y="688" type="line"/>
      <point x="0" y="688" type="line"/>
      <point x="0" y="570" type="line"/>
      <point x="76" y="570" type="line"/>
      <point x="76" y="0" type="line"/>
      <point x="267" y="0" type="line"/>
      <point x="267" y="193" type="line" smooth="yes"/>
      <point x="267" y="303"/>
      <point x="289" y="364"/>
      <point x="358" y="364" type="curve" smooth="yes"/>
      <point x="403" y="364"/>
      <point x="424" y="326"/>
      <point x="424" y="253" type="curve" smooth="yes"/>
      <point x="424" y="0" type="line"/>
      <point x="616" y="0" type="line"/>
      <point x="616" y="312" type="line" smooth="yes"/>
      <point x="616" y="453"/>
      <point x="531" y="514"/>
      <point x="421" y="514" type="curve" smooth="yes"/>
      <point x="354" y="514"/>
      <point x="306" y="492"/>
      <point x="270" y="436" type="curve"/>
      <point x="259" y="436" type="line"/>
      <point x="262" y="467"/>
      <point x="266" y="519"/>
      <point x="266" y="550" type="curve" smooth="yes"/>
      <point x="266" y="570" type="line"/>
      <point x="381" y="570" type="line"/>
      <point x="381" y="688" type="line"/>
      <point x="267" y="688" type="line"/>
    </contour>
  </outline>
</glyph>
<glyph name="idotless" format="2">
  <advance width="325"/>
  <unicode hex="0131"/>
  <anchor x="162" y="0" name="bottom"/>
  <anchor x="163" y="553" name="top"/>
  <outline>
    <contour>
      <point x="258" y="0" type="line"/>
      <point x="258" y="553" type="line"/>
      <point x="67" y="553" type="line"/>
      <point x="67" y="0" type="line"/>
    </contour>
  </outline>
</glyph>
<glyph name="kgreenlandic" format="2">
  <advance width="659"/>
  <unicode hex="0138"/>
  <anchor x="330" y="0" name="bottom"/>
  <anchor x="330" y="553" name="top"/>
  <outline>
    <contour>
      <point x="650" y="553" type="line"/>
      <point x="436" y="553" type="line"/>
      <point x="316" y="399" type="line" smooth="yes"/>
      <point x="289" y="364"/>
      <point x="269" y="331"/>
      <point x="257" y="314" type="curve"/>
      <point x="253" y="314" type="line"/>
      <point x="255" y="339"/>
      <point x="258" y="378"/>
      <point x="258" y="433" type="curve" smooth="yes"/>
      <point x="258" y="553" type="line"/>
      <point x="66" y="553" type="line"/>
      <point x="66" y="0" type="line"/>
      <point x="258" y="0" type="line"/>
      <point x="258" y="147" type="line"/>
      <point x="321" y="195" type="line"/>
      <point x="444" y="0" type="line"/>
      <point x="659" y="0" type="line"/>
      <point x="452" y="311" type="line"/>
    </contour>
  </outline>
</glyph>
<glyph name="Lslash" format="2">
  <advance width="609"/>
  <unicode hex="0141"/>
  <anchor x="309" y="0" name="bottom"/>
  <anchor x="170" y="714" name="top"/>
  <outline>
    <contour>
      <point x="104" y="0" type="line"/>
      <point x="572" y="0" type="line"/>
      <point x="572" y="156" type="line"/>
      <point x="297" y="156" type="line"/>
      <point x="297" y="354" type="line"/>
      <point x="472" y="463" type="line"/>
      <point x="400" y="582" type="line"/>
      <point x="297" y="518" type="line"/>
      <point x="297" y="714" type="line"/>
      <point x="104" y="714" type="line"/>
      <point x="104" y="399" type="line"/>
      <point x="-15" y="328" type="line"/>
      <point x="54" y="207" type="line"/>
      <point x="104" y="235" type="line"/>
    </contour>
  </outline>
</glyph>
<glyph name="lslash" format="2">
  <advance width="417"/>
  <unicode hex="0142"/>
  <anchor x="209" y="0" name="bottom"/>
  <anchor x="209" y="760" name="top"/>
  <outline>
    <contour>
      <point x="114" y="0" type="line"/>
      <point x="305" y="0" type="line"/>
      <point x="305" y="312" type="line"/>
      <point x="432" y="387" type="line"/>
      <point x="361" y="508" type="line"/>
      <point x="305" y="474" type="line"/>
      <point x="305" y="760" type="line"/>
      <point x="114" y="760" type="line"/>
      <point x="114" y="359" type="line"/>
      <point x="-15" y="285" type="line"/>
      <point x="53" y="164" type="line"/>
      <point x="114" y="197" type="line"/>
    </contour>
  </outline>
</glyph>
<glyph name="Eng" format="2">
  <advance width="834"/>
  <unicode hex="014A"/>
  <anchor x="417" y="-239" name="bottom"/>
  <anchor x="417" y="714" name="top"/>
  <outline>
    <contour>
      <point x="502" y="-239" type="curve" smooth="yes"/>
      <point x="652" y="-239"/>
      <point x="757" y="-157"/>
      <point x="757" y="-4" type="curve" smooth="yes"/>
      <point x="757" y="714" type="line"/>
      <point x="585" y="714" type="line"/>
      <point x="585" y="525" type="line" smooth="yes"/>
      <point x="585" y="458"/>
      <point x="590" y="357"/>
      <point x="593" y="319" type="curve"/>
      <point x="589" y="319" type="line"/>
      <point x="309" y="714" type="line"/>
      <point x="77" y="714" type="line"/>
      <point x="77" y="0" type="line"/>
      <point x="248" y="0" type="line"/>
      <point x="248" y="300" type="line" smooth="yes"/>
      <point x="248" y="373"/>
      <point x="243" y="464"/>
      <point x="239" y="503" type="curve"/>
      <point x="243" y="503" type="line"/>
      <point x="595" y="0" type="line"/>
      <point x="590" y="-59"/>
      <point x="554" y="-89"/>
      <point x="477" y="-89" type="curve" smooth="yes"/>
      <point x="444" y="-89"/>
      <point x="418" y="-83"/>
      <point x="393" y="-79" type="curve"/>
      <point x="393" y="-229" type="line"/>
      <point x="418" y="-234"/>
      <point x="454" y="-239"/>
    </contour>
  </outline>
</glyph>
<glyph name="OE" format="2">
  <advance width="957"/>
  <unicode hex="0152"/>
  <anchor x="479" y="0" name="bottom"/>
  <anchor x="479" y="714" name="top"/>
  <outline>
    <contour>
      <point x="379" y="725" type="curve" smooth="yes"/>
      <point x="158" y="725"/>
      <point x="51" y="580"/>
      <point x="51" y="359" type="curve" smooth="yes"/>
      <point x="51" y="137"/>
      <point x="162" y="-10"/>
      <point x="378" y="-10" type="curve" smooth="yes"/>
      <point x="412" y="-10"/>
      <point x="469" y="-6"/>
      <point x="497" y="0" type="curve"/>
      <point x="909" y="0" type="line"/>
      <point x="909" y="157" type="line"/>
      <point x="678" y="157" type="line"/>
      <point x="678" y="292" type="line"/>
      <point x="891" y="292" type="line"/>
      <point x="891" y="447" type="line"/>
      <point x="678" y="447" type="line"/>
      <point x="678" y="559" type="line"/>
      <point x="909" y="559" type="line"/>
      <point x="909" y="714" type="line"/>
      <point x="501" y="714" type="line"/>
      <point x="472" y="721"/>
      <point x="415" y="725"/>
    </contour>
    <contour>
      <point x="380" y="567" type="curve" smooth="yes"/>
      <point x="421" y="567"/>
      <point x="463" y="558"/>
      <point x="485" y="543" type="curve"/>
      <point x="485" y="172" type="line"/>
      <point x="461" y="158"/>
      <point x="420" y="151"/>
      <point x="379" y="151" type="curve" smooth="yes"/>
      <point x="294" y="151"/>
      <point x="254" y="229"/>
      <point x="254" y="358" type="curve" smooth="yes"/>
      <point x="254" y="487"/>
      <point x="294" y="567"/>
    </contour>
  </outline>
</glyph>
<glyph name="oe" format="2">
  <advance width="980"/>
  <unicode hex="0153"/>
  <anchor x="490" y="0" name="bottom"/>
  <anchor x="490" y="553" name="top"/>
  <outline>
    <contour>
      <point x="698" y="563" type="curve" smooth="yes"/>
      <point x="611" y="563"/>
      <point x="551" y="540"/>
      <point x="503" y="501" type="curve"/>
      <point x="455" y="542"/>
      <point x="392" y="563"/>
      <point x="320" y="563" type="curve" smooth="yes"/>
      <point x="147" y="563"/>
      <point x="42" y="461"/>
      <point x="42" y="278" type="curve" smooth="yes"/>
      <point x="42" y="93"/>
      <point x="157" y="-10"/>
      <point x="317" y="-10" type="curve" smooth="yes"/>
      <point x="399" y="-10"/>
      <point x="465" y="13"/>
      <point x="513" y="57" type="curve"/>
      <point x="562" y="11"/>
      <point x="628" y="-10"/>
      <point x="700" y="-10" type="curve" smooth="yes"/>
      <point x="795" y="-10"/>
      <point x="849" y="3"/>
      <point x="903" y="31" type="curve"/>
      <point x="903" y="168" type="line"/>
      <point x="840" y="136"/>
      <point x="776" y="126"/>
      <point x="725" y="126" type="curve" smooth="yes"/>
      <point x="643" y="126"/>
      <point x="601" y="171"/>
      <point x="598" y="225" type="curve"/>
      <point x="938" y="225" type="line"/>
      <point x="938" y="309" type="line" smooth="yes"/>
      <point x="938" y="479"/>
      <point x="838" y="563"/>
    </contour>
    <contour>
      <point x="318" y="421" type="curve" smooth="yes"/>
      <point x="378" y="421"/>
      <point x="400" y="372"/>
      <point x="400" y="278" type="curve" smooth="yes"/>
      <point x="400" y="183"/>
      <point x="378" y="132"/>
      <point x="319" y="132" type="curve" smooth="yes"/>
      <point x="259" y="132"/>
      <point x="237" y="183"/>
      <point x="237" y="278" type="curve" smooth="yes"/>
      <point x="237" y="372"/>
      <point x="260" y="421"/>
    </contour>
    <contour>
      <point x="687" y="433" type="curve" smooth="yes"/>
      <point x="738" y="433"/>
      <point x="766" y="393"/>
      <point x="767" y="345" type="curve"/>
      <point x="601" y="345" type="line"/>
      <point x="606" y="410"/>
      <point x="640" y="433"/>
    </contour>
  </outline>
</glyph>
<glyph name="Tbar" format="2">
  <advance width="591"/>
  <unicode hex="0166"/>
  <anchor x="296" y="0" name="bottom"/>
  <anchor x="296" y="714" name="top"/>
  <outline>
    <contour>
      <point x="199" y="0" type="line"/>
      <point x="392" y="0" type="line"/>
      <point x="392" y="267" type="line"/>
      <point x="495" y="267" type="line"/>
      <point x="495" y="426" type="line"/>
      <point x="392" y="426" type="line"/>
      <point x="392" y="556" type="line"/>
      <point x="566" y="556" type="line"/>
      <point x="566" y="714" type="line"/>
      <point x="25" y="714" type="line"/>
      <point x="25" y="556" type="line"/>
      <point x="199" y="556" type="line"/>
      <point x="199" y="426" type="line"/>
      <point x="98" y="426" type="line"/>
      <point x="98" y="267" type="line"/>
      <point x="199" y="267" type="line"/>
    </contour>
  </outline>
</glyph>
<glyph name="Uogonek" format="2">
  <advance width="757"/>
  <unicode hex="0172"/>
  <anchor x="377" y="-240" name="bottom"/>
  <anchor x="379" y="714" name="top"/>
  <outline>
    <contour>
      <point x="519" y="-88" type="curve" smooth="yes"/>
      <point x="519" y="-31"/>
      <point x="557" y="12"/>
      <point x="618" y="83" type="curve"/>
      <point x="509" y="59" type="line"/>
      <point x="420" y="-10"/>
      <point x="395" y="-68"/>
      <point x="395" y="-118" type="curve" smooth="yes"/>
      <point x="395" y="-197"/>
      <point x="454" y="-240"/>
      <point x="530" y="-240" type="curve" smooth="yes"/>
      <point x="566" y="-240"/>
      <point x="593" y="-234"/>
      <point x="615" y="-227" type="curve"/>
      <point x="615" y="-119" type="line"/>
      <point x="601" y="-125"/>
      <point x="574" y="-130"/>
      <point x="557" y="-130" type="curve" smooth="yes"/>
      <point x="534" y="-130"/>
      <point x="519" y="-121"/>
    </contour>
    <component base="U"/>
  </outline>
</glyph>
<glyph name="longs" format="2">
  <advance width="403"/>
  <unicode hex="017F"/>
  <anchor x="202" y="0" name="bottom"/>
  <anchor x="232" y="765" name="top"/>
  <outline>
    <contour>
      <point x="310" y="628" type="curve" smooth="yes"/>
      <point x="340" y="628"/>
      <point x="362" y="619"/>
      <point x="386" y="612" type="curve"/>
      <point x="423" y="739" type="line"/>
      <point x="389" y="753"/>
      <point x="338" y="765"/>
      <point x="269" y="765" type="curve" smooth="yes"/>
      <point x="145" y="765"/>
      <point x="66" y="732"/>
      <point x="66" y="559" type="curve" smooth="yes"/>
      <point x="66" y="0" type="line"/>
      <point x="257" y="0" type="line"/>
      <point x="257" y="555" type="line" smooth="yes"/>
      <point x="257" y="604"/>
      <point x="267" y="628"/>
    </contour>
  </outline>
</glyph>
<glyph name="uni0181" format="2">
  <advance width="830"/>
  <unicode hex="0181"/>
  <anchor x="418" y="0" name="bottom"/>
  <anchor x="418" y="714" name="top"/>
  <outline>
    <contour>
      <point x="228" y="0" type="line"/>
      <point x="516" y="0" type="line" smooth="yes"/>
      <point x="684" y="0"/>
      <point x="783" y="83"/>
      <point x="783" y="208" type="curve"/>
      <point x="783" y="326"/>
      <point x="724" y="360"/>
      <point x="672" y="374" type="curve"/>
      <point x="672" y="380" type="line"/>
      <point x="730" y="390"/>
      <point x="765" y="452"/>
      <point x="765" y="533" type="curve"/>
      <point x="765" y="673"/>
      <point x="658" y="714"/>
      <point x="461" y="714" type="curve"/>
      <point x="208" y="714" type="line"/>
      <point x="52" y="714"/>
      <point x="3" y="625"/>
      <point x="3" y="524" type="curve"/>
      <point x="3" y="495"/>
      <point x="11" y="474"/>
      <point x="16" y="465" type="curve"/>
      <point x="166" y="465" type="line"/>
      <point x="162" y="475"/>
      <point x="156" y="487"/>
      <point x="156" y="510" type="curve"/>
      <point x="156" y="533"/>
      <point x="171" y="554"/>
      <point x="202" y="554" type="curve"/>
      <point x="228" y="554" type="line"/>
    </contour>
    <contour>
      <point x="492" y="161" type="curve"/>
      <point x="424" y="161" type="line"/>
      <point x="424" y="293" type="line"/>
      <point x="490" y="293" type="line"/>
      <point x="566" y="293"/>
      <point x="580" y="262"/>
      <point x="580" y="230" type="curve"/>
      <point x="580" y="192"/>
      <point x="565" y="161"/>
    </contour>
    <contour>
      <point x="481" y="447" type="curve"/>
      <point x="424" y="447" type="line"/>
      <point x="424" y="554" type="line"/>
      <point x="475" y="554" type="line"/>
      <point x="539" y="554"/>
      <point x="564" y="541"/>
      <point x="564" y="504" type="curve"/>
      <point x="564" y="468"/>
      <point x="548" y="447"/>
    </contour>
  </outline>
</glyph>
<glyph name="uni0183" format="2">
  <advance width="650"/>
  <unicode hex="0183"/>
  <anchor x="325" y="0" name="bottom"/>
  <anchor x="325" y="760" name="top"/>
  <outline>
    <contour>
      <point x="408" y="-10" type="curve"/>
      <point x="521" y="-10"/>
      <point x="611" y="80"/>
      <point x="611" y="278" type="curve"/>
      <point x="611" y="479"/>
      <point x="523" y="548"/>
      <point x="413" y="548" type="curve"/>
      <point x="334" y="548"/>
      <point x="291" y="509"/>
      <point x="267" y="473" type="curve"/>
      <point x="260" y="473" type="line"/>
      <point x="262" y="491"/>
      <point x="267" y="526"/>
      <point x="267" y="575" type="curve"/>
      <point x="267" y="616" type="line"/>
      <point x="559" y="616" type="line"/>
      <point x="559" y="760" type="line"/>
      <point x="73" y="760" type="line"/>
      <point x="73" y="0" type="line"/>
      <point x="225" y="0" type="line"/>
      <point x="255" y="51" type="line"/>
      <point x="267" y="51" type="line"/>
      <point x="294" y="24"/>
      <point x="326" y="-10"/>
    </contour>
    <contour>
      <point x="347" y="146" type="curve"/>
      <point x="285" y="146"/>
      <point x="267" y="195"/>
      <point x="267" y="283" type="curve"/>
      <point x="267" y="288" type="line" smooth="yes"/>
      <point x="270" y="363"/>
      <point x="306" y="395"/>
      <point x="344" y="395" type="curve"/>
      <point x="383" y="395"/>
      <point x="413" y="366"/>
      <point x="413" y="280" type="curve"/>
      <point x="413" y="192"/>
      <point x="383" y="146"/>
    </contour>
  </outline>
</glyph>
<glyph name="uni0184" format="2">
  <advance width="688"/>
  <unicode hex="0184"/>
  <anchor x="344" y="0" name="bottom"/>
  <anchor x="344" y="714" name="top"/>
  <outline>
    <contour>
      <point x="362" y="-15" type="curve"/>
      <point x="558" y="-15"/>
      <point x="650" y="79"/>
      <point x="650" y="224" type="curve"/>
      <point x="650" y="353"/>
      <point x="557" y="458"/>
      <point x="339" y="458" type="curve"/>
      <point x="274" y="458" type="line"/>
      <point x="274" y="714" type="line"/>
      <point x="78" y="714" type="line"/>
      <point x="78" y="212" type="line" smooth="yes"/>
      <point x="78" y="50"/>
      <point x="182" y="-15"/>
    </contour>
    <contour>
      <point x="355" y="145" type="curve"/>
      <point x="302" y="145"/>
      <point x="274" y="170"/>
      <point x="274" y="220" type="curve"/>
      <point x="274" y="298" type="line"/>
      <point x="312" y="298" type="line"/>
      <point x="398" y="298"/>
      <point x="452" y="289"/>
      <point x="452" y="224" type="curve"/>
      <point x="452" y="166"/>
      <point x="410" y="145"/>
    </contour>
  </outline>
</glyph>
<glyph name="uni0185" format="2">
  <advance width="652"/>
  <unicode hex="0185"/>
  <anchor x="326" y="0" name="bottom"/>
  <anchor x="326" y="760" name="top"/>
  <outline>
    <contour>
      <point x="346" y="-10" type="curve"/>
      <point x="490" y="-10"/>
      <point x="612" y="74"/>
      <point x="612" y="276" type="curve"/>
      <point x="612" y="465"/>
      <point x="525" y="563"/>
      <point x="414" y="563" type="curve"/>
      <point x="336" y="563"/>
      <point x="289" y="525"/>
      <point x="263" y="489" type="curve"/>
      <point x="256" y="489" type="line"/>
      <point x="260" y="516"/>
      <point x="263" y="546"/>
      <point x="263" y="591" type="curve"/>
      <point x="263" y="760" type="line"/>
      <point x="69" y="760" type="line"/>
      <point x="69" y="271" type="line" smooth="yes"/>
      <point x="69" y="97"/>
      <point x="174" y="-10"/>
    </contour>
    <contour>
      <point x="341" y="145" type="curve"/>
      <point x="297" y="145"/>
      <point x="263" y="174"/>
      <point x="263" y="268" type="curve"/>
      <point x="263" y="302" type="line" smooth="yes"/>
      <point x="263" y="373"/>
      <point x="288" y="410"/>
      <point x="345" y="410" type="curve"/>
      <point x="384" y="410"/>
      <point x="415" y="366"/>
      <point x="415" y="276" type="curve"/>
      <point x="415" y="175"/>
      <point x="388" y="145"/>
    </contour>
  </outline>
</glyph>
<glyph name="uni0186" format="2">
  <advance width="649"/>
  <unicode hex="0186"/>
  <anchor x="275" y="0" name="bottom"/>
  <anchor x="275" y="714" name="top"/>
  <outline>
    <contour>
      <point x="250" y="-10" type="curve" smooth="yes"/>
      <point x="483" y="-10"/>
      <point x="598" y="151"/>
      <point x="598" y="368" type="curve" smooth="yes"/>
      <point x="598" y="584"/>
      <point x="490" y="724"/>
      <point x="267" y="724" type="curve" smooth="yes"/>
      <point x="198" y="724"/>
      <point x="107" y="709"/>
      <point x="34" y="674" type="curve"/>
      <point x="81" y="525" type="line"/>
      <point x="133" y="550"/>
      <point x="194" y="566"/>
      <point x="254" y="566" type="curve" smooth="yes"/>
      <point x="345" y="566"/>
      <point x="400" y="486"/>
      <point x="400" y="353" type="curve" smooth="yes"/>
      <point x="400" y="218"/>
      <point x="345" y="148"/>
      <point x="239" y="148" type="curve" smooth="yes"/>
      <point x="176" y="148"/>
      <point x="120" y="168"/>
      <point x="60" y="193" type="curve"/>
      <point x="60" y="30" type="line"/>
      <point x="119" y="5"/>
      <point x="179" y="-10"/>
    </contour>
  </outline>
</glyph>
<glyph name="uni0187" format="2">
  <advance width="644"/>
  <unicode hex="0187"/>
  <anchor x="379" y="0" name="bottom"/>
  <anchor x="365" y="874" name="top"/>
  <outline>
    <contour>
      <point x="633" y="888" type="curve"/>
      <point x="536" y="888"/>
      <point x="453" y="835"/>
      <point x="453" y="712" type="curve"/>
      <point x="453" y="717" type="line"/>
      <point x="432" y="721"/>
      <point x="410" y="724"/>
      <point x="388" y="724" type="curve" smooth="yes"/>
      <point x="168" y="724"/>
      <point x="56" y="570"/>
      <point x="56" y="355" type="curve" smooth="yes"/>
      <point x="56" y="135"/>
      <point x="150" y="-10"/>
      <point x="376" y="-10" type="curve" smooth="yes"/>
      <point x="454" y="-10"/>
      <point x="510" y="2"/>
      <point x="580" y="32" type="curve"/>
      <point x="580" y="197" type="line"/>
      <point x="504" y="169"/>
      <point x="448" y="152"/>
      <point x="391" y="152" type="curve" smooth="yes"/>
      <point x="294" y="152"/>
      <point x="258" y="221"/>
      <point x="258" y="354" type="curve" smooth="yes"/>
      <point x="258" y="485"/>
      <point x="303" y="562"/>
      <point x="387" y="562" type="curve" smooth="yes"/>
      <point x="437" y="562"/>
      <point x="492" y="535"/>
      <point x="545" y="511" type="curve"/>
      <point x="607" y="655" type="line"/>
      <point x="607" y="684" type="line" smooth="yes"/>
      <point x="607" y="721"/>
      <point x="624" y="735"/>
      <point x="653" y="735" type="curve"/>
      <point x="676" y="735"/>
      <point x="697" y="729"/>
      <point x="709" y="725" type="curve"/>
      <point x="709" y="872" type="line"/>
      <point x="698" y="878"/>
      <point x="665" y="888"/>
    </contour>
  </outline>
</glyph>
<glyph name="uni0188" format="2">
  <advance width="532"/>
  <unicode hex="0188"/>
  <anchor x="315" y="0" name="bottom"/>
  <anchor x="293" y="764" name="top"/>
  <outline>
    <contour>
      <point x="300" y="-10" type="curve"/>
      <point x="385" y="-10"/>
      <point x="429" y="3"/>
      <point x="480" y="38" type="curve"/>
      <point x="480" y="202" type="line"/>
      <point x="432" y="166"/>
      <point x="387" y="146"/>
      <point x="319" y="146" type="curve"/>
      <point x="270" y="146"/>
      <point x="237" y="177"/>
      <point x="237" y="275" type="curve"/>
      <point x="237" y="366"/>
      <point x="261" y="409"/>
      <point x="316" y="409" type="curve"/>
      <point x="358" y="409"/>
      <point x="397" y="393"/>
      <point x="444" y="372" type="curve"/>
      <point x="502" y="513" type="line"/>
      <point x="502" y="559" type="line" smooth="yes"/>
      <point x="502" y="596"/>
      <point x="519" y="610"/>
      <point x="548" y="610" type="curve"/>
      <point x="571" y="610"/>
      <point x="592" y="604"/>
      <point x="604" y="600" type="curve"/>
      <point x="604" y="747" type="line"/>
      <point x="593" y="753"/>
      <point x="561" y="764"/>
      <point x="529" y="764" type="curve"/>
      <point x="423" y="764"/>
      <point x="348" y="711"/>
      <point x="348" y="564" type="curve"/>
      <point x="348" y="561" type="line"/>
      <point x="338" y="563"/>
      <point x="326" y="563"/>
      <point x="315" y="563" type="curve"/>
      <point x="158" y="563"/>
      <point x="39" y="488"/>
      <point x="39" y="274" type="curve"/>
      <point x="39" y="67"/>
      <point x="135" y="-10"/>
    </contour>
  </outline>
</glyph>
<glyph name="uni018A" format="2">
  <advance width="893"/>
  <unicode hex="018A"/>
  <anchor x="449" y="0" name="bottom"/>
  <anchor x="449" y="714" name="top"/>
  <outline>
    <contour>
      <point x="228" y="0" type="line"/>
      <point x="444" y="0" type="line" smooth="yes"/>
      <point x="691" y="0"/>
      <point x="842" y="123"/>
      <point x="842" y="364" type="curve"/>
      <point x="842" y="593"/>
      <point x="688" y="714"/>
      <point x="466" y="714" type="curve"/>
      <point x="208" y="714" type="line"/>
      <point x="52" y="714"/>
      <point x="3" y="625"/>
      <point x="3" y="524" type="curve"/>
      <point x="3" y="495"/>
      <point x="11" y="474"/>
      <point x="16" y="465" type="curve"/>
      <point x="166" y="465" type="line"/>
      <point x="162" y="475"/>
      <point x="156" y="487"/>
      <point x="156" y="510" type="curve"/>
      <point x="156" y="533"/>
      <point x="171" y="554"/>
      <point x="202" y="554" type="curve"/>
      <point x="228" y="554" type="line"/>
    </contour>
    <contour>
      <point x="465" y="161" type="curve"/>
      <point x="424" y="161" type="line"/>
      <point x="424" y="554" type="line"/>
      <point x="483" y="554" type="line"/>
      <point x="584" y="554"/>
      <point x="639" y="496"/>
      <point x="639" y="359" type="curve"/>
      <point x="639" y="228"/>
      <point x="584" y="161"/>
    </contour>
  </outline>
</glyph>
<glyph name="uni018B" format="2">
  <advance width="643"/>
  <unicode hex="018B"/>
  <anchor x="322" y="0" name="bottom"/>
  <anchor x="322" y="714" name="top"/>
  <outline>
    <contour>
      <point x="313" y="0" type="curve" smooth="yes"/>
      <point x="566" y="0" type="line"/>
      <point x="566" y="714" type="line"/>
      <point x="99" y="714" type="line"/>
      <point x="99" y="554" type="line"/>
      <point x="373" y="554" type="line"/>
      <point x="373" y="462" type="line"/>
      <point x="313" y="462" type="line" smooth="yes"/>
      <point x="130" y="462"/>
      <point x="35" y="356"/>
      <point x="35" y="226" type="curve" smooth="yes"/>
      <point x="35" y="76"/>
      <point x="132" y="0"/>
    </contour>
    <contour>
      <point x="320" y="153" type="line"/>
      <point x="257" y="153"/>
      <point x="228" y="177"/>
      <point x="228" y="229" type="curve" smooth="yes"/>
      <point x="228" y="278"/>
      <point x="266" y="309"/>
      <point x="316" y="309" type="curve" smooth="yes"/>
      <point x="373" y="309" type="line"/>
      <point x="373" y="153" type="line"/>
    </contour>
  </outline>
</glyph>
<glyph name="uni018C" format="2">
  <advance width="650"/>
  <unicode hex="018C"/>
  <anchor x="325" y="0" name="bottom"/>
  <anchor x="325" y="760" name="top"/>
  <outline>
    <contour>
      <point x="236" y="-10" type="curve"/>
      <point x="316" y="-10"/>
      <point x="359" y="28"/>
      <point x="383" y="66" type="curve"/>
      <point x="389" y="66" type="line"/>
      <point x="426" y="0" type="line"/>
      <point x="577" y="0" type="line"/>
      <point x="577" y="760" type="line"/>
      <point x="91" y="760" type="line"/>
      <point x="91" y="616" type="line"/>
      <point x="383" y="616" type="line"/>
      <point x="383" y="578" type="line" smooth="yes"/>
      <point x="383" y="533"/>
      <point x="398" y="456"/>
      <point x="397" y="474" type="curve"/>
      <point x="391" y="474" type="line"/>
      <point x="368" y="509"/>
      <point x="321" y="548"/>
      <point x="242" y="548" type="curve"/>
      <point x="127" y="548"/>
      <point x="39" y="451"/>
      <point x="39" y="278" type="curve"/>
      <point x="39" y="89"/>
      <point x="125" y="-10"/>
    </contour>
    <contour>
      <point x="312" y="143" type="curve"/>
      <point x="266" y="143"/>
      <point x="235" y="188"/>
      <point x="235" y="275" type="curve"/>
      <point x="235" y="350"/>
      <point x="266" y="393"/>
      <point x="309" y="393" type="curve"/>
      <point x="376" y="393"/>
      <point x="397" y="348"/>
      <point x="397" y="273" type="curve"/>
      <point x="397" y="254" type="line" smooth="yes"/>
      <point x="394" y="176"/>
      <point x="371" y="143"/>
    </contour>
  </outline>
</glyph>
<glyph name="uni018E" format="2">
  <advance width="549"/>
  <unicode hex="018E"/>
  <anchor x="266" y="0" name="bottom"/>
  <anchor x="260" y="714" name="top"/>
  <anchor x="500" y="714" name="topright"/>
  <outline>
    <contour>
      <point x="48" y="0" type="line"/>
      <point x="472" y="0" type="line"/>
      <point x="472" y="714" type="line"/>
      <point x="48" y="714" type="line"/>
      <point x="48" y="559" type="line"/>
      <point x="279" y="559" type="line"/>
      <point x="279" y="447" type="line"/>
      <point x="65" y="447" type="line"/>
      <point x="65" y="292" type="line"/>
      <point x="279" y="292" type="line"/>
      <point x="279" y="157" type="line"/>
      <point x="48" y="157" type="line"/>
    </contour>
  </outline>
</glyph>
<glyph name="uni0190" format="2">
  <advance width="636"/>
  <unicode hex="0190"/>
  <anchor x="318" y="0" name="bottom"/>
  <anchor x="318" y="714" name="top"/>
  <outline>
    <contour>
      <point x="331" y="726" type="curve"/>
      <point x="156" y="726"/>
      <point x="65" y="647"/>
      <point x="65" y="536" type="curve"/>
      <point x="65" y="431"/>
      <point x="140" y="386"/>
      <point x="240" y="374" type="curve"/>
      <point x="240" y="371" type="line"/>
      <point x="113" y="365"/>
      <point x="36" y="298"/>
      <point x="36" y="197" type="curve" smooth="yes"/>
      <point x="36" y="77"/>
      <point x="123" y="-12"/>
      <point x="330" y="-12" type="curve"/>
      <point x="443" y="-12"/>
      <point x="528" y="2"/>
      <point x="587" y="26" type="curve"/>
      <point x="587" y="188" type="line"/>
      <point x="529" y="158"/>
      <point x="444" y="141"/>
      <point x="379" y="141" type="curve"/>
      <point x="264" y="141"/>
      <point x="230" y="173"/>
      <point x="230" y="221" type="curve"/>
      <point x="230" y="275"/>
      <point x="307" y="296"/>
      <point x="431" y="296" type="curve"/>
      <point x="477" y="296" type="line"/>
      <point x="477" y="446" type="line"/>
      <point x="443" y="446" type="line" smooth="yes"/>
      <point x="296" y="446"/>
      <point x="254" y="474"/>
      <point x="254" y="515" type="curve"/>
      <point x="254" y="546"/>
      <point x="284" y="570"/>
      <point x="355" y="570" type="curve"/>
      <point x="423" y="570"/>
      <point x="480" y="546"/>
      <point x="527" y="517" type="curve"/>
      <point x="606" y="646" type="line"/>
      <point x="531" y="694"/>
      <point x="453" y="726"/>
    </contour>
  </outline>
</glyph>
<glyph name="uni0191" format="2">
  <advance width="704"/>
  <unicode hex="0191"/>
  <anchor x="205" y="0" name="bottom"/>
  <anchor x="448" y="714" name="top"/>
  <anchor x="679" y="714" name="topright"/>
  <outline>
    <contour>
      <point x="213" y="-242" type="curve" smooth="yes"/>
      <point x="337" y="-242"/>
      <point x="437" y="-177"/>
      <point x="437" y="-32" type="curve" smooth="yes"/>
      <point x="437" y="285" type="line"/>
      <point x="627" y="285" type="line"/>
      <point x="627" y="444" type="line"/>
      <point x="437" y="444" type="line"/>
      <point x="437" y="555" type="line"/>
      <point x="644" y="555" type="line"/>
      <point x="644" y="714" type="line"/>
      <point x="247" y="714" type="line"/>
      <point x="247" y="-35" type="line" smooth="yes"/>
      <point x="247" y="-82"/>
      <point x="226" y="-106"/>
      <point x="193" y="-106" type="curve" smooth="yes"/>
      <point x="164" y="-106"/>
      <point x="142" y="-88"/>
      <point x="142" y="-53" type="curve" smooth="yes"/>
      <point x="142" y="-32"/>
      <point x="146" y="-17"/>
      <point x="156" y="4" type="curve"/>
      <point x="20" y="52" type="line"/>
      <point x="3" y="28"/>
      <point x="-12" y="-7"/>
      <point x="-12" y="-50" type="curve" smooth="yes"/>
      <point x="-12" y="-167"/>
      <point x="66" y="-242"/>
    </contour>
  </outline>
</glyph>
<glyph name="florin" format="2">
  <advance width="553"/>
  <unicode hex="0192"/>
  <anchor x="199" y="0" name="bottom"/>
  <anchor x="416" y="765" name="top"/>
  <anchor x="572" y="765" name="topright"/>
  <outline>
    <contour>
      <point x="204" y="-242" type="curve" smooth="yes"/>
      <point x="327" y="-242"/>
      <point x="426" y="-183"/>
      <point x="426" y="-40" type="curve" smooth="yes"/>
      <point x="426" y="410" type="line"/>
      <point x="544" y="410" type="line"/>
      <point x="544" y="553" type="line"/>
      <point x="426" y="553" type="line"/>
      <point x="426" y="568" type="line" smooth="yes"/>
      <point x="426" y="608"/>
      <point x="439" y="625"/>
      <point x="468" y="625" type="curve" smooth="yes"/>
      <point x="495" y="625"/>
      <point x="518" y="620"/>
      <point x="537" y="615" type="curve"/>
      <point x="578" y="739" type="line"/>
      <point x="527" y="756"/>
      <point x="484" y="765"/>
      <point x="427" y="765" type="curve" smooth="yes"/>
      <point x="293" y="765"/>
      <point x="239" y="703"/>
      <point x="239" y="560" type="curve" smooth="yes"/>
      <point x="239" y="551" type="line"/>
      <point x="162" y="504" type="line"/>
      <point x="162" y="410" type="line"/>
      <point x="235" y="410" type="line"/>
      <point x="235" y="-41" type="line" smooth="yes"/>
      <point x="235" y="-84"/>
      <point x="218" y="-106"/>
      <point x="189" y="-106" type="curve" smooth="yes"/>
      <point x="166" y="-106"/>
      <point x="149" y="-91"/>
      <point x="149" y="-62" type="curve" smooth="yes"/>
      <point x="149" y="-42"/>
      <point x="153" y="-27"/>
      <point x="162" y="-7" type="curve"/>
      <point x="22" y="40" type="line"/>
      <point x="8" y="17"/>
      <point x="-5" y="-17"/>
      <point x="-5" y="-59" type="curve" smooth="yes"/>
      <point x="-5" y="-171"/>
      <point x="63" y="-242"/>
    </contour>
  </outline>
</glyph>
<glyph name="uni0193" format="2">
  <advance width="724"/>
  <unicode hex="0193"/>
  <anchor x="382" y="0" name="bottom"/>
  <anchor x="422" y="864" name="top"/>
  <outline>
    <contour>
      <point x="673" y="888" type="curve"/>
      <point x="577" y="888"/>
      <point x="493" y="837"/>
      <point x="493" y="714" type="curve"/>
      <point x="493" y="722" type="line"/>
      <point x="473" y="723"/>
      <point x="453" y="724"/>
      <point x="433" y="724" type="curve"/>
      <point x="191" y="724"/>
      <point x="56" y="591"/>
      <point x="56" y="359" type="curve"/>
      <point x="56" y="115"/>
      <point x="174" y="-10"/>
      <point x="380" y="-10" type="curve"/>
      <point x="489" y="-10"/>
      <point x="566" y="6"/>
      <point x="644" y="30" type="curve"/>
      <point x="644" y="419" type="line"/>
      <point x="352" y="419" type="line"/>
      <point x="352" y="258" type="line"/>
      <point x="452" y="258" type="line"/>
      <point x="452" y="155" type="line"/>
      <point x="435" y="156"/>
      <point x="420" y="153"/>
      <point x="388" y="153" type="curve"/>
      <point x="288" y="153"/>
      <point x="258" y="247"/>
      <point x="258" y="354" type="curve"/>
      <point x="258" y="479"/>
      <point x="328" y="561"/>
      <point x="433" y="561" type="curve"/>
      <point x="491" y="561"/>
      <point x="547" y="543"/>
      <point x="583" y="524" type="curve"/>
      <point x="648" y="666" type="line"/>
      <point x="648" y="684" type="line" smooth="yes"/>
      <point x="648" y="721"/>
      <point x="664" y="735"/>
      <point x="693" y="735" type="curve"/>
      <point x="716" y="735"/>
      <point x="737" y="729"/>
      <point x="749" y="725" type="curve"/>
      <point x="749" y="872" type="line"/>
      <point x="738" y="878"/>
      <point x="705" y="888"/>
    </contour>
  </outline>
</glyph>
<glyph name="uni0194" format="2">
  <advance width="672"/>
  <unicode hex="0194"/>
  <anchor x="336" y="-240" name="bottom"/>
  <anchor x="336" y="714" name="top"/>
  <outline>
    <contour>
      <point x="334" y="-240" type="curve" smooth="yes"/>
      <point x="445" y="-240"/>
      <point x="508" y="-169"/>
      <point x="508" y="-70" type="curve" smooth="yes"/>
      <point x="508" y="13"/>
      <point x="466" y="84"/>
      <point x="427" y="150" type="curve"/>
      <point x="686" y="714" type="line"/>
      <point x="480" y="714" type="line"/>
      <point x="373" y="441" type="line" smooth="yes"/>
      <point x="356" y="399"/>
      <point x="346" y="370"/>
      <point x="335" y="325" type="curve"/>
      <point x="326" y="369"/>
      <point x="317" y="398"/>
      <point x="301" y="443" type="curve" smooth="yes"/>
      <point x="206" y="714" type="line"/>
      <point x="0" y="714" type="line"/>
      <point x="239" y="153" type="line"/>
      <point x="201" y="79"/>
      <point x="163" y="7"/>
      <point x="163" y="-69" type="curve" smooth="yes"/>
      <point x="163" y="-174"/>
      <point x="223" y="-240"/>
    </contour>
    <contour>
      <point x="335" y="-106" type="curve" smooth="yes"/>
      <point x="317" y="-106"/>
      <point x="307" y="-91"/>
      <point x="307" y="-61" type="curve" smooth="yes"/>
      <point x="307" y="-30"/>
      <point x="317" y="4"/>
      <point x="335" y="35" type="curve"/>
      <point x="354" y="1"/>
      <point x="364" y="-33"/>
      <point x="364" y="-60" type="curve" smooth="yes"/>
      <point x="364" y="-92"/>
      <point x="353" y="-106"/>
    </contour>
  </outline>
</glyph>
<glyph name="uni0195" format="2">
  <advance width="1021"/>
  <unicode hex="0195"/>
  <anchor x="511" y="0" name="bottom"/>
  <anchor x="511" y="553" name="top"/>
  <outline>
    <contour>
      <point x="683" y="-15" type="curve"/>
      <point x="863" y="-15"/>
      <point x="951" y="70"/>
      <point x="951" y="255" type="curve"/>
      <point x="951" y="548" type="line"/>
      <point x="756" y="548" type="line"/>
      <point x="756" y="272" type="line" smooth="yes"/>
      <point x="756" y="174"/>
      <point x="734" y="140"/>
      <point x="680" y="140" type="curve"/>
      <point x="633" y="140"/>
      <point x="608" y="172"/>
      <point x="608" y="238" type="curve"/>
      <point x="608" y="353" type="line" smooth="yes"/>
      <point x="608" y="500"/>
      <point x="524" y="563"/>
      <point x="412" y="563" type="curve"/>
      <point x="352" y="563"/>
      <point x="301" y="537"/>
      <point x="268" y="488" type="curve"/>
      <point x="258" y="488" type="line"/>
      <point x="264" y="540"/>
      <point x="267" y="593"/>
      <point x="267" y="645" type="curve"/>
      <point x="267" y="760" type="line"/>
      <point x="73" y="760" type="line"/>
      <point x="73" y="0" type="line"/>
      <point x="267" y="0" type="line"/>
      <point x="267" y="241" type="line" smooth="yes"/>
      <point x="267" y="347"/>
      <point x="287" y="410"/>
      <point x="351" y="410" type="curve"/>
      <point x="393" y="410"/>
      <point x="414" y="373"/>
      <point x="414" y="308" type="curve"/>
      <point x="414" y="207" type="line" smooth="yes"/>
      <point x="414" y="53"/>
      <point x="492" y="-15"/>
    </contour>
  </outline>
</glyph>
<glyph name="uni0196" format="2">
  <advance width="442"/>
  <unicode hex="0196"/>
  <anchor x="241" y="0" name="bottom"/>
  <anchor x="187" y="714" name="top"/>
  <outline>
    <contour>
      <point x="285" y="-10" type="curve"/>
      <point x="345" y="-10"/>
      <point x="399" y="3"/>
      <point x="434" y="20" type="curve"/>
      <point x="434" y="172" type="line"/>
      <point x="403" y="160"/>
      <point x="380" y="153"/>
      <point x="344" y="153" type="curve"/>
      <point x="314" y="153"/>
      <point x="290" y="176"/>
      <point x="290" y="211" type="curve"/>
      <point x="290" y="714" type="line"/>
      <point x="83" y="714" type="line"/>
      <point x="83" y="196" type="line" smooth="yes"/>
      <point x="83" y="32"/>
      <point x="175" y="-10"/>
    </contour>
  </outline>
</glyph>
<glyph name="uni0197" format="2">
  <advance width="427"/>
  <unicode hex="0197"/>
  <anchor x="214" y="0" name="bottom"/>
  <anchor x="214" y="714" name="top"/>
  <outline>
    <contour>
      <point x="405" y="714" type="line"/>
      <point x="23" y="714" type="line"/>
      <point x="23" y="604" type="line"/>
      <point x="115" y="550" type="line"/>
      <point x="115" y="432" type="line"/>
      <point x="23" y="432" type="line"/>
      <point x="23" y="270" type="line"/>
      <point x="115" y="270" type="line"/>
      <point x="115" y="164" type="line"/>
      <point x="23" y="110" type="line"/>
      <point x="23" y="0" type="line"/>
      <point x="405" y="0" type="line"/>
      <point x="405" y="110" type="line"/>
      <point x="312" y="164" type="line"/>
      <point x="312" y="270" type="line"/>
      <point x="405" y="270" type="line"/>
      <point x="405" y="432" type="line"/>
      <point x="312" y="432" type="line"/>
      <point x="312" y="550" type="line"/>
      <point x="405" y="604" type="line"/>
    </contour>
  </outline>
</glyph>
<glyph name="uni0198" format="2">
  <advance width="701"/>
  <unicode hex="0198"/>
  <anchor x="351" y="0" name="bottom"/>
  <anchor x="351" y="714" name="top"/>
  <outline>
    <contour>
      <point x="585" y="727" type="curve"/>
      <point x="487" y="727"/>
      <point x="425" y="651"/>
      <point x="369" y="558" type="curve" smooth="yes"/>
      <point x="339" y="508" type="line" smooth="yes"/>
      <point x="320" y="476"/>
      <point x="298" y="436"/>
      <point x="281" y="404" type="curve"/>
      <point x="281" y="714" type="line"/>
      <point x="85" y="714" type="line"/>
      <point x="85" y="0" type="line"/>
      <point x="281" y="0" type="line"/>
      <point x="281" y="238" type="line"/>
      <point x="332" y="267" type="line"/>
      <point x="479" y="0" type="line"/>
      <point x="701" y="0" type="line"/>
      <point x="471" y="392" type="line"/>
      <point x="555" y="528" type="line" smooth="yes"/>
      <point x="568" y="548"/>
      <point x="595" y="568"/>
      <point x="624" y="568" type="curve"/>
      <point x="646" y="568"/>
      <point x="665" y="562"/>
      <point x="677" y="557" type="curve"/>
      <point x="677" y="708" type="line"/>
      <point x="659" y="717"/>
      <point x="628" y="727"/>
    </contour>
  </outline>
</glyph>
<glyph name="uni0199" format="2">
  <advance width="681"/>
  <unicode hex="0199"/>
  <anchor x="341" y="0" name="bottom"/>
  <anchor x="341" y="768" name="top"/>
  <outline>
    <contour>
      <point x="275" y="768" type="curve"/>
      <point x="156" y="768"/>
      <point x="73" y="717"/>
      <point x="73" y="572" type="curve"/>
      <point x="73" y="0" type="line"/>
      <point x="267" y="0" type="line"/>
      <point x="267" y="161" type="line"/>
      <point x="321" y="200" type="line"/>
      <point x="458" y="0" type="line"/>
      <point x="681" y="0" type="line"/>
      <point x="450" y="311" type="line"/>
      <point x="670" y="553" type="line"/>
      <point x="453" y="553" type="line"/>
      <point x="326" y="416" type="line"/>
      <point x="300" y="389"/>
      <point x="276" y="356"/>
      <point x="259" y="326" type="curve"/>
      <point x="257" y="326" type="line"/>
      <point x="262" y="362"/>
      <point x="267" y="401"/>
      <point x="267" y="439" type="curve"/>
      <point x="267" y="569" type="line" smooth="yes"/>
      <point x="267" y="604"/>
      <point x="283" y="615"/>
      <point x="308" y="615" type="curve"/>
      <point x="330" y="615"/>
      <point x="353" y="609"/>
      <point x="363" y="605" type="curve"/>
      <point x="363" y="750" type="line"/>
      <point x="348" y="757"/>
      <point x="311" y="768"/>
    </contour>
  </outline>
</glyph>
<glyph name="uni019A" format="2">
  <advance width="323"/>
  <unicode hex="019A"/>
  <anchor x="162" y="0" name="bottom"/>
  <anchor x="162" y="760" name="top"/>
  <outline>
    <contour>
      <point x="66" y="0" type="line"/>
      <point x="257" y="0" type="line"/>
      <point x="257" y="298" type="line"/>
      <point x="317" y="298" type="line"/>
      <point x="317" y="430" type="line"/>
      <point x="257" y="430" type="line"/>
      <point x="257" y="760" type="line"/>
      <point x="66" y="760" type="line"/>
      <point x="66" y="430" type="line"/>
      <point x="7" y="430" type="line"/>
      <point x="7" y="298" type="line"/>
      <point x="66" y="298" type="line"/>
    </contour>
  </outline>
</glyph>
<glyph name="uni019B" format="2">
  <advance width="665"/>
  <unicode hex="019B"/>
  <anchor x="333" y="0" name="bottom"/>
  <anchor x="333" y="766" name="top"/>
  <outline>
    <contour>
      <point x="0" y="0" type="line"/>
      <point x="198" y="0" type="line"/>
      <point x="286" y="224" type="line" smooth="yes"/>
      <point x="295" y="246"/>
      <point x="306" y="280"/>
      <point x="315" y="312" type="curve"/>
      <point x="319" y="312" type="line"/>
      <point x="323" y="289"/>
      <point x="331" y="259"/>
      <point x="345" y="219" type="curve" smooth="yes"/>
      <point x="376" y="132" type="line" smooth="yes"/>
      <point x="408" y="41"/>
      <point x="459" y="-7"/>
      <point x="562" y="-7" type="curve" smooth="yes"/>
      <point x="610" y="-7"/>
      <point x="639" y="2"/>
      <point x="656" y="9" type="curve"/>
      <point x="656" y="145" type="line"/>
      <point x="644" y="142"/>
      <point x="631" y="140"/>
      <point x="616" y="140" type="curve" smooth="yes"/>
      <point x="580" y="140"/>
      <point x="559" y="150"/>
      <point x="535" y="217" type="curve" smooth="yes"/>
      <point x="407" y="575" type="line"/>
      <point x="480" y="598" type="line"/>
      <point x="448" y="703" type="line"/>
      <point x="360" y="673" type="line"/>
      <point x="319" y="741"/>
      <point x="257" y="766"/>
      <point x="159" y="766" type="curve" smooth="yes"/>
      <point x="135" y="766"/>
      <point x="85" y="762"/>
      <point x="67" y="758" type="curve"/>
      <point x="67" y="623" type="line"/>
      <point x="88" y="628"/>
      <point x="106" y="631"/>
      <point x="127" y="631" type="curve" smooth="yes"/>
      <point x="151" y="631"/>
      <point x="174" y="625"/>
      <point x="185" y="613" type="curve"/>
      <point x="107" y="592" type="line"/>
      <point x="139" y="492" type="line"/>
      <point x="236" y="522" type="line"/>
      <point x="238" y="516" type="line"/>
    </contour>
  </outline>
</glyph>
<glyph name="uni019C" format="2">
  <advance width="1057"/>
  <unicode hex="019C"/>
  <anchor x="529" y="0" name="bottom"/>
  <anchor x="529" y="714" name="top"/>
  <outline>
    <contour>
      <point x="286" y="-10" type="curve"/>
      <point x="349" y="-10"/>
      <point x="407" y="15"/>
      <point x="446" y="69" type="curve"/>
      <point x="455" y="69" type="line"/>
      <point x="491" y="18"/>
      <point x="543" y="-10"/>
      <point x="614" y="-10" type="curve"/>
      <point x="677" y="-10"/>
      <point x="744" y="17"/>
      <point x="782" y="74" type="curve"/>
      <point x="793" y="74" type="line"/>
      <point x="819" y="0" type="line"/>
      <point x="967" y="0" type="line"/>
      <point x="967" y="714" type="line"/>
      <point x="769" y="714" type="line"/>
      <point x="769" y="318" type="line" smooth="yes"/>
      <point x="769" y="217"/>
      <point x="751" y="153"/>
      <point x="679" y="153" type="curve"/>
      <point x="639" y="153"/>
      <point x="622" y="186"/>
      <point x="622" y="249" type="curve"/>
      <point x="622" y="714" type="line"/>
      <point x="426" y="714" type="line"/>
      <point x="426" y="304" type="line" smooth="yes"/>
      <point x="426" y="211"/>
      <point x="403" y="153"/>
      <point x="336" y="153" type="curve"/>
      <point x="298" y="153"/>
      <point x="280" y="187"/>
      <point x="280" y="249" type="curve"/>
      <point x="280" y="714" type="line"/>
      <point x="83" y="714" type="line"/>
      <point x="83" y="188" type="line" smooth="yes"/>
      <point x="83" y="46"/>
      <point x="169" y="-10"/>
    </contour>
  </outline>
</glyph>
<glyph name="uni019D" format="2">
  <advance width="854"/>
  <unicode hex="019D"/>
  <anchor x="427" y="-267" name="bottom"/>
  <anchor x="427" y="714" name="top"/>
  <outline>
    <contour>
      <point x="63" y="-267" type="curve"/>
      <point x="179" y="-267"/>
      <point x="259" y="-210"/>
      <point x="259" y="-68" type="curve"/>
      <point x="259" y="279" type="line" smooth="yes"/>
      <point x="259" y="368"/>
      <point x="252" y="460"/>
      <point x="249" y="498" type="curve"/>
      <point x="253" y="498" type="line"/>
      <point x="513" y="0" type="line"/>
      <point x="769" y="0" type="line"/>
      <point x="769" y="714" type="line"/>
      <point x="594" y="714" type="line"/>
      <point x="594" y="434" type="line" smooth="yes"/>
      <point x="594" y="360"/>
      <point x="601" y="244"/>
      <point x="602" y="223" type="curve"/>
      <point x="599" y="223" type="line"/>
      <point x="339" y="714" type="line"/>
      <point x="85" y="714" type="line"/>
      <point x="85" y="-61" type="line"/>
      <point x="85" y="-98"/>
      <point x="63" y="-115"/>
      <point x="37" y="-115" type="curve"/>
      <point x="14" y="-115"/>
      <point x="-9" y="-108"/>
      <point x="-18" y="-105" type="curve"/>
      <point x="-18" y="-250" type="line"/>
      <point x="-4" y="-256"/>
      <point x="26" y="-267"/>
    </contour>
  </outline>
</glyph>
<glyph name="Ohorn" format="2">
  <advance width="845"/>
  <unicode hex="01A0"/>
  <anchor x="398" y="0" name="bottom"/>
  <anchor x="402" y="714" name="top"/>
  <outline>
    <contour>
      <point x="746" y="358" type="curve" smooth="yes"/>
      <point x="746" y="419"/>
      <point x="740" y="472"/>
      <point x="727" y="521" type="curve"/>
      <point x="811" y="557"/>
      <point x="858" y="619"/>
      <point x="885" y="749" type="curve"/>
      <point x="878" y="760" type="line"/>
      <point x="695" y="760" type="line"/>
      <point x="695" y="699"/>
      <point x="680" y="662"/>
      <point x="663" y="630" type="curve"/>
      <point x="608" y="691"/>
      <point x="520" y="725"/>
      <point x="401" y="725" type="curve" smooth="yes"/>
      <point x="160" y="725"/>
      <point x="51" y="581"/>
      <point x="51" y="359" type="curve" smooth="yes"/>
      <point x="51" y="136"/>
      <point x="159" y="-10"/>
      <point x="398" y="-10" type="curve" smooth="yes"/>
      <point x="643" y="-10"/>
      <point x="746" y="137"/>
    </contour>
    <contour>
      <point x="254" y="358" type="curve" smooth="yes"/>
      <point x="254" y="488"/>
      <point x="296" y="567"/>
      <point x="399" y="567" type="curve" smooth="yes"/>
      <point x="503" y="567"/>
      <point x="543" y="488"/>
      <point x="543" y="358" type="curve" smooth="yes"/>
      <point x="543" y="229"/>
      <point x="503" y="151"/>
      <point x="398" y="151" type="curve" smooth="yes"/>
      <point x="296" y="151"/>
      <point x="254" y="229"/>
    </contour>
  </outline>
</glyph>
<glyph name="ohorn" format="2">
  <advance width="722"/>
  <unicode hex="01A1"/>
  <anchor x="318" y="0" name="bottom"/>
  <anchor x="321" y="553" name="top"/>
  <outline>
    <contour>
      <point x="594" y="278" type="curve" smooth="yes"/>
      <point x="594" y="324"/>
      <point x="588" y="364"/>
      <point x="576" y="400" type="curve"/>
      <point x="709" y="435"/>
      <point x="740" y="523"/>
      <point x="758" y="624" type="curve"/>
      <point x="751" y="635" type="line"/>
      <point x="567" y="635" type="line"/>
      <point x="567" y="563"/>
      <point x="548" y="512"/>
      <point x="516" y="497" type="curve"/>
      <point x="468" y="541"/>
      <point x="395" y="563"/>
      <point x="320" y="563" type="curve" smooth="yes"/>
      <point x="147" y="563"/>
      <point x="42" y="461"/>
      <point x="42" y="278" type="curve" smooth="yes"/>
      <point x="42" y="93"/>
      <point x="157" y="-10"/>
      <point x="317" y="-10" type="curve" smooth="yes"/>
      <point x="489" y="-10"/>
      <point x="594" y="93"/>
    </contour>
    <contour>
      <point x="237" y="278" type="curve" smooth="yes"/>
      <point x="237" y="368"/>
      <point x="260" y="411"/>
      <point x="318" y="411" type="curve" smooth="yes"/>
      <point x="377" y="411"/>
      <point x="400" y="368"/>
      <point x="400" y="278" type="curve" smooth="yes"/>
      <point x="400" y="188"/>
      <point x="376" y="142"/>
      <point x="319" y="142" type="curve" smooth="yes"/>
      <point x="260" y="142"/>
      <point x="237" y="188"/>
    </contour>
  </outline>
</glyph>
<glyph name="uni01A2" format="2">
  <advance width="1161"/>
  <unicode hex="01A2"/>
  <anchor x="581" y="0" name="bottom"/>
  <anchor x="581" y="714" name="top"/>
  <outline>
    <contour>
      <point x="739" y="358" type="curve"/>
      <point x="739" y="426"/>
      <point x="730" y="488"/>
      <point x="709" y="540" type="curve"/>
      <point x="729" y="550"/>
      <point x="752" y="563"/>
      <point x="802" y="563" type="curve"/>
      <point x="855" y="563"/>
      <point x="883" y="528"/>
      <point x="883" y="465" type="curve"/>
      <point x="883" y="0" type="line"/>
      <point x="1080" y="0" type="line"/>
      <point x="1080" y="481" type="line" smooth="yes"/>
      <point x="1080" y="654"/>
      <point x="984" y="725"/>
      <point x="859" y="725" type="curve"/>
      <point x="762" y="725"/>
      <point x="696" y="688"/>
      <point x="643" y="640" type="curve"/>
      <point x="588" y="694"/>
      <point x="507" y="725"/>
      <point x="398" y="725" type="curve"/>
      <point x="159" y="725"/>
      <point x="56" y="581"/>
      <point x="56" y="359" type="curve"/>
      <point x="56" y="131"/>
      <point x="159" y="-10"/>
      <point x="397" y="-10" type="curve"/>
      <point x="636" y="-10"/>
      <point x="739" y="131"/>
    </contour>
    <contour>
      <point x="262" y="358" type="curve"/>
      <point x="262" y="490"/>
      <point x="300" y="564"/>
      <point x="398" y="564" type="curve"/>
      <point x="502" y="564"/>
      <point x="533" y="483"/>
      <point x="533" y="358" type="curve"/>
      <point x="533" y="228"/>
      <point x="496" y="153"/>
      <point x="397" y="153" type="curve"/>
      <point x="301" y="153"/>
      <point x="262" y="227"/>
    </contour>
  </outline>
</glyph>
<glyph name="uni01A3" format="2">
  <advance width="964"/>
  <unicode hex="01A3"/>
  <anchor x="486" y="-240" name="bottom"/>
  <anchor x="486" y="553" name="top"/>
  <outline>
    <contour>
      <point x="566" y="278" type="curve"/>
      <point x="566" y="316"/>
      <point x="561" y="350"/>
      <point x="555" y="381" type="curve"/>
      <point x="571" y="402"/>
      <point x="594" y="410"/>
      <point x="629" y="410" type="curve"/>
      <point x="683" y="410"/>
      <point x="706" y="371"/>
      <point x="706" y="303" type="curve"/>
      <point x="706" y="-240" type="line"/>
      <point x="900" y="-240" type="line"/>
      <point x="900" y="356" type="line" smooth="yes"/>
      <point x="900" y="503"/>
      <point x="813" y="563"/>
      <point x="689" y="563" type="curve"/>
      <point x="615" y="563"/>
      <point x="550" y="542"/>
      <point x="500" y="478" type="curve"/>
      <point x="451" y="537"/>
      <point x="385" y="563"/>
      <point x="304" y="563" type="curve"/>
      <point x="144" y="563"/>
      <point x="39" y="466"/>
      <point x="39" y="278" type="curve"/>
      <point x="39" y="81"/>
      <point x="151" y="-10"/>
      <point x="301" y="-10" type="curve"/>
      <point x="460" y="-10"/>
      <point x="566" y="87"/>
    </contour>
    <contour>
      <point x="237" y="278" type="curve"/>
      <point x="237" y="368"/>
      <point x="252" y="409"/>
      <point x="302" y="409" type="curve"/>
      <point x="350" y="409"/>
      <point x="368" y="373"/>
      <point x="368" y="278" type="curve"/>
      <point x="368" y="182"/>
      <point x="349" y="144"/>
      <point x="303" y="144" type="curve"/>
      <point x="255" y="144"/>
      <point x="237" y="183"/>
    </contour>
  </outline>
</glyph>
<glyph name="uni01A4" format="2">
  <advance width="786"/>
  <unicode hex="01A4"/>
  <anchor x="395" y="0" name="bottom"/>
  <anchor x="395" y="714" name="top"/>
  <outline>
    <contour>
      <point x="228" y="0" type="line"/>
      <point x="424" y="0" type="line"/>
      <point x="424" y="236" type="line"/>
      <point x="469" y="236" type="line" smooth="yes"/>
      <point x="699" y="236"/>
      <point x="749" y="369"/>
      <point x="749" y="483" type="curve"/>
      <point x="749" y="623"/>
      <point x="670" y="714"/>
      <point x="480" y="714" type="curve"/>
      <point x="208" y="714" type="line"/>
      <point x="52" y="714"/>
      <point x="3" y="625"/>
      <point x="3" y="524" type="curve"/>
      <point x="3" y="495"/>
      <point x="11" y="474"/>
      <point x="16" y="465" type="curve"/>
      <point x="166" y="465" type="line"/>
      <point x="162" y="475"/>
      <point x="156" y="487"/>
      <point x="156" y="510" type="curve"/>
      <point x="156" y="533"/>
      <point x="171" y="554"/>
      <point x="202" y="554" type="curve"/>
      <point x="228" y="554" type="line"/>
    </contour>
    <contour>
      <point x="453" y="396" type="curve"/>
      <point x="424" y="396" type="line"/>
      <point x="424" y="554" type="line"/>
      <point x="471" y="554" type="line"/>
      <point x="526" y="554"/>
      <point x="552" y="529"/>
      <point x="552" y="477" type="curve"/>
      <point x="552" y="425"/>
      <point x="511" y="396"/>
    </contour>
  </outline>
</glyph>
<glyph name="uni01A5" format="2">
  <advance width="650"/>
  <unicode hex="01A5"/>
  <anchor x="325" y="-240" name="bottom"/>
  <anchor x="325" y="765" name="top"/>
  <outline>
    <contour>
      <point x="270" y="765" type="curve"/>
      <point x="154" y="765"/>
      <point x="73" y="716"/>
      <point x="73" y="578" type="curve"/>
      <point x="73" y="-240" type="line"/>
      <point x="267" y="-240" type="line"/>
      <point x="267" y="-15" type="line" smooth="yes"/>
      <point x="267" y="13"/>
      <point x="266" y="39"/>
      <point x="262" y="46" type="curve"/>
      <point x="269" y="46" type="line"/>
      <point x="294" y="20"/>
      <point x="334" y="-10"/>
      <point x="412" y="-10" type="curve"/>
      <point x="523" y="-10"/>
      <point x="611" y="81"/>
      <point x="611" y="278" type="curve"/>
      <point x="611" y="465"/>
      <point x="524" y="563"/>
      <point x="411" y="563" type="curve"/>
      <point x="338" y="563"/>
      <point x="294" y="525"/>
      <point x="267" y="486" type="curve"/>
      <point x="261" y="486" type="line"/>
      <point x="264" y="522"/>
      <point x="267" y="540"/>
      <point x="267" y="567" type="curve"/>
      <point x="267" y="573" type="line"/>
      <point x="267" y="601"/>
      <point x="282" y="612"/>
      <point x="304" y="612" type="curve"/>
      <point x="326" y="612"/>
      <point x="349" y="604"/>
      <point x="354" y="602" type="curve"/>
      <point x="354" y="748" type="line"/>
      <point x="342" y="754"/>
      <point x="307" y="765"/>
    </contour>
    <contour>
      <point x="342" y="410" type="curve"/>
      <point x="392" y="410"/>
      <point x="413" y="367"/>
      <point x="413" y="282" type="curve"/>
      <point x="413" y="186"/>
      <point x="390" y="146"/>
      <point x="345" y="146" type="curve"/>
      <point x="287" y="146"/>
      <point x="267" y="194"/>
      <point x="267" y="280" type="curve"/>
      <point x="267" y="296" type="line" smooth="yes"/>
      <point x="270" y="374"/>
      <point x="287" y="410"/>
    </contour>
  </outline>
</glyph>
<glyph name="uni01A6" format="2">
  <advance width="690"/>
  <unicode hex="01A6"/>
  <anchor x="345" y="-100" name="bottom"/>
  <anchor x="345" y="714" name="top"/>
  <outline>
    <contour>
      <point x="483" y="-100" type="line"/>
      <point x="700" y="-100" type="line"/>
      <point x="482" y="205" type="line"/>
      <point x="538" y="238"/>
      <point x="606" y="293"/>
      <point x="606" y="392" type="curve"/>
      <point x="606" y="542"/>
      <point x="512" y="614"/>
      <point x="310" y="614" type="curve"/>
      <point x="281" y="614" type="line"/>
      <point x="281" y="714" type="line"/>
      <point x="85" y="714" type="line"/>
      <point x="85" y="0" type="line"/>
      <point x="281" y="0" type="line"/>
      <point x="281" y="157" type="line"/>
      <point x="319" y="157" type="line"/>
    </contour>
    <contour>
      <point x="291" y="316" type="curve"/>
      <point x="281" y="316" type="line"/>
      <point x="281" y="454" type="line"/>
      <point x="295" y="454" type="line"/>
      <point x="378" y="454"/>
      <point x="409" y="433"/>
      <point x="409" y="388" type="curve"/>
      <point x="409" y="341"/>
      <point x="382" y="316"/>
    </contour>
  </outline>
</glyph>
<glyph name="uni01A7" format="2">
  <advance width="554"/>
  <unicode hex="01A7"/>
  <anchor x="277" y="0" name="bottom"/>
  <anchor x="277" y="714" name="top"/>
  <outline>
    <contour>
      <point x="287" y="724" type="curve"/>
      <point x="198" y="724"/>
      <point x="117" y="702"/>
      <point x="44" y="669" type="curve"/>
      <point x="101" y="517" type="line"/>
      <point x="170" y="545"/>
      <point x="219" y="561"/>
      <point x="270" y="561" type="curve"/>
      <point x="310" y="561"/>
      <point x="325" y="546"/>
      <point x="325" y="524" type="curve"/>
      <point x="325" y="488"/>
      <point x="293" y="466"/>
      <point x="196" y="423" type="curve"/>
      <point x="89" y="372"/>
      <point x="39" y="303"/>
      <point x="39" y="199" type="curve"/>
      <point x="39" y="73"/>
      <point x="108" y="-10"/>
      <point x="285" y="-10" type="curve"/>
      <point x="369" y="-10"/>
      <point x="450" y="10"/>
      <point x="513" y="42" type="curve"/>
      <point x="513" y="202" type="line"/>
      <point x="435" y="172"/>
      <point x="365" y="151"/>
      <point x="297" y="151" type="curve"/>
      <point x="243" y="151"/>
      <point x="230" y="171"/>
      <point x="230" y="198" type="curve"/>
      <point x="230" y="235"/>
      <point x="277" y="262"/>
      <point x="345" y="294" type="curve"/>
      <point x="420" y="330"/>
      <point x="517" y="381"/>
      <point x="517" y="517" type="curve"/>
      <point x="517" y="649"/>
      <point x="433" y="724"/>
    </contour>
  </outline>
</glyph>
<glyph name="uni01A8" format="2">
  <advance width="511"/>
  <unicode hex="01A8"/>
  <anchor x="256" y="0" name="bottom"/>
  <anchor x="256" y="553" name="top"/>
  <outline>
    <contour>
      <point x="262" y="563" type="curve"/>
      <point x="191" y="563"/>
      <point x="118" y="550"/>
      <point x="46" y="516" type="curve"/>
      <point x="97" y="379" type="line"/>
      <point x="156" y="405"/>
      <point x="197" y="423"/>
      <point x="242" y="423" type="curve"/>
      <point x="267" y="423"/>
      <point x="286" y="415"/>
      <point x="286" y="402" type="curve"/>
      <point x="286" y="395"/>
      <point x="281" y="383"/>
      <point x="182" y="345" type="curve"/>
      <point x="87" y="308"/>
      <point x="38" y="252"/>
      <point x="38" y="161" type="curve"/>
      <point x="38" y="49"/>
      <point x="118" y="-10"/>
      <point x="274" y="-10" type="curve"/>
      <point x="345" y="-10"/>
      <point x="398" y="-1"/>
      <point x="460" y="32" type="curve"/>
      <point x="460" y="174" type="line"/>
      <point x="396" y="138"/>
      <point x="333" y="128"/>
      <point x="286" y="128" type="curve"/>
      <point x="250" y="128"/>
      <point x="229" y="135"/>
      <point x="229" y="155" type="curve"/>
      <point x="229" y="164"/>
      <point x="220" y="178"/>
      <point x="338" y="226" type="curve"/>
      <point x="444" y="270"/>
      <point x="479" y="315"/>
      <point x="479" y="405" type="curve"/>
      <point x="479" y="513"/>
      <point x="384" y="563"/>
    </contour>
  </outline>
</glyph>
<glyph name="uni01AA" format="2">
  <advance width="443"/>
  <unicode hex="01AA"/>
  <anchor x="222" y="-240" name="bottom"/>
  <anchor x="222" y="772" name="top"/>
  <outline>
    <contour>
      <point x="145" y="772" type="curve"/>
      <point x="42" y="772"/>
      <point x="-10" y="718"/>
      <point x="-10" y="654" type="curve" smooth="yes"/>
      <point x="-10" y="579"/>
      <point x="35" y="525"/>
      <point x="140" y="525" type="curve"/>
      <point x="142" y="525" type="line"/>
      <point x="142" y="-46" type="line" smooth="yes"/>
      <point x="142" y="-202"/>
      <point x="230" y="-240"/>
      <point x="340" y="-240" type="curve"/>
      <point x="402" y="-240"/>
      <point x="459" y="-227"/>
      <point x="495" y="-210" type="curve"/>
      <point x="495" y="-68" type="line"/>
      <point x="457" y="-80"/>
      <point x="424" y="-88"/>
      <point x="387" y="-88" type="curve"/>
      <point x="357" y="-88"/>
      <point x="336" y="-73"/>
      <point x="336" y="-49" type="curve"/>
      <point x="336" y="572" type="line" smooth="yes"/>
      <point x="336" y="692"/>
      <point x="289" y="772"/>
    </contour>
    <contour>
      <point x="117" y="673" type="curve"/>
      <point x="130" y="673"/>
      <point x="142" y="662"/>
      <point x="142" y="642" type="curve" smooth="yes"/>
      <point x="142" y="618" type="line"/>
      <point x="140" y="618" type="line" smooth="yes"/>
      <point x="115" y="618"/>
      <point x="99" y="637"/>
      <point x="99" y="652" type="curve" smooth="yes"/>
      <point x="99" y="663"/>
      <point x="109" y="673"/>
    </contour>
  </outline>
</glyph>
<glyph name="uni01AB" format="2">
  <advance width="479"/>
  <unicode hex="01AB"/>
  <anchor x="240" y="-240" name="bottom"/>
  <anchor x="240" y="663" name="top"/>
  <outline>
    <contour>
      <point x="287" y="-240" type="curve"/>
      <point x="391" y="-240"/>
      <point x="444" y="-187"/>
      <point x="444" y="-51" type="curve"/>
      <point x="444" y="164" type="line"/>
      <point x="409" y="152"/>
      <point x="377" y="143"/>
      <point x="344" y="143" type="curve" smooth="yes"/>
      <point x="314" y="143"/>
      <point x="289" y="155"/>
      <point x="289" y="199" type="curve" smooth="yes"/>
      <point x="289" y="409" type="line"/>
      <point x="441" y="409" type="line"/>
      <point x="441" y="553" type="line"/>
      <point x="289" y="553" type="line"/>
      <point x="289" y="663" type="line"/>
      <point x="163" y="663" type="line"/>
      <point x="111" y="551" type="line"/>
      <point x="28" y="488" type="line"/>
      <point x="28" y="409" type="line"/>
      <point x="95" y="409" type="line"/>
      <point x="95" y="182" type="line" smooth="yes"/>
      <point x="95" y="26"/>
      <point x="187" y="-10"/>
      <point x="271" y="-10" type="curve" smooth="yes"/>
      <point x="277" y="-10"/>
      <point x="280" y="-10"/>
      <point x="284" y="-10" type="curve"/>
      <point x="284" y="-53" type="line" smooth="yes"/>
      <point x="284" y="-94"/>
      <point x="272" y="-103"/>
      <point x="242" y="-103" type="curve"/>
      <point x="226" y="-103"/>
      <point x="210" y="-99"/>
      <point x="198" y="-95" type="curve"/>
      <point x="198" y="-226" type="line"/>
      <point x="221" y="-235"/>
      <point x="254" y="-240"/>
    </contour>
  </outline>
</glyph>
<glyph name="uni01AC" format="2">
  <advance width="660"/>
  <unicode hex="01AC"/>
  <anchor x="330" y="0" name="bottom"/>
  <anchor x="330" y="714" name="top"/>
  <outline>
    <contour>
      <point x="260" y="0" type="line"/>
      <point x="457" y="0" type="line"/>
      <point x="457" y="552" type="line"/>
      <point x="634" y="552" type="line"/>
      <point x="634" y="714" type="line"/>
      <point x="208" y="714" type="line" smooth="yes"/>
      <point x="52" y="714"/>
      <point x="3" y="625"/>
      <point x="3" y="524" type="curve"/>
      <point x="3" y="495"/>
      <point x="11" y="474"/>
      <point x="16" y="465" type="curve"/>
      <point x="166" y="465" type="line"/>
      <point x="162" y="475"/>
      <point x="156" y="487"/>
      <point x="156" y="507" type="curve"/>
      <point x="156" y="530"/>
      <point x="171" y="552"/>
      <point x="202" y="552" type="curve"/>
      <point x="260" y="552" type="line"/>
    </contour>
  </outline>
</glyph>
<glyph name="uni01AD" format="2">
  <advance width="479"/>
  <unicode hex="01AD"/>
  <anchor x="240" y="0" name="bottom"/>
  <anchor x="240" y="765" name="top"/>
  <outline>
    <contour>
      <point x="313" y="765" type="curve"/>
      <point x="181" y="765"/>
      <point x="95" y="716"/>
      <point x="95" y="578" type="curve"/>
      <point x="95" y="541" type="line"/>
      <point x="28" y="488" type="line"/>
      <point x="28" y="409" type="line"/>
      <point x="95" y="409" type="line"/>
      <point x="95" y="182" type="line" smooth="yes"/>
      <point x="95" y="26"/>
      <point x="182" y="-10"/>
      <point x="282" y="-10" type="curve"/>
      <point x="349" y="-10"/>
      <point x="408" y="4"/>
      <point x="444" y="21" type="curve"/>
      <point x="444" y="164" type="line"/>
      <point x="409" y="152"/>
      <point x="377" y="143"/>
      <point x="344" y="143" type="curve"/>
      <point x="314" y="143"/>
      <point x="289" y="155"/>
      <point x="289" y="179" type="curve"/>
      <point x="289" y="409" type="line"/>
      <point x="441" y="409" type="line"/>
      <point x="441" y="553" type="line"/>
      <point x="289" y="553" type="line"/>
      <point x="289" y="572" type="line" smooth="yes"/>
      <point x="289" y="599"/>
      <point x="303" y="612"/>
      <point x="338" y="612" type="curve"/>
      <point x="369" y="612"/>
      <point x="403" y="604"/>
      <point x="417" y="600" type="curve"/>
      <point x="417" y="747" type="line"/>
      <point x="397" y="754"/>
      <point x="356" y="765"/>
    </contour>
  </outline>
</glyph>
<glyph name="uni01AE" format="2">
  <advance width="604"/>
  <unicode hex="01AE"/>
  <anchor x="302" y="-267" name="bottom"/>
  <anchor x="302" y="714" name="top"/>
  <outline>
    <contour>
      <point x="406" y="-267" type="curve"/>
      <point x="444" y="-267"/>
      <point x="486" y="-257"/>
      <point x="503" y="-250" type="curve"/>
      <point x="503" y="-105" type="line"/>
      <point x="494" y="-108"/>
      <point x="472" y="-115"/>
      <point x="448" y="-115" type="curve"/>
      <point x="422" y="-115"/>
      <point x="400" y="-100"/>
      <point x="400" y="-61" type="curve"/>
      <point x="400" y="552" type="line"/>
      <point x="577" y="552" type="line"/>
      <point x="577" y="714" type="line"/>
      <point x="27" y="714" type="line"/>
      <point x="27" y="552" type="line"/>
      <point x="204" y="552" type="line"/>
      <point x="204" y="-64" type="line"/>
      <point x="204" y="-210"/>
      <point x="279" y="-267"/>
    </contour>
  </outline>
</glyph>
<glyph name="Uhorn" format="2">
  <advance width="900"/>
  <unicode hex="01AF"/>
  <anchor x="372" y="0" name="bottom"/>
  <anchor x="379" y="714" name="top"/>
  <outline>
    <contour>
      <point x="684" y="615" type="curve"/>
      <point x="684" y="714" type="line"/>
      <point x="491" y="714" type="line"/>
      <point x="491" y="277" type="line" smooth="yes"/>
      <point x="491" y="183"/>
      <point x="454" y="151"/>
      <point x="377" y="151" type="curve" smooth="yes"/>
      <point x="304" y="151"/>
      <point x="267" y="176"/>
      <point x="267" y="276" type="curve" smooth="yes"/>
      <point x="267" y="714" type="line"/>
      <point x="73" y="714" type="line"/>
      <point x="73" y="254" type="line" smooth="yes"/>
      <point x="73" y="95"/>
      <point x="177" y="-10"/>
      <point x="371" y="-10" type="curve" smooth="yes"/>
      <point x="575" y="-10"/>
      <point x="684" y="104"/>
      <point x="684" y="252" type="curve" smooth="yes"/>
      <point x="684" y="506" type="line"/>
      <point x="873" y="531"/>
      <point x="915" y="632"/>
      <point x="940" y="749" type="curve"/>
      <point x="933" y="760" type="line"/>
      <point x="749" y="760" type="line"/>
      <point x="749" y="698"/>
      <point x="731" y="639"/>
    </contour>
  </outline>
</glyph>
<glyph name="uhorn" format="2">
  <advance width="810"/>
  <unicode hex="01B0"/>
  <anchor x="326" y="0" name="bottom"/>
  <anchor x="333" y="553" name="top"/>
  <outline>
    <contour>
      <point x="846" y="623" type="curve"/>
      <point x="839" y="634" type="line"/>
      <point x="655" y="634" type="line"/>
      <point x="655" y="569"/>
      <point x="638" y="507"/>
      <point x="604" y="488" type="curve"/>
      <point x="604" y="553" type="line"/>
      <point x="412" y="553" type="line"/>
      <point x="412" y="311" type="line" smooth="yes"/>
      <point x="412" y="201"/>
      <point x="394" y="141"/>
      <point x="322" y="141" type="curve" smooth="yes"/>
      <point x="275" y="141"/>
      <point x="256" y="179"/>
      <point x="256" y="251" type="curve" smooth="yes"/>
      <point x="256" y="553" type="line"/>
      <point x="65" y="553" type="line"/>
      <point x="65" y="193" type="line" smooth="yes"/>
      <point x="65" y="51"/>
      <point x="149" y="-10"/>
      <point x="257" y="-10" type="curve" smooth="yes"/>
      <point x="323" y="-10"/>
      <point x="388" y="13"/>
      <point x="423" y="69" type="curve"/>
      <point x="436" y="69" type="line"/>
      <point x="460" y="0" type="line"/>
      <point x="604" y="0" type="line"/>
      <point x="604" y="378" type="line"/>
      <point x="783" y="408"/>
      <point x="823" y="504"/>
    </contour>
  </outline>
</glyph>
<glyph name="uni01B1" format="2">
  <advance width="791"/>
  <unicode hex="01B1"/>
  <anchor x="396" y="0" name="bottom"/>
  <anchor x="396" y="714" name="top"/>
  <outline>
    <contour>
      <point x="395" y="153" type="curve"/>
      <point x="305" y="153"/>
      <point x="249" y="207"/>
      <point x="249" y="323" type="curve"/>
      <point x="249" y="417"/>
      <point x="266" y="505"/>
      <point x="352" y="533" type="curve"/>
      <point x="352" y="714" type="line"/>
      <point x="21" y="714" type="line"/>
      <point x="21" y="551" type="line"/>
      <point x="198" y="551" type="line"/>
      <point x="110" y="513"/>
      <point x="47" y="408"/>
      <point x="47" y="279" type="curve"/>
      <point x="47" y="107"/>
      <point x="184" y="-10"/>
      <point x="395" y="-10" type="curve"/>
      <point x="611" y="-10"/>
      <point x="744" y="102"/>
      <point x="744" y="277" type="curve"/>
      <point x="744" y="398"/>
      <point x="686" y="510"/>
      <point x="597" y="551" type="curve"/>
      <point x="770" y="551" type="line"/>
      <point x="770" y="714" type="line"/>
      <point x="442" y="714" type="line"/>
      <point x="442" y="533" type="line"/>
      <point x="526" y="505"/>
      <point x="542" y="420"/>
      <point x="542" y="325" type="curve"/>
      <point x="542" y="206"/>
      <point x="486" y="153"/>
    </contour>
  </outline>
</glyph>
<glyph name="uni01B2" format="2">
  <advance width="757"/>
  <unicode hex="01B2"/>
  <anchor x="371" y="0" name="bottom"/>
  <anchor x="371" y="714" name="top"/>
  <anchor x="737" y="714" name="topright"/>
  <outline>
    <contour>
      <point x="376" y="-10" type="curve" smooth="yes"/>
      <point x="582" y="-10"/>
      <point x="684" y="104"/>
      <point x="684" y="284" type="curve" smooth="yes"/>
      <point x="684" y="566" type="line" smooth="yes"/>
      <point x="684" y="657"/>
      <point x="630" y="725"/>
      <point x="504" y="725" type="curve" smooth="yes"/>
      <point x="457" y="725"/>
      <point x="412" y="713"/>
      <point x="385" y="698" type="curve"/>
      <point x="385" y="547" type="line"/>
      <point x="409" y="558"/>
      <point x="428" y="562"/>
      <point x="448" y="562" type="curve" smooth="yes"/>
      <point x="470" y="562"/>
      <point x="491" y="552"/>
      <point x="491" y="521" type="curve" smooth="yes"/>
      <point x="491" y="296" type="line" smooth="yes"/>
      <point x="491" y="194"/>
      <point x="458" y="151"/>
      <point x="379" y="151" type="curve" smooth="yes"/>
      <point x="305" y="151"/>
      <point x="267" y="194"/>
      <point x="267" y="295" type="curve" smooth="yes"/>
      <point x="267" y="714" type="line"/>
      <point x="73" y="714" type="line"/>
      <point x="73" y="280" type="line" smooth="yes"/>
      <point x="73" y="95"/>
      <point x="179" y="-10"/>
    </contour>
  </outline>
</glyph>
<glyph name="uni01B3" format="2">
  <advance width="670"/>
  <unicode hex="01B3"/>
  <anchor x="330" y="0" name="bottom"/>
  <anchor x="330" y="714" name="top"/>
  <outline>
    <contour>
      <point x="235" y="0" type="line"/>
      <point x="429" y="0" type="line"/>
      <point x="429" y="279" type="line"/>
      <point x="518" y="447" type="line" smooth="yes"/>
      <point x="575" y="554"/>
      <point x="588" y="563"/>
      <point x="622" y="563" type="curve"/>
      <point x="631" y="563"/>
      <point x="650" y="558"/>
      <point x="660" y="553" type="curve"/>
      <point x="660" y="703" type="line"/>
      <point x="640" y="713"/>
      <point x="602" y="724"/>
      <point x="568" y="724" type="curve"/>
      <point x="476" y="724"/>
      <point x="431" y="669"/>
      <point x="390" y="578" type="curve" smooth="yes"/>
      <point x="332" y="449" type="line"/>
      <point x="210" y="714" type="line"/>
      <point x="0" y="714" type="line"/>
      <point x="235" y="273" type="line"/>
    </contour>
  </outline>
</glyph>
<glyph name="uni01B4" format="2">
  <advance width="669"/>
  <unicode hex="01B4"/>
  <anchor x="335" y="-240" name="bottom"/>
  <anchor x="335" y="553" name="top"/>
  <outline>
    <contour>
      <point x="559" y="564" type="curve"/>
      <point x="451" y="564"/>
      <point x="405" y="486"/>
      <point x="381" y="420" type="curve"/>
      <point x="342" y="311" type="line" smooth="yes"/>
      <point x="332" y="284"/>
      <point x="325" y="245"/>
      <point x="321" y="221" type="curve"/>
      <point x="318" y="221" type="line"/>
      <point x="312" y="270"/>
      <point x="303" y="309"/>
      <point x="301" y="319" type="curve"/>
      <point x="227" y="553" type="line"/>
      <point x="14" y="553" type="line"/>
      <point x="238" y="6" type="line"/>
      <point x="235" y="-5" type="line" smooth="yes"/>
      <point x="219" y="-64"/>
      <point x="173" y="-86"/>
      <point x="118" y="-86" type="curve"/>
      <point x="102" y="-86"/>
      <point x="73" y="-83"/>
      <point x="63" y="-81" type="curve"/>
      <point x="63" y="-233" type="line"/>
      <point x="79" y="-236"/>
      <point x="113" y="-240"/>
      <point x="139" y="-240" type="curve"/>
      <point x="270" y="-240"/>
      <point x="365" y="-174"/>
      <point x="408" y="-56" type="curve"/>
      <point x="529" y="281" type="line" smooth="yes"/>
      <point x="566" y="383"/>
      <point x="591" y="402"/>
      <point x="625" y="402" type="curve"/>
      <point x="635" y="402"/>
      <point x="648" y="400"/>
      <point x="661" y="397" type="curve"/>
      <point x="661" y="544" type="line"/>
      <point x="640" y="555"/>
      <point x="593" y="564"/>
    </contour>
  </outline>
</glyph>
<glyph name="uni01B5" format="2">
  <advance width="580"/>
  <unicode hex="01B5"/>
  <anchor x="290" y="0" name="bottom"/>
  <anchor x="290" y="714" name="top"/>
  <outline>
    <contour>
      <point x="59" y="434" type="line"/>
      <point x="59" y="273" type="line"/>
      <point x="124" y="273" type="line"/>
      <point x="17" y="125" type="line"/>
      <point x="17" y="0" type="line"/>
      <point x="564" y="0" type="line"/>
      <point x="564" y="160" type="line"/>
      <point x="248" y="160" type="line"/>
      <point x="329" y="273" type="line"/>
      <point x="510" y="273" type="line"/>
      <point x="510" y="434" type="line"/>
      <point x="443" y="434" type="line"/>
      <point x="555" y="589" type="line"/>
      <point x="555" y="714" type="line"/>
      <point x="21" y="714" type="line"/>
      <point x="21" y="554" type="line"/>
      <point x="325" y="554" type="line"/>
      <point x="237" y="434" type="line"/>
    </contour>
  </outline>
</glyph>
<glyph name="uni01B6" format="2">
  <advance width="507"/>
  <unicode hex="01B6"/>
  <anchor x="254" y="0" name="bottom"/>
  <anchor x="254" y="553" name="top"/>
  <outline>
    <contour>
      <point x="471" y="553" type="line"/>
      <point x="37" y="553" type="line"/>
      <point x="37" y="407" type="line"/>
      <point x="253" y="407" type="line"/>
      <point x="200" y="338" type="line"/>
      <point x="41" y="338" type="line"/>
      <point x="41" y="216" type="line"/>
      <point x="106" y="216" type="line"/>
      <point x="24" y="109" type="line"/>
      <point x="24" y="0" type="line"/>
      <point x="482" y="0" type="line"/>
      <point x="482" y="146" type="line"/>
      <point x="252" y="146" type="line"/>
      <point x="305" y="216" type="line"/>
      <point x="467" y="216" type="line"/>
      <point x="467" y="338" type="line"/>
      <point x="397" y="338" type="line"/>
      <point x="471" y="435" type="line"/>
    </contour>
  </outline>
</glyph>
<glyph name="uni01B8" format="2">
  <advance width="604"/>
  <unicode hex="01B8"/>
  <anchor x="302" y="0" name="bottom"/>
  <anchor x="302" y="714" name="top"/>
  <outline>
    <contour>
      <point x="352" y="-10" type="curve"/>
      <point x="443" y="-10"/>
      <point x="515" y="3"/>
      <point x="583" y="28" type="curve"/>
      <point x="583" y="192" type="line"/>
      <point x="516" y="161"/>
      <point x="430" y="143"/>
      <point x="370" y="143" type="curve"/>
      <point x="263" y="143"/>
      <point x="228" y="173"/>
      <point x="228" y="224" type="curve"/>
      <point x="228" y="265"/>
      <point x="271" y="295"/>
      <point x="420" y="295" type="curve"/>
      <point x="472" y="295" type="line"/>
      <point x="472" y="430" type="line"/>
      <point x="335" y="554" type="line"/>
      <point x="557" y="554" type="line"/>
      <point x="557" y="714" type="line"/>
      <point x="68" y="714" type="line"/>
      <point x="68" y="594" type="line"/>
      <point x="255" y="424" type="line"/>
      <point x="113" y="407"/>
      <point x="34" y="337"/>
      <point x="34" y="208" type="curve"/>
      <point x="34" y="81"/>
      <point x="139" y="-10"/>
    </contour>
  </outline>
</glyph>
<glyph name="uni01B9" format="2">
  <advance width="635"/>
  <unicode hex="01B9"/>
  <anchor x="318" y="-240" name="bottom"/>
  <anchor x="318" y="553" name="top"/>
  <outline>
    <contour>
      <point x="344" y="-240" type="curve"/>
      <point x="443" y="-240"/>
      <point x="518" y="-225"/>
      <point x="586" y="-196" type="curve"/>
      <point x="586" y="-34" type="line"/>
      <point x="519" y="-67"/>
      <point x="431" y="-86"/>
      <point x="372" y="-86" type="curve"/>
      <point x="263" y="-86"/>
      <point x="236" y="-32"/>
      <point x="236" y="18" type="curve"/>
      <point x="236" y="73"/>
      <point x="269" y="122"/>
      <point x="420" y="122" type="curve"/>
      <point x="476" y="122" type="line"/>
      <point x="476" y="258" type="line"/>
      <point x="304" y="407" type="line"/>
      <point x="582" y="407" type="line"/>
      <point x="582" y="553" type="line"/>
      <point x="66" y="553" type="line"/>
      <point x="66" y="428" type="line"/>
      <point x="263" y="262" type="line"/>
      <point x="98" y="227"/>
      <point x="40" y="125"/>
      <point x="40" y="6" type="curve"/>
      <point x="41" y="-135"/>
      <point x="134" y="-239"/>
    </contour>
  </outline>
</glyph>
<glyph name="uni01BA" format="2">
  <advance width="560"/>
  <unicode hex="01BA"/>
  <anchor x="280" y="-240" name="bottom"/>
  <anchor x="280" y="553" name="top"/>
  <outline>
    <contour>
      <point x="243" y="-240" type="curve"/>
      <point x="342" y="-240"/>
      <point x="436" y="-219"/>
      <point x="489" y="-196" type="curve"/>
      <point x="489" y="-58" type="line"/>
      <point x="441" y="-74"/>
      <point x="365" y="-101"/>
      <point x="269" y="-101" type="curve"/>
      <point x="220" y="-101"/>
      <point x="188" y="-91"/>
      <point x="188" y="-62" type="curve" smooth="yes"/>
      <point x="188" y="-36"/>
      <point x="213" y="-26"/>
      <point x="279" y="-21" type="curve" smooth="yes"/>
      <point x="497" y="-4"/>
      <point x="530" y="62"/>
      <point x="530" y="157" type="curve" smooth="yes"/>
      <point x="530" y="281"/>
      <point x="433" y="313"/>
      <point x="337" y="318" type="curve"/>
      <point x="498" y="435" type="line"/>
      <point x="498" y="553" type="line"/>
      <point x="47" y="553" type="line"/>
      <point x="47" y="418" type="line"/>
      <point x="280" y="418" type="line"/>
      <point x="141" y="309" type="line"/>
      <point x="141" y="210" type="line"/>
      <point x="205" y="210" type="line" smooth="yes"/>
      <point x="299" y="210"/>
      <point x="334" y="199"/>
      <point x="334" y="162" type="curve" smooth="yes"/>
      <point x="334" y="124"/>
      <point x="300" y="117"/>
      <point x="220" y="108" type="curve" smooth="yes"/>
      <point x="71" y="91"/>
      <point x="24" y="25"/>
      <point x="24" y="-66" type="curve"/>
      <point x="24" y="-184"/>
      <point x="116" y="-240"/>
    </contour>
  </outline>
</glyph>
<glyph name="uni01BB" format="2">
  <advance width="570"/>
  <unicode hex="01BB"/>
  <anchor x="285" y="0" name="bottom"/>
  <anchor x="285" y="761" name="top"/>
  <outline>
    <contour>
      <point x="264" y="761" type="curve"/>
      <point x="124" y="761"/>
      <point x="50" y="688"/>
      <point x="13" y="651" type="curve"/>
      <point x="107" y="535" type="line"/>
      <point x="145" y="576"/>
      <point x="184" y="608"/>
      <point x="241" y="608" type="curve"/>
      <point x="284" y="608"/>
      <point x="313" y="576"/>
      <point x="313" y="539" type="curve"/>
      <point x="313" y="504"/>
      <point x="314" y="469"/>
      <point x="281" y="428" type="curve"/>
      <point x="21" y="428" type="line"/>
      <point x="21" y="306" type="line"/>
      <point x="179" y="306" type="line"/>
      <point x="14" y="142" type="line"/>
      <point x="14" y="0" type="line"/>
      <point x="537" y="0" type="line"/>
      <point x="537" y="144" type="line"/>
      <point x="242" y="144" type="line"/>
      <point x="242" y="153" type="line"/>
      <point x="396" y="306" type="line"/>
      <point x="539" y="306" type="line"/>
      <point x="539" y="428" type="line"/>
      <point x="483" y="428" type="line"/>
      <point x="505" y="471"/>
      <point x="508" y="507"/>
      <point x="508" y="551" type="curve"/>
      <point x="508" y="664"/>
      <point x="415" y="761"/>
    </contour>
  </outline>
</glyph>
<glyph name="uni01BC" format="2">
  <advance width="610"/>
  <unicode hex="01BC"/>
  <anchor x="305" y="0" name="bottom"/>
  <anchor x="305" y="714" name="top"/>
  <outline>
    <contour>
      <point x="249" y="-10" type="curve" smooth="yes"/>
      <point x="480" y="-10"/>
      <point x="572" y="96"/>
      <point x="572" y="245" type="curve" smooth="yes"/>
      <point x="572" y="398"/>
      <point x="471" y="459"/>
      <point x="320" y="459" type="curve"/>
      <point x="307" y="459" type="line"/>
      <point x="307" y="546" type="line"/>
      <point x="553" y="546" type="line"/>
      <point x="553" y="714" type="line"/>
      <point x="24" y="714" type="line"/>
      <point x="24" y="546" type="line"/>
      <point x="132" y="546" type="line"/>
      <point x="132" y="309" type="line"/>
      <point x="249" y="309" type="line" smooth="yes"/>
      <point x="336" y="309"/>
      <point x="374" y="289"/>
      <point x="374" y="230" type="curve" smooth="yes"/>
      <point x="374" y="170"/>
      <point x="318" y="149"/>
      <point x="234" y="149" type="curve" smooth="yes"/>
      <point x="156" y="149"/>
      <point x="70" y="171"/>
      <point x="28" y="194" type="curve"/>
      <point x="28" y="28" type="line"/>
      <point x="70" y="11"/>
      <point x="152" y="-10"/>
    </contour>
  </outline>
</glyph>
<glyph name="uni01BD" format="2">
  <advance width="605"/>
  <unicode hex="01BD"/>
  <anchor x="303" y="0" name="bottom"/>
  <anchor x="303" y="553" name="top"/>
  <outline>
    <contour>
      <point x="253" y="-11" type="curve" smooth="yes"/>
      <point x="469" y="-11"/>
      <point x="561" y="66"/>
      <point x="561" y="183" type="curve" smooth="yes"/>
      <point x="561" y="302"/>
      <point x="490" y="353"/>
      <point x="347" y="353" type="curve" smooth="yes"/>
      <point x="310" y="353" type="line"/>
      <point x="310" y="410" type="line"/>
      <point x="541" y="410" type="line"/>
      <point x="541" y="553" type="line"/>
      <point x="44" y="553" type="line"/>
      <point x="44" y="410" type="line"/>
      <point x="139" y="410" type="line"/>
      <point x="139" y="230" type="line"/>
      <point x="269" y="230" type="line" smooth="yes"/>
      <point x="337" y="230"/>
      <point x="374" y="220"/>
      <point x="374" y="190" type="curve" smooth="yes"/>
      <point x="374" y="158"/>
      <point x="346" y="141"/>
      <point x="263" y="138" type="curve" smooth="yes"/>
      <point x="176" y="135"/>
      <point x="83" y="158"/>
      <point x="47" y="175" type="curve"/>
      <point x="47" y="21" type="line"/>
      <point x="83" y="7"/>
      <point x="163" y="-11"/>
    </contour>
  </outline>
</glyph>
<glyph name="uni01BE" format="2">
  <advance width="519"/>
  <unicode hex="01BE"/>
  <anchor x="260" y="0" name="bottom"/>
  <anchor x="260" y="663" name="top"/>
  <outline>
    <contour>
      <point x="236" y="-10" type="curve" smooth="yes"/>
      <point x="421" y="-10"/>
      <point x="484" y="73"/>
      <point x="484" y="174" type="curve" smooth="yes"/>
      <point x="484" y="253"/>
      <point x="434" y="293"/>
      <point x="364" y="326" type="curve" smooth="yes"/>
      <point x="318" y="348"/>
      <point x="305" y="363"/>
      <point x="305" y="391" type="curve" smooth="yes"/>
      <point x="305" y="409" type="line"/>
      <point x="435" y="409" type="line"/>
      <point x="435" y="553" type="line"/>
      <point x="305" y="553" type="line"/>
      <point x="305" y="663" type="line"/>
      <point x="179" y="663" type="line"/>
      <point x="127" y="551" type="line"/>
      <point x="22" y="488" type="line"/>
      <point x="22" y="409" type="line"/>
      <point x="124" y="409" type="line"/>
      <point x="124" y="376" type="line" smooth="yes"/>
      <point x="124" y="285"/>
      <point x="161" y="249"/>
      <point x="245" y="212" type="curve" smooth="yes"/>
      <point x="279" y="197"/>
      <point x="296" y="186"/>
      <point x="296" y="165" type="curve" smooth="yes"/>
      <point x="296" y="140"/>
      <point x="278" y="128"/>
      <point x="228" y="128" type="curve" smooth="yes"/>
      <point x="159" y="128"/>
      <point x="73" y="157"/>
      <point x="31" y="182" type="curve"/>
      <point x="31" y="30" type="line"/>
      <point x="78" y="6"/>
      <point x="169" y="-10"/>
    </contour>
  </outline>
</glyph>
<glyph name="uni01BF" format="2">
  <advance width="650"/>
  <unicode hex="01BF"/>
  <anchor x="325" y="-240" name="bottom"/>
  <anchor x="325" y="553" name="top"/>
  <outline>
    <contour>
      <point x="413" y="563" type="curve" smooth="yes"/>
      <point x="337" y="563"/>
      <point x="292" y="527"/>
      <point x="265" y="489" type="curve"/>
      <point x="256" y="489" type="line"/>
      <point x="230" y="553" type="line"/>
      <point x="73" y="553" type="line"/>
      <point x="73" y="-240" type="line"/>
      <point x="267" y="-240" type="line"/>
      <point x="267" y="-17" type="line"/>
      <point x="512" y="1"/>
      <point x="617" y="144"/>
      <point x="617" y="307" type="curve" smooth="yes"/>
      <point x="617" y="473"/>
      <point x="535" y="563"/>
    </contour>
    <contour>
      <point x="344" y="406" type="curve"/>
      <point x="395" y="406"/>
      <point x="419" y="370"/>
      <point x="419" y="306" type="curve" smooth="yes"/>
      <point x="419" y="197"/>
      <point x="356" y="139"/>
      <point x="267" y="129" type="curve"/>
      <point x="267" y="297" type="line" smooth="yes"/>
      <point x="267" y="368"/>
      <point x="290" y="406"/>
    </contour>
  </outline>
</glyph>
<glyph name="uni01C0" format="2">
  <advance width="357"/>
  <unicode hex="01C0"/>
  <anchor x="179" y="0" name="bottom"/>
  <anchor x="179" y="760" name="top"/>
  <outline>
    <contour>
      <point x="105" y="0" type="line"/>
      <point x="252" y="0" type="line"/>
      <point x="252" y="760" type="line"/>
      <point x="105" y="760" type="line"/>
    </contour>
  </outline>
</glyph>
<glyph name="uni01C2" format="2">
  <advance width="516"/>
  <unicode hex="01C2"/>
  <anchor x="258" y="0" name="bottom"/>
  <anchor x="258" y="760" name="top"/>
  <outline>
    <contour>
      <point x="331" y="760" type="line"/>
      <point x="184" y="760" type="line"/>
      <point x="184" y="563" type="line"/>
      <point x="43" y="563" type="line"/>
      <point x="43" y="427" type="line"/>
      <point x="184" y="427" type="line"/>
      <point x="184" y="354" type="line"/>
      <point x="43" y="354" type="line"/>
      <point x="43" y="218" type="line"/>
      <point x="184" y="218" type="line"/>
      <point x="184" y="0" type="line"/>
      <point x="331" y="0" type="line"/>
      <point x="331" y="218" type="line"/>
      <point x="475" y="218" type="line"/>
      <point x="475" y="354" type="line"/>
      <point x="331" y="354" type="line"/>
      <point x="331" y="427" type="line"/>
      <point x="475" y="427" type="line"/>
      <point x="475" y="563" type="line"/>
      <point x="331" y="563" type="line"/>
    </contour>
  </outline>
</glyph>
<glyph name="uni01E4" format="2">
  <advance width="724"/>
  <unicode hex="01E4"/>
  <anchor x="402" y="0" name="bottom"/>
  <anchor x="412" y="714" name="top"/>
  <outline>
    <contour>
      <point x="390" y="-10" type="curve" smooth="yes"/>
      <point x="499" y="-10"/>
      <point x="577" y="10"/>
      <point x="644" y="30" type="curve"/>
      <point x="644" y="180" type="line"/>
      <point x="709" y="180" type="line"/>
      <point x="709" y="295" type="line"/>
      <point x="644" y="295" type="line"/>
      <point x="644" y="448" type="line"/>
      <point x="354" y="448" type="line"/>
      <point x="354" y="333" type="line"/>
      <point x="452" y="333" type="line"/>
      <point x="452" y="295" type="line"/>
      <point x="354" y="295" type="line"/>
      <point x="354" y="180" type="line"/>
      <point x="452" y="180" type="line"/>
      <point x="452" y="144" type="line"/>
      <point x="435" y="140"/>
      <point x="419" y="138"/>
      <point x="398" y="138" type="curve" smooth="yes"/>
      <point x="308" y="138"/>
      <point x="258" y="187"/>
      <point x="258" y="344" type="curve" smooth="yes"/>
      <point x="258" y="489"/>
      <point x="312" y="561"/>
      <point x="423" y="561" type="curve" smooth="yes"/>
      <point x="481" y="561"/>
      <point x="550" y="545"/>
      <point x="586" y="526" type="curve"/>
      <point x="646" y="679" type="line"/>
      <point x="587" y="704"/>
      <point x="508" y="724"/>
      <point x="433" y="724" type="curve"/>
      <point x="191" y="724"/>
      <point x="56" y="581"/>
      <point x="56" y="339" type="curve" smooth="yes"/>
      <point x="56" y="95"/>
      <point x="194" y="-10"/>
    </contour>
  </outline>
</glyph>
<glyph name="uni01E5" format="2">
  <advance width="650"/>
  <unicode hex="01E5"/>
  <anchor x="325" y="-240" name="bottom"/>
  <anchor x="325" y="553" name="top"/>
  <outline>
    <contour>
      <point x="251" y="563" type="curve"/>
      <point x="123" y="563"/>
      <point x="39" y="470"/>
      <point x="39" y="298" type="curve"/>
      <point x="39" y="131"/>
      <point x="114" y="44"/>
      <point x="239" y="44" type="curve"/>
      <point x="297" y="44"/>
      <point x="346" y="64"/>
      <point x="383" y="119" type="curve"/>
      <point x="387" y="119" type="line"/>
      <point x="384" y="103"/>
      <point x="383" y="73"/>
      <point x="383" y="55" type="curve"/>
      <point x="383" y="15" type="line"/>
      <point x="234" y="15" type="line"/>
      <point x="234" y="-80" type="line"/>
      <point x="368" y="-80" type="line"/>
      <point x="355" y="-101"/>
      <point x="319" y="-111"/>
      <point x="274" y="-111" type="curve" smooth="yes"/>
      <point x="200" y="-111"/>
      <point x="141" y="-100"/>
      <point x="69" y="-73" type="curve"/>
      <point x="69" y="-209" type="line"/>
      <point x="138" y="-231"/>
      <point x="212" y="-240"/>
      <point x="288" y="-240" type="curve"/>
      <point x="445" y="-240"/>
      <point x="530" y="-192"/>
      <point x="567" y="-80" type="curve"/>
      <point x="628" y="-80" type="line"/>
      <point x="628" y="15" type="line"/>
      <point x="577" y="15" type="line"/>
      <point x="577" y="553" type="line"/>
      <point x="413" y="553" type="line"/>
      <point x="399" y="491" type="line"/>
      <point x="395" y="491" type="line"/>
      <point x="357" y="542"/>
      <point x="314" y="563"/>
    </contour>
    <contour>
      <point x="315" y="407" type="curve"/>
      <point x="368" y="407"/>
      <point x="397" y="380"/>
      <point x="397" y="287" type="curve"/>
      <point x="397" y="272" type="line" smooth="yes"/>
      <point x="397" y="215"/>
      <point x="365" y="187"/>
      <point x="318" y="187" type="curve"/>
      <point x="266" y="187"/>
      <point x="237" y="219"/>
      <point x="237" y="298" type="curve"/>
      <point x="237" y="370"/>
      <point x="265" y="407"/>
    </contour>
  </outline>
</glyph>
